<svg xmlns="http://www.w3.org/2000/svg" viewBox="0 0 270.41 113.82"><defs><style>.cls-1{fill:#fff;}.cls-2{fill:none;stroke:#fff;stroke-linecap:round;stroke-linejoin:round;stroke-width:3px;}</style></defs><g id="Layer_2" data-name="Layer 2"><g id="Layer_1-2" data-name="Layer 1"><path class="cls-1" d="M265.92,109.46c.25.39.81.17.7-.9l-.95-.76Z"/><path class="cls-1" d="M267.69,102.27c-.46-1.26-1.28-2.71-2.15-1.89.91,1.24.53,1.54,1.62,2.88.11,1.07-.3,1.87-.65,1.69.24.38-.21,1.66.39,2.24a6.4,6.4,0,0,0,.15-5C267.26,101.8,267.51,102.18,267.69,102.27Z"/><path class="cls-1" d="M261.35,3l.67.11A2.46,2.46,0,0,0,261.35,3Z"/><path class="cls-1" d="M196.62,2.42c.49,0,.7-.11.72-.2C196.88,2.28,196.51,2.34,196.62,2.42Z"/><path class="cls-1" d="M185.57,1.37l.65.07A1,1,0,0,0,185.57,1.37Z"/><path class="cls-1" d="M261.35,3l-1.73-.3C259.5,3,260.51,2.88,261.35,3Z"/><path class="cls-1" d="M265.39,87.86a3.48,3.48,0,0,0,.25.94c0-.3-.08-.58-.1-.88A.94.94,0,0,1,265.39,87.86Z"/><path class="cls-1" d="M270,26.33v.52a2.67,2.67,0,0,0,.39.44Z"/><path class="cls-1" d="M270.09,48.23c0-.5-.77-.67-1.12-.86a1.64,1.64,0,0,1,.55,1.08A1,1,0,0,0,270.09,48.23Z"/><path class="cls-1" d="M268.67,83l.11.62C268.75,83.41,268.71,83.14,268.67,83Z"/><path class="cls-1" d="M270.12,10.65a.51.51,0,0,0,.29-.2A.41.41,0,0,0,270.12,10.65Z"/><path class="cls-1" d="M242.45,105.66a.61.61,0,0,0,0,.14C242.58,105.72,242.62,105.66,242.45,105.66Z"/><path class="cls-1" d="M267.84,109.67l-.35,0a1.86,1.86,0,0,0-.08.45Z"/><path class="cls-1" d="M165.34.34h.09C166,.26,165.66.28,165.34.34Z"/><path class="cls-1" d="M1.31,29.28c.72-2.1.93,3.43,1.73.26C2.73,29.83,1.78,26.66,1.31,29.28Z"/><path class="cls-1" d="M265.5,87.29c0-.29,0-.59,0-.89A3.57,3.57,0,0,0,265.5,87.29Z"/><path class="cls-1" d="M3,29.54h0l.08-.33Z"/><path class="cls-1" d="M118.74.82a1.27,1.27,0,0,0,.47.36C119.2,1.09,119.09,1,118.74.82Z"/><path class="cls-1" d="M153.45,2l-.85-.1A4.2,4.2,0,0,0,153.45,2Z"/><path class="cls-1" d="M100.71,2a2.83,2.83,0,0,0-1.26-.07.67.67,0,0,0,.19.1A1.52,1.52,0,0,1,100.71,2Z"/><path class="cls-1" d="M82,2a3.54,3.54,0,0,0,.34.16l.6,0Z"/><path class="cls-1" d="M185.43,106.05a2.86,2.86,0,0,1,.87.73C186,106.2,188.76,106,185.43,106.05Z"/><path class="cls-1" d="M265.84,87.85a.66.66,0,0,1-.34-.56c0,.22,0,.43,0,.63C265.66,88,265.77,88,265.84,87.85Z"/><path class="cls-1" d="M100,8.35l-3-.12C97.8,8.31,98.88,8.35,100,8.35Z"/><path class="cls-1" d="M50.82,106.16l.69-.09A1.35,1.35,0,0,0,50.82,106.16Z"/><path class="cls-1" d="M88.12,8.35a5.94,5.94,0,0,0-1.68-.56,1.36,1.36,0,0,0-.35.21Z"/><path class="cls-1" d="M186.3,106.78Z"/><path class="cls-1" d="M205.94,104.86c-2.84,0-1.33,1-1.94,1.65-3.39.31-1.57-.78-2.72-1.32-2.12.28-3.74,1.25-5.32,1.21-.12-.17-.42-.24-.06-.46-2.24.85-6.65,0-9.26,1.11a.86.86,0,0,1-.34-.27,1.72,1.72,0,0,1,.4,1.46c-1.27,0-2.36.68-2.84,0,.78,0,.85-.26,1.21-.48l-1.33.31c-1.2-1,1.82-.35,1.82-1.09-2.6.33-5.63,1.15-7.63.87-.41-1,4.66-.33,2-1.2L183,107c-2.36-1.54,1.87.11-.29-1.54-4.06-.28-4.54.5-8.59.21-.91.55.3.81-.61,1.35-5.76,1-4.53-2.46-8.77-1.15-1.09.65-1.52,1.89-4.53,1.23l1-1.11c-3.93-.1-2.24,1.59-6.36.85.73-.43,3.09-.37,2.49-.5-2.66-.87-1.88.63-3.93.63l-.43-1c-4.18.15-8.79.86-13.43,1,.26-.29,1.05-.6,0-.9-5.84.49-12.48-.12-18.12-.7l-2.15.85c-.5,0-.93-.38-.39-.55-2.19-.32-.11.54-1.17.87-1.25.06-1.65-.49-.86-.74-3.87.72-11,1.55-15.13.64l.8-.25c-3.18-.34-3.59,1.73-6.54.94l.57-.15c-6.91-.36-14.54.41-19.81-.87-1,1.22-6.83-.54-7.27,1.16-4-.84-2.82-1.14-8.37-1.71-1.48-.08-2.21,1.06-4,1.24L57,106l-2.49.93-1.32-1.06-1.72.23c.68.05,1.45.4,1.35.65-2.69.4-6.55-.62-6.61-1.07l-6.36.75c.14-.36,1.21-.48,2-.71-3.39.91-.62-.93-3.73-.1.42.2-.22.52-.29.7-1.55-.53-5.08-.54-7.69-.31l.5-.61c-4.71-.16-9.93.29-15.22.28,1.89.28,1.46,1.35-.09,1.45l-.62-.94c-1,.58,1.62.35-.44,1.06-2-.11-1.33-1.06-.19-1.37l-2.41.33c-.14-.28.43-.43.57-.79-.49.29-1.53.06-2.62-.12l-.39-.07,0,0s0-.05,0,0-.1.1-.29.35l.15-.28-.18,0c0-.07-.05-.13-.08-.21l-.05-.12,0-.06,0-.54c-.07-1.54-.14-3-.16-4.84-.81-.08-.63-1.76-1.28-3.05a97.09,97.09,0,0,0,.82-10.49c-.4-2.68-.68-.78-1.16-2,.73-.2.67-4,1.19-2A109.38,109.38,0,0,0,7.4,70.23c-.3.63-.43,1.34-.69,1-.12-1,.31-2.39.67-2.24l.07.28c-1.1-6.5,2.15-15,.62-20.18l.07.29L7.34,44c.13-2.47.56,1.48,1-.35-1.23-5.79.18-9.14-.64-13.91C9.89,26,7.56,16.63,9,11.65l-.52.29c-.5-1.29.3-1.56.42-2.5-.4.13-.47,1.39-.74.59l0-.71,0-.35c0-.07,0-.08,0-.12l0-.41a8.31,8.31,0,0,1,0-.87c.33,0,.69,0,1,0l.25,0h.63l1.74.07c2.33.09,4.67.23,7,.38,4.68.29,9.38.64,14,.83,4.09.14,2.32-2.65,7.47-1.43l-1.46,1c8.25-1.14,16.87,0,25-.92-.48.21-.49.5-1.28.5,1.7.69,6.31,0,6.34-.53,1.25.06.29.51,1.06.79,1.71.41,4.3-.88,5.21-.19.15.11-.48.22-.8.28,1.12-.34,5.2.08,4.13-.72,3,.38,5.8-.35,8.22.12C88,6.9,91.63,8.22,92.13,7c-.22,1.3,5.32,1,7.23.44-.64.39,1.67.41.92.95,2.19,0,4.19-.26,3.81-.93,4,1.56,8.1-1.25,10.37.74C121,7.46,127,7,132.82,6.69c-.21,1.29-6.46.12-6.21,1.49,5.54-.54,8.74-1.65,14.24-1.34,1.43.18-.81.57-1.29.79,5.54-.54,10.72.12,15.65-.59,0,.12-.55.25-1.05.35,1,0,2.26.19,2.15-.4l-.95.16c-1.55-.86,3.86-1.79,4-2.24-1.65,1.69,4.87.42,2.25,2.56.64-.11,1.44-.39,1.3-.78.95.11,1.25.34.29.79,3.48-.32,2.24-1,5.39-.94,0,.29-.65.4-1,.74a12.33,12.33,0,0,1,5.86-.88c-.16.18.15.4-.64.4,4.57-.09,7.8-1.49,12.82-1-1.48,1.24,1.71.41,2,1.48l2.7-.32-1.08-.52c2.36,0,4.45-.76,6.49-.41L194,6.52l4.43-.2-2.51-.41c2.39-.55-.25-1.36,2.89-1.06-.64.11,2.37,0,3.6.65h0a8.76,8.76,0,0,1,4.12-.44c.46.35-.36,1.19-.07,1.42,1.16-.9,5.54-.25,7-1.21-.48.23-.51.79-.35.91l1-.73c1.1.23,1.26.35,1.08.8,3.29.13-1-1.37,2.86-.78-.3.06-.16.17-.8.28,3.93.3,7.59-.47,11.2-.11,1.07,1.09-3.15.27-1.93,1.18,5.2-.19,10.77-1.3,15.81-1l-.94-.12c.7-1.53,3.75.75,6.3,0-.63.12-.82.85-.65.68,3.45.25,7.05-.37,12.27-.85l-.64.39a28.14,28.14,0,0,0,3.71.25l1.52,0a9,9,0,0,1,1,.09c.61-.39,1.48-.33,1.45-.9l.23.16a11.68,11.68,0,0,0-.63,3.56c0,1.57.18,3.12.34,4.64.34,3.05.69,6-.21,8.94,0-.72-.35-1.71-.35-1.14l.36,5.11c.67-.4.41-.67.92-1.74a7.58,7.58,0,0,1,.7,3.36c-.44-2.3-1.06,0-1.44,1,.21-.17.43.17.64.09-1.18,2.67,1.34.45.54,4.1l-.35-.2a19.66,19.66,0,0,1,.54,4.1c-.77.61-.36-1.45-1-1.55,0,2.07,1.46,4.08.69,6-.21-.88-.22-2.15-.43-3a8,8,0,0,0-.82,3.79l0-.15-.41,3.5.25-.89c2,2.58.37,5.27,1.68,8.75-1.24-3.39-.72-.56-1.59-.82-.24.89-.52,2.25-.76,1.86.7,1.65-.55,2.75.47,5.08-.28.1,0,1.76-.73,1.39.22,2.14.49-.51.84-.33,1,3.31-1.16,7.77.16,12.52.54,4.09,1.48,4.85,2,8.65-.45,1.28-1-1.05-1-1.05a14.35,14.35,0,0,0,0,5.58c-.25-.4-.46,0-.77.6.07,1.57,1,1,.61,3.11a4.94,4.94,0,0,1-1.13-1.56c.26,1.85.78,3.67,1,5.58-.49.5-.75-1.16-1.07-1.83.22,2.15.45,5.56,1.22,6.22l.28-1.37c0,.78-.67.4-.81-.18-.61-1.84.27-2.65.55-2.75l.18,1.36c1.65-1.4-.26-5.47-.17-8.2l1.2,1.14-1-2.81c.31-.6,1-1,1.16.35.59-2-.43-1.74.23-3.43.1-.18.16-.1.21.07L268.31,81c.25.37.85-.32.68.86.69-3.45-.9-5.55,0-6.85l.08.29c-.41-4.78-.88-.46-1.91-4l2.17-2.41-.88-.47c0-.49.09-1.46.45-1.28-.61-1.84-.39.31-.95-.75.8-2.38-.38-6.54,1-7.08-.67-.85-.51,2.27-1-.26,1.51-.72-.26-2.93.43-5.09.78.66.37,2.71,1.06.55-1.31-1.31.29-4.22,0-6-1-.08-.44-4-.78-7,.35.2.57-5.77.95-8.62l.17.09c-1.05-.56-.85-3.5-1.07-5.64.63.08.88.47,1.16,1.63v-2a4.67,4.67,0,0,1-.64-2.4l.79.5c0-2.68-.93-5.4-.4-8.84-.74-.2-2.06,2.74-2.55-.91.4-.13,1.08-.27,1.25.69a4,4,0,0,1-.17-1.75l.68,1.46c.29-1.57-.57-.82-.5-2.08.57,0,.4-.93.85-.75.06.32-.23,1.1,0,1.58a9.23,9.23,0,0,1,.87-3.7c-.32.13-.76,0-.84-1,0-.36,0-.56,0-.86a4.24,4.24,0,0,1,.08-.65.76.76,0,0,1,.27-.53c.21-.18.46-.14.61-1.38a7.18,7.18,0,0,1-.25-2c-.05-.72-.16-1.26-.59-.9a4.14,4.14,0,0,1,.06-.66c-.43-.12-.38-.4-.58-.57-1.18.18-3.5.21-5.28.3-.49,0-.72,0-1,.09a2.93,2.93,0,0,0-.59.13c-.27.11-.3.26.09.49l.36.06a1.6,1.6,0,0,1-.23,0h0c-4.55.85-9.45-.48-14-.11V2.77c-2.69.33-6,.19-7.92.81-.79,0-1.88-.52-1.54-.86a13.27,13.27,0,0,1-5.26.06c2.07-.49-.71-.44,2.12-.36-2.67-.25-3.28-.7-6.15.08,1-.73-2-.92-3.29-.7l1.88.52a32.34,32.34,0,0,1-3.95,0l.69-1c-5.48-1.17-9.88,2-14,0-1.45.67,3,.47,1.67,1.26-2.51-.13-5.14-1.51-5.92-1.51-3.45-.53-3.22,1.4-6.83,1,.46.34.9,1.25-1.8,1.57-2.52-.12-3.1-1.43-1.51-1.71.61,0,.9.08.87.2.82-.12,1.88-.27.89-.64l-.33.34c-1.25-.35-4.72-.31-3.9-.87-1.91.32-.82.56.59.74-3.23-.5-5.05,0-8.37-.35.53.19,1,.59.49.58-4.88-.42-2.15.65-5.46.8-1.88-.52.68-1.24-2.65-.81-2-.35-.43-.9.38-1.18-3,.66-5.67-.43-7.4-.55l1.6-.28a14.42,14.42,0,0,1-2.54.16l.91.68c-.93-.12-1.73-.12-1.71-.41-1,.45.74,1.14-1.18,1.75-1.25-.34-3.81.38-4.24-.53,3.93.31-.43-.91,2.9-1.06a8.16,8.16,0,0,1-2.37,0c-.14-.11.13-.19.39-.24-3.76-.81-1.73,1-5.63,1,.5-.51-.9-1-1.54-.86,1.57,0,.75.85-.69,1.24-2.5-.39-2.72.3-4,.25l1.5.19c-.51.51-1.76.45-3.5.61-.15-.4,1.58-.28,1-.45-1.93.9-4.37-.93-7.07-.33-1.25-.34-.12-1-1.22-1.19-3,.66-3.27-.7-6.45-.16.91.69,1.07.52-1.16,1.19l5.22-.48-3.35,1c1.57,0,3.33-.43,4.27-.32-1.6.56-1.43.39-.68,1-2.16-1-4.28.6-6.77-.09l.07-1.7c-3.75-.76-6.66.87-11.53.44l1.57.3c-.66.67-3,.09-4.59.37.15-.57-.84-.78-1.51-1.13.08.42-3.56,0-4,1.09L113,1.53c-3.93-.31-4.49,1.61-8.27,1.42,1.14-.62-.58-1,2-1.46-1.27,0-2.4-.11-2.42.28-.74-.35-3.5.77-4.66.23-.53.25-.71.84-2.12.8-.16-.12,0-.28,0-.28,0,.28-2.22.38-1,1-3.88-1.78-10.86.13-14.25-1.4-2.75.19-6.07.38-8.57.42.16-.17,0-.29.48-.23-3.45-.53-2.12,1.64-6,1.05-2-.92,2.08-.5.83-.85-.54-1.87-4.74.26-7.38-.84l.64-.11c-2-.63-4.92.71-8.22.58,0,0,.16-.17,0-.28-2.26.95-6.53,1.27-9.7,1.53,1-.73,1.44-.39.84-1.13-1.43.1.41,1.19-2.43,1.4-.92-.4-3-.75-3.24-1.54l2.68,0c-1.37-1-3.47,0-4.88-.14l.18-.45c-4.1.15-4.16,1.28-8.57,1.2l.46.34c-2.42,1.12-2-.63-4.43.2l-.73-1.14c-1.59.28-5.57,1.1-8.42,1.32,1.61-.85,5-1.28,7-1.78-1.58,0-5.36.09-6.18.65a5.19,5.19,0,0,1,2.06-.22,17.94,17.94,0,0,1-7.62,1.32c.16-.72-.58-1-1.94-1.18C7.32,2.05,4.8,2.06,2.36,2A17.75,17.75,0,0,1,1.49,7.9l.22,2.5c0,.7.06,1.39.07,2.09,0,1.39-.06,2.8-.14,4.24-.18,2.87-.44,5.85-.37,9.09,1.71-2.29.05,1.89,1.81,1.49.11,1.51.08,2.09,0,2.22L2,34.1c-.52,1.09-.39-1.43-.79-1.29C1.08,36.11.47,34.19,0,36.38c.63-.45.9,1.15.66,3l.81-2.65c.94,4.61-1.47,4-.55,8.64L.37,43.93c.33,2.38,0,8.8,1.4,11.14-.2.43-.68,1-.81-.07-.21,5.71,1.51,12.7.64,17.13l-.44-.43c.13,1.07.81,1.85.38,3.19-.18-.07-.43-.43-.45.06a12.33,12.33,0,0,1,.5,4.24L1.1,78c-.56,5.57,1.18,8.54,1.48,13.21C1.31,91.18.9,95.56.69,97.74l-.17-.07a48.21,48.21,0,0,0,.24,6.16c.09.63.2,2.75.32,4.26s.26,3,.38,4.56l8.41-.6c3.73,1.38,12.62.58,18.6,1.35-.91-.23.15-1,1.22-1.11,1.4.25,3.88-.88,3.66.28l-.5,0c1.06,1.14,3.94.83,6.2.87l.37-1.53c5.9,2.22,15.45-.81,18.67,1.17,1.42-.38,3.18-.37,4.59-.75l-.07.81a94.1,94.1,0,0,0,10.78.12l-1,.58c2.74.05,3.47-2.35,6-2.4l.76,1.22c4.8,0,9.65,1,14.39,0-.08.17-.22.53-1,.58,2.25,0,8.73.82,7.91-.85,0,1.09,4.94.11,7.53-.37l-.4.8c2.19-1,2.26-1.31,5.31-1.59.72.1.63.64-.33.44,2.41.42,1.88-.76,4.8-.34l-1.09.52a5.23,5.23,0,0,0,3.65-.82c1.56-.32,4.71.21,5.07.93a3.91,3.91,0,0,1,3.16-.82c.19.27-.34.44-.61.53,4.15.54,6.17-.94,9-.15a.65.65,0,0,0,.48.48c-3.29,0-5.94-.06-5.69-.12,0,.74,2.66.87.54,1.89,2.14-.56,5.79-1.77,8.38-1.42a1.24,1.24,0,0,1,.35.25l-.27.09a4.63,4.63,0,0,0,1.64-.12,14.52,14.52,0,0,0,2.14.22c.31.61,3.06.33,4.38.36-.11-.81,1.63-.68,0-1.35.21.06-.25.1-1.13.13a3.8,3.8,0,0,0-.57.09l.09-.08-3.29.06a5,5,0,0,1,3.61-.31c.68-.52,1.43-1.05,1.85-1.31,1.82,1.13,5.32,1.74,5.8,2.44,4.05-.45,9.55-.3,12.09-1.82,1.16-.2,1.33.44,1.76.67a9.63,9.63,0,0,0-1.82.35c2.31-.39,6.83-.15,7.38-1.21,2.9.48-1.63,1,2.36.8l-.54.33c7.84,1.7,12.75-2.71,21.45-.53-.6-.14-.9-.2-1-.38,9.92,1,20.44-.9,30.22.62,2.79.31,3.09-.37,4.79-.88l.6.87,2.9-1c4.12-.73,7.13,2.14,12.34.75l-.67-.59c1.87.11,5.93-.34,5.62.33a1.23,1.23,0,0,1,1.34-.3l.06.45,4.6-.78c3.56.33-.56,1.81,4.64,1.9,1.93-.18,5.51-1.33,4.78-1.63-.78,0-2-.29-2-.74l1.77-.24c.32-1.34,1.68-2.71-2.66-3.65l-3,.82-1-.65,2.54,0c-1.44-.61-2.36-.07-3.38.3a2,2,0,0,0-1.27-.72l-3,1.29c-.36-.53,1.33-1-.66-1.34-1.39.6,1.33,1.18-1,1.57-1.45-.61-1-1.1-2.72-.58-.24-.35.12-.57.79-.72-1.51.41-4,.17-4.78.89-1.51-.76-5.1.19-4.95-1.08a12.06,12.06,0,0,1-4.06,1c2.54-1.52-5.19-.09-4.52-1.72-1.88,1.37-6.79.61-10.11,1.37a1.3,1.3,0,0,1,.84-.26,16.36,16.36,0,0,1-3.62-.78c-.24,1.12-3.15,1.38-4.72,2.08-2.3-1.09,1.39-1.33.67-2.37.12.91-4,.91-3.21,1.67-1.75-.67-1.51-.32-2.41-1.26-.31,1.41-1.64.24-3.09,1.11-2.54-.7-.65-1.33-3.44-.9C203.46,105.36,205.94,104.86,205.94,104.86ZM139.6,107.3h0l1.37-.05Zm-5.58,0c.68,0,1.52,0,2.42,0,.19.28,0,.56-.58.55C136.17,107.71,134.85,107.55,134,107.31Zm11.79,5.61c-.88.12-1.17,0-1.3-.21.42,0,.91,0,1.55-.09l.1-.1A1,1,0,0,1,145.81,112.92Z"/><path class="cls-1" d="M147.4,111.86a3,3,0,0,1,.36-.06l-.52-.18-.32.25Z"/><path class="cls-1" d="M262.14,3.08l-.12,0a.72.72,0,0,1,.25.11C262.19,3.14,262.19,3.11,262.14,3.08Z"/><polygon class="cls-1" points="57.03 105.77 57.04 105.97 57.53 105.79 57.03 105.77"/><path class="cls-1" d="M266.26,29.29a.75.75,0,0,0-.2.4C266.11,29.68,266.18,29.5,266.26,29.29Z"/><path class="cls-1" d="M266.08,42.56l-.29,1.87A15.34,15.34,0,0,0,266.08,42.56Z"/><path class="cls-1" d="M265.68,52.75a.8.8,0,0,0,.35.2v0Z"/><path class="cls-1" d="M154.16,7.39a2.58,2.58,0,0,0-.4,0C152.84,7.58,153.47,7.52,154.16,7.39Z"/><path class="cls-1" d="M202.41,5.5a13,13,0,0,1-1.55.38C201.72,5.94,202.39,6,202.41,5.5Z"/><path class="cls-1" d="M100.27,8.37v0H100Z"/><path class="cls-1" d="M198.62,5.87a6.24,6.24,0,0,0,2.24,0A9.32,9.32,0,0,0,198.62,5.87Z"/><path class="cls-1" d="M265.31,97l0,.49a.14.14,0,0,1,.13.06Z"/><path class="cls-1" d="M265.41,97.51l.1.54C265.51,97.8,265.5,97.58,265.41,97.51Z"/><path class="cls-1" d="M265.71,99.2l-.2-1.15A1.79,1.79,0,0,0,265.71,99.2Z"/><path class="cls-1" d="M265.69,83.45l-.3-.15A.42.42,0,0,0,265.69,83.45Z"/><path class="cls-1" d="M265.6,79.35c-.06,1-.62,2.46-.44,3.82l.23.13C265,82.66,266.1,80.28,265.6,79.35Z"/><path class="cls-1" d="M269.23,62.23,269,65.67c.31-.61.73-1.4.81.17C270.74,61.5,269.11,66.73,269.23,62.23Z"/><path class="cls-1" d="M269.69,51.57c.14,1.84.45,0,.63.07C270,50.47,270,50.19,269.69,51.57Z"/><path class="cls-1" d="M238.09,2.43l.19-.73C236.85,1.8,238.26,2,238.09,2.43Z"/><polygon class="cls-1" points="223.36 6.24 224.75 6.7 225.41 6.02 223.36 6.24"/><polygon class="cls-1" points="214.66 0.99 215.29 0.89 212.91 1.15 214.66 0.99"/><path class="cls-1" d="M85.28,1.25l.43.91C86.68,2,86.88,1,85.28,1.25Z"/><path class="cls-1" d="M29.43,2.18a3.71,3.71,0,0,0-3.15-.3A29.56,29.56,0,0,0,29.43,2.18Z"/><polygon class="cls-1" points="42.22 113.04 41.1 113.34 43.21 113.09 42.22 113.04"/><path class="cls-2" d="M43.11,39.69s4.11-3.76,4.71-2.72c.49.84-9.23,10.85-9.21,10.89.7,1.22,16.76-13,18.2-10.51.07.12-20.19,15.69-19.25,17.32,1.9,3.3,25.7-16.08,26.24-15.15,1.39,2.42-26.06,20.7-25.94,20.91,2.46,4.26,41.6-24,41.6-24,1.31,2.27-43.27,24.23-40.62,28.81,1.82,3.17,44-31.76,46.72-27,1.89,3.28-47.79,27.17-45.09,31.84C40.68,70.46,88.52,39,90,41.53c1.12,1.93-50.3,28-47.33,33.11.51.89,41-26.66,42.27-24.4.34.57-40.16,27.72-39.42,29s38-21.92,38-21.92C86,61.66,47.18,81,48.26,82.83,49.86,85.61,81.77,57.55,84.34,62c.1.17-33.11,23-32.2,24.56s33.54-22,34.68-20S58.65,84.21,60.43,87.29c2.31,4,28.95-19.26,30.05-17.35.35.59-19,14-18,15.67.33.58,19.34-12.07,19.73-11.4S77.26,86,78.18,87.56c.53.92,10-5.88,10-5.79"/><path class="cls-2" d="M71.72,22.36s4.54-2.64,4.55-2.63c.77,1.33-8.6,10-8.46,10.21C68.6,31.3,77.7,23.59,78,24.07"/><path class="cls-1" d="M182.72,68c.08-.17.06-.2,0-.18s-.06.08-.13.08Z"/><path class="cls-1" d="M182.59,67.85l-.06-.11A.09.09,0,0,0,182.59,67.85Z"/><path class="cls-1" d="M182,66.57c.38.22.25.76.69.64A.56.56,0,0,0,182,66.57Z"/><path class="cls-1" d="M182,67.18l.23-.07-.47-.12Z"/><path class="cls-1" d="M181.94,67.49l0-.09c-.14-.11-.3-.23-.44-.36A4.28,4.28,0,0,0,181.94,67.49Z"/><path class="cls-1" d="M181.8,65.34l.17.34c-.19.43-.47-.09-.61.2.15.45.68-.06.77.51.26-.14-.3-.85.19-.92C182.31,65,182,65.54,181.8,65.34Z"/><path class="cls-1" d="M172.67,49.77l0-.06C172.67,49.79,172.7,49.85,172.67,49.77Z"/><path class="cls-1" d="M172.6,52.83a.82.82,0,0,0-.1.24.38.38,0,0,0,.13-.09Z"/><path class="cls-1" d="M174.33,49a2,2,0,0,0,.09.29A.46.46,0,0,0,174.33,49Z"/><path class="cls-1" d="M159.89,56.49l.14,0v0l-.14,0Z"/><path class="cls-1" d="M172.79,60.25a1.14,1.14,0,0,0,0,.32A.46.46,0,0,0,172.79,60.25Z"/><path class="cls-1" d="M175.33,50.3l0-.06a.45.45,0,0,0,0,.11l0-.05Z"/><path class="cls-1" d="M173.27,52.12s-.06,0-.06,0Z"/><path class="cls-1" d="M180.9,59.54a.32.32,0,0,0-.11-.27C180.74,59.36,180.74,59.45,180.9,59.54Z"/><path class="cls-1" d="M180.28,57.32v0C180.33,57.31,180.32,57.3,180.28,57.32Z"/><path class="cls-1" d="M179.91,55.89l0,0S180,55.87,179.91,55.89Z"/><path class="cls-1" d="M180.79,59.27c.13-.22.7-.43,0-.5l-.07.07c.11-.18-.19-.33-.26-.49a.71.71,0,0,0-.14.1,1.68,1.68,0,0,1,0,.38C180.26,59.06,180.6,59.11,180.79,59.27Z"/><path class="cls-1" d="M172.59,49.55c.09.2.09,0,0,0Z"/><path class="cls-1" d="M173.32,48.6l-.11-.1C173.25,48.57,173.29,48.63,173.32,48.6Z"/><path class="cls-1" d="M176.05,52.81v0C176,52.79,176,52.81,176.05,52.81Z"/><path class="cls-1" d="M173.1,48.45l.11,0C173.17,48.44,173.13,48.4,173.1,48.45Z"/><path class="cls-1" d="M175.55,50.93a0,0,0,0,0,0,0A0,0,0,0,0,175.55,50.93Z"/><path class="cls-1" d="M145.24,60.15c-.05-.15.13-.24.18-.38-.42-.34,0,.67-.4.18a.73.73,0,0,0,.11.37l.41-.19C145.39,59.84,145.4,60.31,145.24,60.15Z"/><path class="cls-1" d="M160,54.43v.08c.15-.12.22-.1.22-.37-.35-.08-.61.39-1.05.17a.38.38,0,0,1,.09.27C159.4,54.34,159.7,54.37,160,54.43Z"/><path class="cls-1" d="M159.22,54.58h0l-.07.09a.3.3,0,0,1,0,.16A.46.46,0,0,0,159.22,54.58Z"/><path class="cls-1" d="M145.72,55.12l.06-.17C145.69,55,145.69,55.08,145.72,55.12Z"/><path class="cls-1" d="M167.68,59.06c0-.07-.07-.14-.11-.2A.24.24,0,0,0,167.68,59.06Z"/><path class="cls-1" d="M160.92,57.88a.6.6,0,0,0,0,.19l.06.09Z"/><path class="cls-1" d="M152.77,49.93c.34-.34,0,0,.12-.25l-.18.18C152.68,50,152.75,49.91,152.77,49.93Z"/><polygon class="cls-1" points="145.09 60.33 145.14 60.34 145.13 60.32 145.09 60.33"/><path class="cls-1" d="M152.05,49.89l-.06,0Z"/><path class="cls-1" d="M159.57,55.94l.31.83v-.28C159.63,56.46,159.88,55.94,159.57,55.94Z"/><path class="cls-1" d="M153.94,52.48l-.22.2c.92.44.54,1.67,1.59,1.92-.5,1.33,1.09.25.65,1.47l.12-.08c1.08,2.94,1.66,6.29,3.39,9.09l-.19.07c.11.31.24.63.37.94,0,.09,0,.14.11.26l.19.38.39.76A8.67,8.67,0,0,0,162.42,70a4.82,4.82,0,0,0,2.81,1,4.73,4.73,0,0,0,2.84-1l.33-.21.3-.27.59-.56c.37-.41.71-.88,1.05-1.32s.61-1,.83-1.42.33-.7.46-1a25.85,25.85,0,0,0,1.17-4.06c-.1-.52-.59-.3-.74-.75.05-.18.09-.59.33-.56.08.37.33.21.4.34.06-.59.44-1.31.18-1.86l-.35.4c-.12-.21,0-.51,0-.69.16.09.52-.14.58,0-.69-1.14.41-.82.16-1.74-.65-.23-1.15-1.36-1.6-2.09l.19-.37c0,.5.49,0,.44.63.21-.51-.06-1,.07-1.48-.18.09-.4.06-.46-.13.1-.29.44-.3.48-.63l.2.34a.22.22,0,0,0,.06-.31c-.05-.05-.15-.08-.16-.12.28,0,.33-.1.64,0-.37-.21-.16-.16-.39-.42-.3,0-.36-.26-.58-.41l.09.32c.2-.24,0,.14.52.3a.89.89,0,0,1-.46-.21c-.16-.11-.28-.2-.25,0-.22-.5,0-.42-.35-1.19.06.37-.29-.33-.45-.29,0-.46.17,0,.47.2,0-.22.27,0,0-.56.18-.14.32.47.52.56.14.25,0,.28,0,.42s0,.33.55.72c0,.1.39.45.37.48.14,0,.47.25.24,0l-.56-.54c0-.09-.38-.53-.32-.56.15.22.39.43.35.32s-.06,0-.15-.16a6.9,6.9,0,0,1-.42-1.18c-.19,0-.35-.2-.64-.23-.37-.58,0-.29,0-.52a.45.45,0,0,0,.13.22c-.05-.15-.09-.31-.13-.47.25-.11.5.92.75,1,.33.42-.08-.52.13-.3l-.09-.16a0,0,0,0,1,.06,0l0,0c.05-.24.22-.27.11-.85.09.26.13-.11.16-.26s.24-.8.5.21h0a1.23,1.23,0,0,1,.33.88,4.36,4.36,0,0,1,.24.41l0,.62c.16,0,.18-.41.43-.83.09.5.38.54.56.53a.19.19,0,0,0,.09.12V50c.15.27.26,0,.38.21,0-.07,0-.1,0,.06s0,.08,0,.13-.06,0-.07-.08l-.07.15c-.19.54.37.12.39.49,0,0-.07,0-.08-.06,0,.22-.41.67-.09.54,0,.05.06.05.17.08v.16a.92.92,0,0,1,0-.16c.14,0,.31.05.24.1l.16.51c0,.11.09.22.18.3l-.12.15c.1.16,0,.2,0,.2-.29.83.67.85.44,1.71.31,0,.33-.29.46-.37s.57.37.78.53c-.26.44-.28,1.5-.86,1.51.13.59.27-.28.54,0v.08a1,1,0,0,1,.31-.62c.27-.13.51.36.48.55h-.44c.3.5.88.2,1.4.43,0,.49-.48.34-.83.54l.23.43-.31.08c.17.28.48.27.46.72-.37-.22-.13.7-.63.39,0,.25.58.16.19.39.37.07.12-.25.19-.4.45-.21.36.45.55.7-.24.08-.34-.11-.42.26.21,0,.4.19.22.43.31-.08.15.36.18.55,0-.23.16-.58.47-.51a.81.81,0,0,1,.31.64l.08-.29c.54.21-.2.61.05,1-.23-.14-.26-.26-.53-.36a6.1,6.1,0,0,1,.75.81l-.37.48c.24,0,.08.43.39.35-.09.52-.46-.28-.7-.28-.07.64.63.35.29,1l-.34-.12c0,.19.29.53.15.59.1,0,0-.11,0-.23.65,0,.65.76,1.28.52l0-.26c.22.36.73.52.59.88s-.48,0-.68-.14c.05.39.78.11.84.56,0-.26.28-.28.48-.2,0-.25,0-.8-.29-.64l0,.11c-.17,0-.27-.1-.37-.15-.09-.34.25-.23.35-.33,0-.6-.65.12-.77-.42l.11-.1c-.23-.21-.35-.6-.76-.58.36-.33-.31-.57-.13-.88.91-.27.16.92.73,1.1.12-.32.48.06.72.12l-.61-.78c.11-.1.5-.47.13-.55v.07c-.19-.32-.55-.14-.49-.47.07-.07.24,0,.31,0,0-.3-.27-.19-.4-.35,0-.3.41,0,.46-.21-.43-.24,0-.54-.13-.82-.49.25-1-.94-1.29-.22l-.53-.59c.22-.28.85.28,1.24,0l.11.54c.63-.25-.7-1-.07-1.56,0-.3-.12-.2.06-.84l-.55.25a.79.79,0,0,1,.45-.54,1.14,1.14,0,0,1-.13-.47.35.35,0,0,1,.25.15c.25-.31.12-.34-.07-.36s-.21-.26-.26-.44l.26.1c-.08-.1-.18-.21-.29-.19a.4.4,0,0,0-.11-.2,1.36,1.36,0,0,0-.46.59c0-.72-.24-1.2.05-1.91.17,0,.45.14.45.06a.5.5,0,0,0-.64-.41,1.15,1.15,0,0,1-.08-.15c.13-.1.25-.22.23-.36a.25.25,0,0,0,.05-.22c-.48.06-.45-.56-.7-.6a1.17,1.17,0,0,0,.14.45c-.38-.12-.79-.19-.62-.45.44.31.29-.62.65,0,.39-.66-.49-.07-.47-.62l.09-.39c.34-.08.36.43.45.31L179,52c.32.12.48,1,1,1.35-.06-.35-.12-.71-.2-1.07a13.3,13.3,0,0,1-1.07-1.94l-.14-.25-.19-.33c-.15-.23-.29-.44-.44-.64a3.1,3.1,0,0,0-1-.87l0,.05s-.08,0-.18.13l0-.13h-.33a5.16,5.16,0,0,0-.62-1.77c.15.47.14.47.05.75s-.28.43-.51,0c.08-.27.27-.05.11-.52.07.27-.09.33-.23.22-.13-.35-.43-.67-.38-.95.1,0,.16.16.21.26s-.32-.58,0-.57l-.39-.24c-.19-.4.21-.26.14-.48a1.37,1.37,0,0,0-.87,0,1.41,1.41,0,0,1-.73.12,3.56,3.56,0,0,0,0-.57c-.5-.33-.9.28-1.44.35,0-.15.27-.11.42-.16a1.9,1.9,0,0,0-1.27.11,3.21,3.21,0,0,0-.85.66,16.79,16.79,0,0,0-1.33,1.71c.11.34.24.66.37,1a4.14,4.14,0,0,0-.43.2,9.61,9.61,0,0,0-.38,3.13c0,.24,0,.56,0,.74l.06.5c0,.33.07.66.11,1s-.4.24-.57.44c-.1.93.52,1.18.59,2.07-.16-.13-.63-.37-.68,0,.16.08.41.14.3.37l-.17-.13c-.26.2,0,.42-.18.86a3.49,3.49,0,0,0,.77,2.27c-.16.68-.58-.16-.72,0,.27-.45-.06-.35-.23-.48.12.28.17.6-.24.66a1.19,1.19,0,0,0,.12.87c-.1-.19.14-.29.29-.1-.19.25-.19,1-.67.82a8.73,8.73,0,0,1-.7,2.24l-.12.26-.06.13,0,.05-.11.18-.25.31c.06.34.11,0,.16.27,0,.48-.17-.1-.17.29l0-.35c-.12,0-.19.82-.53,1.14.06-.41-.16-.37,0-.59-.06,0-.07-.42,0-.83s.12-.76.07-.58a12.93,12.93,0,0,0-.28,1.67c0,.17-.17,0-.18.09,0-.38,0-.8,0-.83.14-.38.18-.22.22-.18a4.8,4.8,0,0,1,.3-1c-.05.1-.12.32-.24.53l0-.17c0,.07-.05.15-.07.23s-.41.47-.28.1a1.67,1.67,0,0,1-.46.28c.32-.32,0-.16,0-.32l.25-.11c-.06-.09,0-.14.1-.3.38-.09,0,.12.28,0,0,0,.06-.06.08-.13-.22.11-.47,0-.51.28-.53-.07-1,0-1.24-.8.24-.5.49.2.81-.1-.16-.8-1.39-.51-1.53-1-.08-.65-.43-.47-.68-1.07.33.09.12-.53.33-.74l.36.13c-.15-.15-.11-.36.1-.38-.35.17-.64-.66-1-1l-.28.19a2.68,2.68,0,0,1-.65-1c-.3-.49-.52-.26-1-.53a1.08,1.08,0,0,1,.88-.49c-.1.2.09.4.08.66.52.56,1.36.83,1.46,1.54.85,0-.25-.41-.11-.83.05,0,.07,0,.08,0a.27.27,0,0,1,0-.09c.18.2.44.54.85.46-.23-.36-.85,0-.72-.61-.35-.28.12-.81.09-1.05-.38-.14-1,.09-1.1-.56l.52.1c-.26-.68-.73-.08-1-.71,0,.24-.49-.05-.34.37a1.08,1.08,0,0,1-.54-.94c-.1-.06-.15,0-.3.08-.13.49.52.48.23,1l.55.08c0,.42-.37.59-.63.45.06.09.16.15.11.25-.65.33.07-.51-.55-.4l.15.23c-.4.27-.61-.42-.71-.75.06-.43,0-.79.3-1l.34.43c.15-.36-.4-.55-.51-.83a.25.25,0,0,0,.07-.12l-.08.06a.32.32,0,0,1,.06-.22c-.08-.25-.43-.52-.43-.79l-.27.15.17,0c.09.23.05.6-.23.53-.41-.41.08-.75.27-1,.47-.07.21.49.47.68.35-.33-.18-.53-.14-1.17.56,0,.26.61.74.53-.11-.46-.48-.42-.57-.92.24,0,.46.39.72.24v-.35c.35.7.52-.39.88.12.07-.35-.54-.2-.42-.7-.15.19-.38.66-.73.38l-.05-.46c.15-.27.69.19.75-.16l-.35-.35c-.13.08-.11.32-.35.28,0-.31-.72-.14-1.06-.32-.1-.23-.15-.42,0-.58-.68-.36-1-1.07-1.7-1.36.46.2.44-.26.52-.59.28.37.7.14.94,0-.18-.23-.69-.15-.76.06-.06-.51-.44-.12-.39-.64,0-.33.47-.13.57-.3-.26-.47-.56.18-.77-.37.07,0,.11,0,.16-.06a.51.51,0,0,0-.11-.22,1,1,0,0,0-.25-.22.53.53,0,0,0-.45-.13A1,1,0,0,0,156,46c-.16-.22-.31-.33-.09-.55-.81-.69-.09.4-.36.41-.42-.08-.77-.83-.9-1.12.17.17.4.19.51.47l.06-.57c-.39-.69-.66-.54-.87-.43s-.39.24-.79-.26c.51.09.22-.23.54-.38a2.34,2.34,0,0,1-.47-.22c-.16-.05-.24,0,0,.26-.35-.24-.6-.43-.87-.6-.35.06-.74.11-.93.39a13.56,13.56,0,0,1-1.35-.25c-.53.41-1,.73-1.39,1.13a3.43,3.43,0,0,0-1,1.74l.06-.07c-.49,1,.6,0,.18,1-.37-.5-.52.42-.87.68a4.72,4.72,0,0,0-.41,1.9,2.4,2.4,0,0,1-.24,1.28.24.24,0,0,1-.2-.28,8.21,8.21,0,0,0-.36,1.87l-.05,0c-.54.95-.14,1.91-.1,2.94-.06-.09-.25-.13-.31-.2-.16.51-.29,1.33.15,1.72-.54.57.12.41-.4,1.16-.1,0-.08-.08-.1-.14a3.54,3.54,0,0,0-.23,1c.28.88.93,1.11.7,2.09-.7,0-.15-.61-.7-.65.11.2.25.38.07.64-.26-.17-.17,0-.41-.16-.19.2.69.87.62.86.14,0,.21,0,.2-.25.42.24,0,1,.17,1.46,0-.16.16-.64.48-.45-.16.63.5.86.77,1.31-.32.58-.57-.44-1.06-.34-.18.09-.57.32-.76.07-.11.53.3.92.4,1.4l-.14,0c.05.67.65,1.37.37,1.93l.16-.3c.08.11,0,.44.32.63-.23,0-.43.41-.62.23.73.29.44,1.5,1.14,1.82-.18.18-.48,0-.65,0,.06-.42.21-.56-.08-.77,0,.34-.18.6-.34.54.45.35.64,1.17,1.1,1.34-.23.25-.35.49-.73.41.25,1.06,1.16-.54,1.18.66-.36.55-.51-.53-.62.23l-.07-.14c-1,.56.71.37.69,1-.53.09-.39-.42-.76,0,.14.56.94.79.78,1.35l-.23-.08c0,.36,0,1.06,0,1.42-.1,0-.09,0-.12-.1-.18.67.28.27-.07.83l.27.14c.17-.28.41-.81.1-1.15.31.33.65-.56,1.11-.4l-.18-.06a7.39,7.39,0,0,0,1.09-3.21c-.55-.7.2-1.21-.18-2-.62-.11-.12-.14-.25-.79.08.34.47,0,.55-.19a.8.8,0,0,1-.27-.44c.21-.13.71-1,.29-1.26.2-.4.2.1.33.18.31-.16-.25-.32,0-.45a.14.14,0,0,1,.1,0,8.23,8.23,0,0,1,.23-1.6c-.61-.06-.22-.63-.43-.91.19.09.23-.35.35-.53l-.45-.35c-.37-.35.29-.46.09-.9l-.11.1c-.18-.32.22-1.15.56-1.45-1.07-3,.87-4.48.88-7.47-.15-.21-.32.11-.57-.08a2.29,2.29,0,0,1,0-.65c-.2.22,0,.21-.15.15l.11.45s-.06,0-.15,0a1,1,0,0,1,.09.52c-.13-.28-.56-.41-.35-.75.06,0,.07.08.1.18.07-.29-.14-.34,0-.54s0-.22.18-.22l.37-.81c-.47-.5.13-.92.21-1,.38.17,0,.56.38.83l.34-.24-.32-.07.17-.4.05,0c-.11-.07-.22-.15-.1-.23a.17.17,0,0,1,.16,0l-.15-.18c.31.16.12-.09.48.06.12-.06,0-.14,0-.27s-.07-.26.16-.08c-.15-.14-.43-.67-.33-.7a.79.79,0,0,1,.24.36,3,3,0,0,1-.09-.32c.22.32.27.38.3.35s.07-.12.15,0l0,.26c0-.32,0-.56.09-.43v.51c0,.37.09-1,.16-.64a7.68,7.68,0,0,0,0-1.36c0,.57.15.78.18.39.21,0,.11.14.09.26l.17-.16c.11.16-.17.58-.26.81.22-.38.2.07.22.2l-.12.12,0,.16c.23-.16.34,0,.31.18a1.41,1.41,0,0,0-.45.2c-.18.18.15-.07.23-.11.4.21.18.48.06.8C153.81,51.06,153,52.3,153.94,52.48Zm22.25.08,0-.09C176.37,52.58,176.47,52.63,176.19,52.56Zm-1.41-2.85c.31.06.12.23.07.39-.13-.4-.29-.36-.43-.78a4.31,4.31,0,0,1,0,.46,1.36,1.36,0,0,1-.07-.71c.1-.29.27,0,.35.31S174.76,49.93,174.78,49.71Zm5.46,6.91a.27.27,0,0,1-.12,0h0Zm-1.15-2.28a.36.36,0,0,0,.14-.23C179.12,54.2,179,54.27,179.09,54.34Zm-1.63-5.23c.06-.27-.2-.56-.37-.75A3.61,3.61,0,0,0,177.46,49.11ZM165,66.14a.45.45,0,0,0,.18-.52c-.1.2-.13-.22-.24.07v0A1.68,1.68,0,0,0,165,66.14ZM158.1,55c.19-.05.43,0,.54-.16v0c.05-.06.09-.12.14-.11s0-.26-.1-.31C158.07,54.71,157.88,54.52,158.1,55Z"/><path class="cls-1" d="M162.37,58.57a.63.63,0,0,0-.07-.12Z"/><path class="cls-1" d="M158.68,54.51s0,.16,0,.35A.34.34,0,0,0,158.68,54.51Z"/><path class="cls-1" d="M180.09,65l-.1-.12-.11.33a1,1,0,0,0,1,.39c-.41-.33-.34-.63-.56-1.15Z"/><path class="cls-1" d="M182.1,64.19c.08-.07.25-.23.26-.31h-.21Z"/><path class="cls-1" d="M181.67,58.44l-.06.49C181.82,59,182,58.44,181.67,58.44Z"/><path class="cls-1" d="M178.85,61.23l.27.18c.12-.25,0-.52-.21-.52C179.1,61.14,178.8,61,178.85,61.23Z"/><path class="cls-1" d="M181.39,57.21c-.41,0,0-.5-.34-.5C181.19,56.81,181,57.29,181.39,57.21Z"/><path class="cls-1" d="M177.92,58.47c-.32.23.05.38,0,.67C177.9,58.91,178.19,58.5,177.92,58.47Z"/><path class="cls-1" d="M179.63,55.1c.27-.06.32.13.32.36-.1,0-.24-.05-.31-.13a3.76,3.76,0,0,1,.49.57c.1-.34.08-.8.43-.86C180.25,54.9,179.8,54.76,179.63,55.1Z"/><path class="cls-1" d="M177.7,57.82c0,.26-.25.46-.16.73.17-.1.42-.26.29-.57l.34,0C178.32,57.65,177.79,58.24,177.7,57.82Z"/><path class="cls-1" d="M179.91,53.56l-.09.19c.36.25.38.72.83.79A2,2,0,0,0,179.91,53.56Z"/><path class="cls-1" d="M178,56.54l-.45.09c0,.33.14-.07.28,0,0,.11,0,.26.06.3C177.68,56.6,178.2,56.82,178,56.54Z"/><path class="cls-1" d="M177.17,55.65l-.31-.33-.37.46C176.8,56.19,176.76,55.71,177.17,55.65Z"/><path class="cls-1" d="M177.29,55.07l.07-.07-.83-.38A2.5,2.5,0,0,0,177.29,55.07Z"/><path class="cls-1" d="M175.16,45.66c-.12.16.19.75.09.37C175.37,45.92,174.91,45.19,175.16,45.66Z"/><path class="cls-1" d="M174.67,50.76c0-.23-.3-.18-.4-.08C174.39,50.67,174.53,51,174.67,50.76Z"/><path class="cls-1" d="M174.22,50.71l.05,0S174.24,50.69,174.22,50.71Z"/><path class="cls-1" d="M173.43,53.05a.14.14,0,0,0,0,.08Z"/><path class="cls-1" d="M173.33,52.79c.07-.16,0-.54-.25-.48,0,0,.09.18.14.3a2.17,2.17,0,0,0,.21.44C173.41,52.93,173.57,52.79,173.33,52.79Z"/><path class="cls-1" d="M173.12,55.36c-.11-.15,0-.33-.23-.29S173,55.44,173.12,55.36Z"/><path class="cls-1" d="M165.15,63.94c0-.11,0-.06-.21.16C165,64.15,165.08,64,165.15,63.94Z"/><path class="cls-1" d="M164.86,64.09,165,64l.15-.16A3.38,3.38,0,0,0,164.86,64.09Z"/><path class="cls-1" d="M164.85,63.1l.15,0C164.93,63.07,164.86,63,164.85,63.1Z"/><path class="cls-1" d="M165,63.17l0,0Z"/><path class="cls-1" d="M165,63.29l.14,0a.46.46,0,0,1-.1-.07S165.06,63.24,165,63.29Z"/><path class="cls-1" d="M164.71,62.66l-.28.45c.32.19.06-.42.6-.32Z"/><path class="cls-1" d="M164.19,61.73c0-.32-.77-.48-.36-.82-.56-.69-.71.5-1.25-.35.09,1,1.08.09,1.12.95C163.85,61,164,61.66,164.19,61.73Z"/><path class="cls-1" d="M163.45,62.19c.26-.06.13-.41-.07-.46C163.4,61.85,163.14,62.15,163.45,62.19Z"/><polygon class="cls-1" points="163.37 60.27 163.46 59.96 163.28 59.95 163.37 60.27"/><path class="cls-1" d="M163.1,59.3l.37.14C163.33,59.4,163.22,59,163.1,59.3Z"/><path class="cls-1" d="M162.94,57.85c0-.26-.71-.23-.38.2l0-.12C162.65,57.93,162.77,57.58,162.94,57.85Z"/><path class="cls-1" d="M160.73,55.16c.05.16.21.32.33.23l-.31-.38Z"/><path class="cls-1" d="M159.23,55.85c-.33.3.19.39.18.73A1.6,1.6,0,0,0,159.23,55.85Z"/><path class="cls-1" d="M161.07,54.43c.2.06.18.28.2.4C161.47,54.69,161.28,54.41,161.07,54.43Z"/><path class="cls-1" d="M160.64,53.79c.09-.21.23-.06.28-.21a.7.7,0,0,0-.41-.79c-.13.16-.52.46-.76.42.34.42,1.16.37.72.84l.84.13C161.25,53.74,160.71,54.08,160.64,53.79Z"/><path class="cls-1" d="M159.79,55.3l.12-.35c-.2.15-.32,0-.45-.14C159,55.08,159.7,55.17,159.79,55.3Z"/><polygon class="cls-1" points="159.11 51.21 158.73 50.72 158.79 50.91 159.11 51.21"/><polygon class="cls-1" points="159.09 50.79 159.22 50.7 158.75 50.41 159.09 50.79"/><polygon class="cls-1" points="158.95 50.13 158.97 50.2 159.25 50.47 158.95 50.13"/><path class="cls-1" d="M158.43,48.93l-.14.21c.13.11.06.51.31.34A.45.45,0,0,1,158.43,48.93Z"/><path class="cls-1" d="M152.52,50.06c.07-.15.13-.29.19-.44a3.54,3.54,0,0,0-.19.39S152.55,50,152.52,50.06Z"/><path class="cls-1" d="M152.69,49.25a2.38,2.38,0,0,0-.19.49c0,.13.14-.28.24-.27,0-.2-.13.12-.12-.06Z"/><path class="cls-1" d="M151,51.05c-.27-.09-.25,0-.37-.32a4.67,4.67,0,0,1-.06,1.28c.19-.06.44.34.39.15l-.08-.56.17.11C151.34,51.37,150.8,51.42,151,51.05Z"/><path class="cls-1" d="M147.19,73.44a.43.43,0,0,0-.37.09C147,73.87,147.16,73.37,147.19,73.44Z"/><path class="cls-1" d="M206.05,63.37c.12-.34,0-.12-.08-.1Z"/><path class="cls-1" d="M206,63.27l-.05-.07C205.93,63.26,206,63.28,206,63.27Z"/><path class="cls-1" d="M205.52,62.83c.24-.2.23.24.44-.15C206,62.41,205.79,62.43,205.52,62.83Z"/><path class="cls-1" d="M205.59,63.17l.11-.2-.27.27Z"/><path class="cls-1" d="M205.59,63.41v-.09a1.48,1.48,0,0,1-.29.12Z"/><path class="cls-1" d="M205.23,62.44l.15,0c-.07.34-.32.31-.36.54.16.1.41-.52.53-.32.14-.26-.28-.18,0-.55C205.52,61.92,205.4,62.35,205.23,62.44Z"/><path class="cls-1" d="M200.68,60.89l-.06-.14C200.68,60.9,200.72,61,200.68,60.89Z"/><path class="cls-1" d="M201,62.12l-.1-.22.14.33Z"/><path class="cls-1" d="M200.44,59.26l.13.35A1.64,1.64,0,0,0,200.44,59.26Z"/><path class="cls-1" d="M195.26,65.65a.76.76,0,0,0,0-.14h0v.13Z"/><path class="cls-1" d="M201.85,64.43l.05.1S201.88,64.5,201.85,64.43Z"/><path class="cls-1" d="M200.81,59.73v0l0,.14,0-.11Z"/><path class="cls-1" d="M201.61,63.71l-.06-.15Z"/><path class="cls-1" d="M203.41,59.75c0-.11-.08-.11-.12-.08S203.32,59.85,203.41,59.75Z"/><path class="cls-1" d="M202.56,58.72Z"/><path class="cls-1" d="M202,57.94h0C202,57.85,202,57.83,202,57.94Z"/><path class="cls-1" d="M203.29,59.67c0-.32.09-1.17-.15-.41v.15c0-.28-.16,0-.22-.08v.26a1.51,1.51,0,0,1,.11.26C203.06,60.13,203.18,59.76,203.29,59.67Z"/><path class="cls-1" d="M200.55,60.54c.13.36.08.2,0,0Z"/><path class="cls-1" d="M200.34,59.52l0-.09C200.33,59.51,200.36,59.58,200.34,59.52Z"/><path class="cls-1" d="M201.53,61.43l0-.06C201.53,61.5,201.53,61.49,201.53,61.43Z"/><path class="cls-1" d="M200.26,59.37l0,.06C200.27,59.35,200.24,59.29,200.26,59.37Z"/><path class="cls-1" d="M201,60.22v0Z"/><path class="cls-1" d="M193.55,60.24c0,.08-.14,0-.21,0,.31.32.12-.19.37.15,0-.05,0-.11,0-.17l-.38-.15C193.37,60.26,193.44,60.11,193.55,60.24Z"/><path class="cls-1" d="M194.47,64.86l0,0c0-.19,0-.25-.12-.34,0,.29.1.71,0,1,0,0,.07,0,.11,0A1.58,1.58,0,0,1,194.47,64.86Z"/><path class="cls-1" d="M194.47,65.61v0l0,.1a.07.07,0,0,1,.06,0A.4.4,0,0,0,194.47,65.61Z"/><path class="cls-1" d="M192.61,61.64l-.06,0C192.64,61.68,192.64,61.67,192.61,61.64Z"/><path class="cls-1" d="M196.92,53.82l-.11-.33A1.39,1.39,0,0,0,196.92,53.82Z"/><path class="cls-1" d="M195.77,65.1a.18.18,0,0,0,.07.05l0,0Z"/><path class="cls-1" d="M190,68.55c.3-.37-.08,0-.11-.31l-.28.13C189.68,68.51,189.86,68.51,190,68.55Z"/><path class="cls-1" d="M193.7,60.26l0,0h0Z"/><path class="cls-1" d="M186.76,64.75l0-.1A.15.15,0,0,0,186.76,64.75Z"/><path class="cls-1" d="M195,65.76h.34l-.11-.1C195.24,65.88,195,65.48,195,65.76Z"/><path class="cls-1" d="M192.46,69.47l0,.29a.74.74,0,0,1,.78-.15c.26,0,.49,0,.66-.39.59,1,.32-.89.85,0l0-.13a10.07,10.07,0,0,0,2.72-.15,4.38,4.38,0,0,0,2.71-1.73l.14.15a6,6,0,0,0,1.63-2l.08-.2v0s0,0,0-.06-.09-.29,0-.24l-.72-1.52s0-.09.19.36l.39.84c0-.08.22.45,0-.17l-.28-.6c-.12-.28-.05-.13,0-.12l.53,1.21c-.74-1.71.31.69,0,0-.65-1.51-1.23-2.92-1.78-4.3l.16.36.51,1.26c.18.41-.15-.39-.06-.19l-.51-1.25.47,1.13.25.62c.27.66-.11-.27-.16-.41.29.72.39.95.71,1.76-.34-.87-.25-.64-.51-1.28l-.72-1.81.17.43c.36.9.17.44.62,1.56l-.82-2L199.73,59c.14.39-.39-1-.55-1.36a13.58,13.58,0,0,1,.56,1.37c0-.06.06.11.09.16s0,0-.14-.51c.26.54.42,1.1.69,1.75s0,.08,0,.16,0,.09.14.36l.61,1.54.5,1.26c.15.37.57,1.42.28.67l-.73-1.83c0-.06-.54-1.36-.44-1.19a12.2,12.2,0,0,0,.48,1.19L201,62c0-.1-.48-1.34-.53-1.58l-.83-2c-.47-1.27,0-.12,0-.22.06.16.06.19.17.46l-.18-.55c.3.67.67,1.81.95,2.49.41,1.09-.16-.5.08.12l-.11-.31,0,.1,0-.08c0-.13,0,0-.24-.84.14.41,0-.06-.07-.31s-.35-1.21.13.21h0a9.45,9.45,0,0,1,.42,1.15l.18.43.32,1c0-.21-.23-.83-.49-1.8.23.68.19.33.14,0,0,0,0,.07,0,0L200.8,60c.08.14-.05-.37,0-.3,0-.1-.05-.15,0,0l.05.11c0,.09,0,.06,0,0l.09.32c.3,1,0-.42.11,0,0,0,0,.07,0,0,.1.3.41,1.57.26.85,0,.1,0,0,0-.2l0,.16,0-.16c0-.23-.09-.5-.05-.32l.12.27c0,.14,0,.07,0,0l.08.35s0,.18.07.27c.27,1.23.07-.34.3.72,0-.46-.11-.75-.15-1a3.55,3.55,0,0,1,0-.78,13,13,0,0,1,.36,2.38c.08.17,0-.57,0-.82V62c0-.15-.08-.49-.13-.87s.07-.48.12-.3v.64c.1-.13,0-1,.15-1.69a7.63,7.63,0,0,1,.06,1.54l.1,0,0,.45c.07,0,.12-.43.2-.14-.1.33.08.54-.06,1,0,.18.14-.6.09,0,.09-.39,0-.26,0-.43.06-.66.15-.17.24-.25a1.44,1.44,0,0,0-.08.6c.06-.22.14-.34.12,0,.09-.37.1,0,.13.08a1.63,1.63,0,0,1,.08-.74c.08-.1.14-.13.23,0l0-.24c.26-.42,0,.55.2.5-.13.14-.16.11-.28.32a1.08,1.08,0,0,1,.46-.28q-.06.29-.12.54c.13-.2.09.13.26-.16,0,.31-.3.25-.41.46s.39-.36.25.19l-.21.21s.21,0,.12.12c.07-.09,0-.07,0-.1.39-.51.51-.14.91-.68l-.06-.1c.22,0,.58-.28.54,0s-.33.31-.48.41c.1.13.54-.49.64-.34,0-.13.15-.31.29-.42-.05-.09-.13-.33-.27-.08v.07a.86.86,0,0,1-.28.19c-.11-.09.14-.27.2-.39-.11-.24-.43.52-.6.33l.06-.12c-.19,0-.34-.06-.58.28.15-.45-.27,0-.21-.33.44-.9.24.35.62,0,0-.26.32-.33.5-.45a3.57,3.57,0,0,0-.57,0c.05-.13.18-.68-.05-.43l0,.05c-.18,0-.33.39-.37.15a.74.74,0,0,1,.16-.28c-.06-.21-.18.12-.28.15-.06-.2.21-.36.17-.57-.26.27-.15-.31-.27-.42-.16.64-.59.47-.54,1.24a2,2,0,0,0-.26.24c0-.4.3-.77.37-1.42l.18.24c.09-.42,0-.42-.19-.42s-.25,0-.25-.63c-.1-.18-.08,0-.24-.76l0,1a5.33,5.33,0,0,1-.07-1.06c-.07,0-.12-.12-.18-.24s.05-.22.09-.22c-.06-.64-.1-.48-.13-.23s-.12.07-.19,0l.07-.29c-.05,0-.1.07-.1.25,0,0-.06-.05-.08,0,0,.21.08.87.16,1.24a9.89,9.89,0,0,1-.64-1.87c0-.32,0-.61,0-.68-.13-.32-.2.11-.14.63l-.05,0a5.28,5.28,0,0,0-.16-.79,2.17,2.17,0,0,0-.1-.33c.07.89-.16.24-.14.63.05.14.1.19.15.21,0,.56.06,1.23-.07.65,0-.46-.3-1.16-.13-1.21-.33-1.38.06.8-.16.2l-.19-.6c-.1-.69.12-.17,0-.46h-.06c0-.44.32.16.42-.4-.15-.3-.29-.52-.45-.78-.09.1-.2.07-.32,0l-.33-.17c-.1,0-.2-.08-.27,0a.9.9,0,0,0-.07.55h0l.09.42L199.6,55l.07.44a12.21,12.21,0,0,0-.59-1.37,7,7,0,0,1,.3.88c.15.6.21.84.06.53a4.36,4.36,0,0,0-.22-.75,1.23,1.23,0,0,1,.12.52,8.58,8.58,0,0,1-.34-.86c0-.09.05.06.08.14a5.41,5.41,0,0,1-.23-.73l-.06.05c-.15-.37-.12-.51-.21-.74-.07.19.14,1,.1,1.18-.06-.19-.32-1-.25-.78-.17-.28.08.73,0,.68s0-.09,0-.17c-.21-.27-.36-.43-.54-.63s-.32-.44-.61-.58l.22.61-.15-.33c-.14-.22,0,.27.18.79,0,.12-.26-.59-.37-.82-.07,0,.38,1.09.49,1.52a13.46,13.46,0,0,0-.55-1.28c.13.32.34.82.25.66l-.14-.35c-.23-.45,0,0-.16-.11A12.38,12.38,0,0,0,198,56.2c-.08.11-.65-1.38-.78-1.61.25.33-.08-.31-.27-.77.14.42.23.72-.22-.14,0,.16-.06.16.22.92-.14-.38.12.06.31.54-.18-.22-.06.47-.66-.7.06.66-.29.75-.4,1.5a4.38,4.38,0,0,0,.05,1.46,8.69,8.69,0,0,0,.3,1.09l.29,1c.4.72,0-.2.29.25s.22.5.19.55-.09,0,.09.37l-.33-.44a4.85,4.85,0,0,0,.38,1.08c.17.37.36.73.46,1-.29-.26-.26.17-.41-.27,0,.19-1.24-.26-1,.06.4.13.81.28,1.21.43.13.09,0,.28.08.3a1.59,1.59,0,0,0-.39.07c-.11,0-.2,0-.21,0-.31-.13-.19-.17-.15-.39-.25-.16-.35,0-.45,0s-.17,0-.38-.14c0,.2.26.1.41.28-.05,0-.11.07-.15,0a.27.27,0,0,0,.2,0c.1.18.47.35.16.29a4.47,4.47,0,0,1,.41.35c-.36-.23-.1,0-.21,0l-.21-.18s-.09,0-.23-.06c-.28-.26.1,0-.18-.2l-.12-.06a2.84,2.84,0,0,0,.45.37c.32.33.57.63.4.74-.34-.26-.19-.33-.5-.61-.19-.06.55,1,.39,1s0,.28-.2.4c-.07-.28-.26-.21-.4-.45l-.07-.29c0,.1-.09,0-.16-.18.17.35,0,.42-.13.63l.13.3c-.07.14-.17.39-.32.34-.16.15-.06.41-.15.8a2.66,2.66,0,0,1-.23-1c.08.15.14,0,.25.13.18-.34.12-1,.34-.95-.2-.77-.08.13-.26-.11a.42.42,0,0,1,0-.07l0,0a1,1,0,0,0,0-.65c-.05.1.18.77,0,.49,0,.24-.27-.35-.33-.39,0,.3.13.93-.08.84v-.45c-.19,0,0,.66-.19.67.08,0,0,.44.13.43,0,.25-.21.32-.36.2,0,.07,0,.15,0,.3.19.3.21-.32.38.11l0-.49a.88.88,0,0,1,.18.73s.06-.1.11,0c.14.71-.21-.23-.17.39l.1-.07c.12.45-.19.45-.34.43-.18-.21-.33-.27-.37-.61l.19-.17c-.13-.26-.24.19-.37.18a.23.23,0,0,0,0-.1.29.29,0,0,1,0,.09s-.05,0-.08-.13-.24.21-.34.1l0,.31V66a.36.36,0,0,1,.18.42c-.22.22-.29-.36-.35-.62,0-.47.21,0,.31-.17-.09-.46-.22,0-.44-.34.07-.51.24,0,.27-.46-.17-.09-.2.27-.37.15,0-.23.18-.26.16-.56l-.11-.14c.25,0-.06-.63.13-.76-.09-.2-.11.42-.24.1,0,.22.14.62,0,.82a1,1,0,0,1-.14-.15c-.06-.24.14-.53,0-.74l-.13.17c0,.15.07.23,0,.43-.07-.16-.14.58-.26.8-.08,0-.14,0-.16-.23-.22.43-.5.39-.74.77a1.16,1.16,0,0,0,.09-.74c.12,0,.2-.5.25-.8a2,2,0,0,0-.19.67c0-.21-.15.3-.16,0a5.3,5.3,0,0,1,.19-.61c-.06,0-.19.54-.23.41a.91.91,0,0,0,.06-.16c0-.1-.12.09-.24.3.23-.57-.17,0,.14-.52-.16.1-.16.29-.28.47s-.17,0-.13-.13.16-.12.12,0l.23-.37c.12-.29-.68.73-.55.34.21-.11.24-.22.47-.42-.08.07-.06-.07-.26.19a.4.4,0,0,1,.07-.2c-.15.08-.28.12-.53.26,0-.1.23-.31.38-.42-.33,0,.13-.29-.19-.33h0c.07-.13-.55.16-.54,0,.51,0,.34-.13.61-.18s.05-.11,0-.18-.11-.23.07-.3.23.07.24.11c.19-.13.13-.31.21-.47l.05,0c.48-.14.1-.54.13-.91a2.53,2.53,0,0,0,.27.18c.18-.1.34-.3,0-.62.54,0-.07-.19.47-.2.09,0,.07.06.08.09.2,0,.21-.14.32-.22-.14-.41-.66-.82-.3-1,.59.35,0,.27.5.57-.07-.12-.16-.25,0-.24.2.19.14.1.33.27s-.45-.64-.4-.6c-.11-.08-.18-.1-.2,0-.32-.3.16-.31.12-.55-.05,0-.26.11-.49-.13.25-.12-.25-.56-.37-.86.39,0,.38.47.8.71a1.56,1.56,0,0,1,.64.41c.19-.1-.07-.45,0-.66l.11.09c.1-.23-.22-.81.13-.8h-.19c0-.09.07-.16-.1-.39.17.15.43.15.54.32-.5-.55,0-.73-.43-1.27a1.56,1.56,0,0,1,.49.42c-.15.08-.3,0-.13.28.08-.1.29-.06.4.07-.26-.4-.19-.76-.49-1.11a1.15,1.15,0,0,1,.66.36c.1-.46-1-.62-.69-1,.41.08.22.49.52.35V56c.87.5-.41-.58-.22-.74.42.34.16.38.56.52,0-.25-.45-.87-.17-.91l.14.18c.07-.14.34-.26.41-.39.08.07.06.07.06.11.33,0-.11-.27.3-.16l-.14-.23c-.2,0-.54-.08-.42.23-.12-.32-.64-.32-.91-.69l.11.15a2.35,2.35,0,0,0-1.78.19c.19.59-.52.25-.45.76.44.44.05.12,0,.42,0-.16-.35-.32-.48-.29a.61.61,0,0,1,.1.32c-.2-.09-.83-.11-.58.26-.26,0-.13-.16-.21-.27-.3-.14.11.27-.1.18a.23.23,0,0,1-.06-.07c-.15.23-.38.26-.61.45.48.38,0,.37.12.6-.13-.15-.28,0-.42,0l.29.38c.23.34-.34,0-.28.31l.12,0c.07.21-.44.33-.79.29a1.46,1.46,0,0,1-.73,1.62,2.37,2.37,0,0,0-1.19,1.6c.15.16.32,0,.56.18a1,1,0,0,1-.05.35c.19-.08,0-.12.15-.06l-.1-.26s0,0,.14,0-.12-.2,0-.28c.1.18.52.35.3.47a.22.22,0,0,1-.09-.12c-.08.13.12.2,0,.28s0,.11-.18.07l-.35.38c.49.34-.07.53-.13.61-.39-.11-.07-.34-.43-.53l-.33.13.32.07-.14.25,0,0c.11.05.24.11.12.18s-.14,0-.16,0l.16.25c-.32-.16-.11.19-.5.15-.21.83.51.94.1,1.71.16-.15.63.06.62.26s-.13.2-.29.17l.26.19c-.43.54,0,.72.13,1.24l-.16.07A.87.87,0,0,1,188,67l-.3.17c.06.43.71-.24.82.15.26-.26.23-.53.47-.78-.23.3,0,.58.13.34.34.11.16.15.13.24l.29,0c.17.14-.23.41-.45.52.44-.18.46.19.67.37l-.19.08.29.23a.74.74,0,0,1,.86.19c-.12.13-.25.25-.38.37.12.31.17-.11.26-.17.4-.11.36.23.47.53.33-.18.53.07.77.29S192.23,69.81,192.46,69.47Zm9-8.52,0-.16C201.38,60.66,201.36,60.53,201.42,61Zm-.74-1.24c0-.33.08.18.17.5-.16-.42-.1-.11-.28-.6l.24.78c0-.09-.15-.39-.34-1C200.16,58.24,200.91,60.45,200.68,59.71Zm1.64-1.57,0,.15h0Zm-.83-.38a2.33,2.33,0,0,0-.1-.46C201.43,57.57,201.47,57.8,201.49,57.76ZM199.76,55c-.12-.41-.16-.33-.19-.28A2.33,2.33,0,0,0,199.76,55Zm-1.64,7.82c-.06-.13-.23-.44-.38-.35.16.18-.14.19.08.38h0A1.2,1.2,0,0,0,198.12,62.79Zm-3.58,4a2.65,2.65,0,0,0,0-.57v0a.36.36,0,0,1,0-.17c-.05,0-.11-.07-.14,0C194.41,66.73,194.31,66.84,194.54,66.82Z"/><path class="cls-1" d="M195.81,63.94s0,0,0,0Z"/><path class="cls-1" d="M194.39,66.09s.06.1.14.16A.21.21,0,0,0,194.39,66.09Z"/><path class="cls-1" d="M204,63.47h-.09l0,.23c.3,0,.47-.25.71-.48-.33.13-.32-.07-.57-.15Z"/><path class="cls-1" d="M205.29,61.72a1.74,1.74,0,0,0,.13-.31l-.14.14Z"/><path class="cls-1" d="M203.29,57.94l.17.51C203.57,58.32,203.39,57.57,203.29,57.94Z"/><path class="cls-1" d="M203,62.88l.12-.17c0-.23-.05-.28-.14,0C203.05,62.6,202.92,62.83,203,62.88Z"/><path class="cls-1" d="M202.74,57.1c-.1.52-.2-.56-.27,0C202.54,57,202.69,57.69,202.74,57.1Z"/><path class="cls-1" d="M202.42,62.59c0,.51.05.13.08.29C202.47,62.84,202.47,62.27,202.42,62.59Z"/><path class="cls-1" d="M201.74,57.61c0-.5,0-.37.14-.14a1.89,1.89,0,0,1-.06.36c.11-.22.13-.12.23-.2a7.78,7.78,0,0,1-.32-1.57A4.22,4.22,0,0,0,201.74,57.61Z"/><path class="cls-1" d="M202.31,62.52a5.46,5.46,0,0,0,.06.58c0-.26,0-.66,0-.66l0-.42C202.36,61.63,202.38,62.63,202.31,62.52Z"/><path class="cls-1" d="M201.1,55.5l.1.38c.08-.33.29.15.31-.51C201.33,55.17,201.14,55.22,201.1,55.5Z"/><path class="cls-1" d="M202.12,61.39v.68c.05.16,0-.24,0-.37,0,.12,0,.21.05.1S202.19,61.25,202.12,61.39Z"/><path class="cls-1" d="M202,61.93l0,.23L202,63A8.79,8.79,0,0,0,202,61.93Z"/><path class="cls-1" d="M201.85,61.31l0-.15c0,.32,0,.66,0,1Z"/><path class="cls-1" d="M198.85,53.75c.08.31.29.79.14.4S198.69,53.38,198.85,53.75Z"/><path class="cls-1" d="M201.21,61.43c-.12-.37,0,.17.06.47C201.23,61.71,201.37,62.05,201.21,61.43Z"/><path class="cls-1" d="M201.29,62l0-.11Z"/><path class="cls-1" d="M201.87,64.38l.06.13Z"/><path class="cls-1" d="M201.75,64.06l-.31-.75.43,1.07C201.85,64.31,202,64.7,201.75,64.06Z"/><path class="cls-1" d="M201.69,64l-.26-.61C201.35,63.14,201.56,63.65,201.69,64Z"/><path class="cls-1" d="M196.49,62.86c-.1,0,0,0,.2.17C196.71,63,196.55,62.92,196.49,62.86Z"/><polygon class="cls-1" points="196.72 63.1 196.6 63.02 196.41 62.92 196.72 63.1"/><path class="cls-1" d="M196.27,63l-.08-.09A.23.23,0,0,0,196.27,63Z"/><path class="cls-1" d="M196.18,62.89h0Z"/><path class="cls-1" d="M196.25,62.94l-.11-.1,0,0Z"/><path class="cls-1" d="M196.2,63l.33.29c-.13-.18-.18-.13-.48-.48Z"/><path class="cls-1" d="M196.19,63.16c-.1-.1.2.51-.09.09,0,.3.47.71.35,1,.34.11-.36-.91-.1-.75C196.13,63.27,196.25,63.26,196.19,63.16Z"/><path class="cls-1" d="M196.71,63.83c-.14-.21-.21-.19-.14,0S196.85,64.07,196.71,63.83Z"/><polygon class="cls-1" points="196.09 63.48 195.96 63.33 196.01 63.48 196.09 63.48"/><path class="cls-1" d="M195.87,63.47l-.07-.29C195.83,63.29,195.76,63.29,195.87,63.47Z"/><path class="cls-1" d="M195.48,63.21c-.07-.09.05.59.13.41l0,0C195.55,63.5,195.43,63.28,195.48,63.21Z"/><path class="cls-1" d="M194.78,64.41c.06,0,.12-.08.09-.22l-.15.15Z"/><path class="cls-1" d="M195,66.05c.11.41.18,0,.31.07C195.13,66.06,195.14,66,195,66.05Z"/><path class="cls-1" d="M194.54,63.84c0-.17.1-.07.14-.05C194.64,63.56,194.54,63.63,194.54,63.84Z"/><path class="cls-1" d="M194.3,64c-.07-.17,0-.24-.05-.35s-.22-.15-.27.08a3.44,3.44,0,0,1,.05.86c.18-.15.21-.92.34-.34l.1-.73C194.32,63.42,194.4,64,194.3,64Z"/><path class="cls-1" d="M194.79,65.34l-.13-.23a.38.38,0,0,1-.08.36C194.65,66,194.73,65.37,194.79,65.34Z"/><polygon class="cls-1" points="193.36 64.34 193.16 64.45 193.22 64.48 193.36 64.34"/><polygon class="cls-1" points="193.25 64.17 193.25 64.01 193.1 64.28 193.25 64.17"/><polygon class="cls-1" points="193.08 63.97 193.1 64 193.21 63.88 193.08 63.97"/><path class="cls-1" d="M192.77,63.84v.22c.05-.06.1.2.13-.1C192.84,64.06,192.76,64,192.77,63.84Z"/><path class="cls-1" d="M189,68.32c.16-.07.19-.21.23-.34l-.33.23S189,68.23,189,68.32Z"/><path class="cls-1" d="M188.93,67.53l-.53.11c.24.31.51.08.81.2,0-.18-.38,0-.43-.25Z"/><path class="cls-1" d="M187.51,62.06c.27.07.24,0,.39.21-.13-.26,0-.47,0-.72-.19,0-.43-.27-.38-.15l.09.33-.18-.09C187.17,61.81,187.7,61.85,187.51,62.06Z"/><path class="cls-1" d="M195.08,55.05a1.13,1.13,0,0,0,.3.24C195.36,55.08,195.09,55.09,195.08,55.05Z"/><path class="cls-1" d="M227.37,69.2c0-.36,0-.12-.07-.08Z"/><path class="cls-1" d="M227.3,69.12l-.05-.05C227.26,69.13,227.28,69.14,227.3,69.12Z"/><path class="cls-1" d="M226.84,68.89c.1-.28.23.1.27-.33C227,68.3,226.87,68.41,226.84,68.89Z"/><polygon class="cls-1" points="227 69.16 227.01 68.93 226.93 69.29 227 69.16"/><polygon class="cls-1" points="227.07 69.38 227.06 69.29 226.92 69.53 227.07 69.38"/><path class="cls-1" d="M226.5,68.72l.11-.06c.08.31-.08.43,0,.64.13,0,.06-.67.21-.56,0-.3-.25,0-.21-.47C226.47,68.13,226.58,68.55,226.5,68.72Z"/><path class="cls-1" d="M219.35,68.74v0S219.32,68.77,219.35,68.74Z"/><path class="cls-1" d="M217.55,67.72a.28.28,0,0,0,0-.13.34.34,0,0,0-.06.12Z"/><path class="cls-1" d="M220.87,68.66a.57.57,0,0,0,0,.14C220.9,68.73,220.91,68.68,220.87,68.66Z"/><path class="cls-1" d="M216.24,58.82l.14,0h0l-.13,0Z"/><path class="cls-1" d="M215.37,66.5a.23.23,0,0,0-.1,0S215.33,66.51,215.37,66.5Z"/><path class="cls-1" d="M221.49,69h0a.13.13,0,0,0,0,.06l0-.05Z"/><path class="cls-1" d="M217.65,68.65s0-.08,0-.09A.11.11,0,0,0,217.65,68.65Z"/><path class="cls-1" d="M225.09,68c0-.05,0,0-.07,0S225,68.12,225.09,68Z"/><path class="cls-1" d="M224.53,67.92h0S224.54,67.87,224.53,67.92Z"/><path class="cls-1" d="M224.19,67.78h0S224.21,67.72,224.19,67.78Z"/><path class="cls-1" d="M225,68c0-.2.11-.78-.09-.15V68c0-.16-.11.08-.16.08l0,.16a.7.7,0,0,1,.07.1C224.83,68.47,224.94,68.16,225,68Z"/><path class="cls-1" d="M219.43,68.65c-.07.1,0,.07,0,0Z"/><path class="cls-1" d="M220.21,68.57l0,0S220.18,68.58,220.21,68.57Z"/><path class="cls-1" d="M222.15,69.81v0C222.12,69.84,222.13,69.83,222.15,69.81Z"/><path class="cls-1" d="M220.13,68.49l0,0S220.17,68.47,220.13,68.49Z"/><path class="cls-1" d="M221.68,69.19v0A0,0,0,0,0,221.68,69.19Z"/><path class="cls-1" d="M222.37,56.8c0,.06-.08-.11-.12-.16,0,.44.16,0,.11.39,0,0,0-.07.06-.13l-.11-.4C222.27,56.66,222.38,56.63,222.37,56.8Z"/><path class="cls-1" d="M217.17,58.62h0a1,1,0,0,0,.34.05c-.27-.12-.69-.17-1-.33,0,0,0,0,0,0A3.11,3.11,0,0,1,217.17,58.62Z"/><path class="cls-1" d="M216.46,58.39h0l-.1,0a.08.08,0,0,1-.06,0Z"/><path class="cls-1" d="M221.21,56.84l0,0C221.2,56.89,221.21,56.88,221.21,56.84Z"/><path class="cls-1" d="M219.49,63.27l.13-.05A.31.31,0,0,0,219.49,63.27Z"/><path class="cls-1" d="M216.66,59.24l-.07,0,0,0Z"/><path class="cls-1" d="M214.77,54.31c.3.37,0-.06.27,0l-.1-.25C214.82,54.13,214.81,54.25,214.77,54.31Z"/><polygon class="cls-1" points="222.43 56.93 222.43 56.88 222.42 56.9 222.43 56.93"/><path class="cls-1" d="M217,52.56l.07,0A.11.11,0,0,0,217,52.56Z"/><path class="cls-1" d="M216.19,58.66a.74.74,0,0,0-.07.21l.12,0C216,58.75,216.46,58.74,216.19,58.66Z"/><path class="cls-1" d="M213.51,55.5l-.26-.11c.29.63-.67.72,0,1.36-1.12.14.72.57-.24.72l.14,0c-.56,1.31-1,3-.21,4l-.19.05c.17,2,1.44,3.37,2.33,4.77.24,0,.53-.34.78-.37,0,.06.12.13-.07.29-.17,0-.3.19-.4.22.14.12.09.49.42.42l.15-.31c.14,0,.14.09.17.15-.14.09-.34.38-.43.39.81-.26-.08.45.36.45a5.8,5.8,0,0,1,1.67-.75l0,.21c-.11-.11-.34.36-.46.19,0,.26.29.17.34.34.09-.14.25-.3.34-.31s-.21.38-.15.48l-.22.08c-.11.24.16,0,.23,0-.17.22-.07.37-.3.59.37-.19.27,0,.55-.07.06-.34.27-.26.4-.45l-.21,0c.08.31-.1,0-.39.36,0-.25.63-.49.43-.57.34,0,.24.18.68,0-.17,0,.22-.23.25-.39.15.1-.07.16-.22.44.09,0,0,.28.25.06,0,.21-.24.27-.29.48-.26.22-.12-.6-.74.24-.08,0-.42.2-.51.09,0,.19-.09.57.18.47l.37-.46c.1,0,.36-.25.39-.17-.14.11-.23.36-.13.37s0-.09.06-.16.42-.25.63-.23a2.22,2.22,0,0,1,.1-.67c.28-.3.11,0,.21,0-.05,0-.07,0-.1.12l.19-.11c0,.25-.38.47-.37.73s.23-.07.18.13l0-.09a.08.08,0,0,1,0,.05v0c.12,0,.19.09.39-.15-.07.12.09,0,.17,0s.42-.31.22.15h0a.38.38,0,0,1,0,.43l.1.22-.23.33c.22,0,.33-.21.65-.51,0,.27.28.21.43.12,0,0,0,0,.06,0V69c.12.08.2-.12.28-.07s0-.07,0,0l0,.05s0,0-.05,0l0,.12c-.1.44.27-.14.3.05,0,0,0,0,0,0s-.15.69,0,.38c0,.05.05,0,.11-.07l0,.07a.19.19,0,0,1,0-.07c.08-.1.16-.21.13-.13l.12.13c0,.07.07,0,.13,0l-.05.16c.07,0,0,.1,0,.14,0,.63.42-.15.46.41a1.47,1.47,0,0,0,.14-.54,3.11,3.11,0,0,1,.42-.45c0,.4.15.83-.08,1.35.18.11,0-.35.21-.5v0a1.05,1.05,0,0,1,0-.5c.08-.29.26-.32.28-.22l-.17.4c.22-.09.38-.72.6-1.1.07.19-.11.55-.19.92l.17-.06-.09.31c.11-.06.21-.34.3-.19-.17.27.12.35-.11.71,0,.12.22-.48.15,0,.13-.32,0-.18,0-.3.09-.49.21-.18.32-.29-.05.25-.12.28-.06.47.07-.19.16-.32.17-.08.07-.31.13,0,.18,0a.8.8,0,0,1,0-.59c.08-.12.13-.17.23-.11l0-.16c.17-.45.09.36.24.24-.08.18-.12.18-.21.4a4.1,4.1,0,0,1,.37-.48l0,.49c.05-.23.13,0,.17-.29.11.23-.16.38-.21.61.16.23.21-.52.33,0l-.1.3c.06,0,.2-.14.19,0,0-.1,0-.06-.06-.07.1-.64.31-.42.34-1.09l-.07,0c.13-.12.23-.56.3-.32a1.25,1.25,0,0,1-.12.62c.11,0,.13-.73.24-.65a.92.92,0,0,1,0-.52c-.06,0-.19-.19-.19.1l0,.06a.92.92,0,0,1-.08.32c-.09,0,0-.31,0-.44s-.06.67-.21.63V69a1.14,1.14,0,0,0-.27.58c0-.43-.2.16-.24-.11.11-.93.25.09.4-.41-.06-.2.09-.45.14-.66l-.28.39c0-.13,0-.6-.09-.27v0c-.1.08-.14.47-.2.33a1.84,1.84,0,0,1,.06-.29c-.06-.1-.09.2-.16.27-.06-.1.1-.37.06-.49-.15.34-.12-.11-.19-.1-.07.53-.45.66-.38,1.15l-.28.32c0-.28.3-.71.35-1.16l.14,0c.11-.66-.4.37-.32-.39-.07,0-.08,0-.13-.31l-.13.58a1.71,1.71,0,0,1,.05-.57c-.05,0-.08,0-.11,0a.57.57,0,0,1,.1-.18c0-.33,0-.21-.08,0s-.1.1-.15.09l.11-.2a.51.51,0,0,0-.13.19s0,0-.07,0a2.6,2.6,0,0,0-.07.6c-.1-.26-.28-.19-.25-.71.06-.16.19-.34.18-.37s-.21.15-.29.4h-.05a.94.94,0,0,0,.06-.34.28.28,0,0,0,0-.13c-.19.44-.24.17-.35.36a.1.1,0,0,0,.1.06c-.17.28-.36.59-.31.34.22-.24.08-.5.28-.56.12-.6-.22.38-.25.13l0-.25c.15-.31.18-.1.22-.23l-.07,0c.15-.21.27,0,.52-.31l-.14-.26c-.44.26-.57-.32-1.15.23h0l-.11.19,0-.08-.17.21a3,3,0,0,0,.07-.7,1.28,1.28,0,0,1-.17.44c-.18.3-.26.42-.28.26s.17-.18.2-.38c0,.12-.14.26-.19.26,0-.16,0-.23.1-.44.05,0,0,0,0,.07s0-.23.19-.37h-.11c.06-.2.19-.26.24-.38-.21.08-.57.51-.77.57L222,66c0-.19-.51.38-.64.34.1-.12.11,0,.18-.09a1.63,1.63,0,0,1-.38-1.18l-.42.39.16-.35c0-.5-.47-.39-.84-.51-.1,0,.23-.32.3-.47-.11-.2-.6.21-.85.13.15-.09.53-.39.48-.47-.13.1-.32.26-.29.15l.15-.09c.15-.21-.06-.09-.05-.25s-.55,0-1.15.26c-.07-.18.48-.37.55-.47-.07.22.14,0,.3-.11-.16.06-.29.06,0-.22-.08,0-.08-.09-.35,0,.14,0,0,.12-.18.2.07-.15-.17-.21.24-.49a3.72,3.72,0,0,1-.69-1.06c-.26.06-.06.1-.24.15-.35.06.11-.16-.16-.11l.26-.09c0-.12-.54,0-.82,0,.29-.11.2-.2.41-.18-.08,0,1.18-.65.9-.57l-1.17.57c-.11,0-.07-.07-.15,0a2.66,2.66,0,0,0,.46-.35c.29-.14.26,0,.27,0,.51-.21.27-.27.76-.4-.12,0-.26.12-.47.14l.08-.11-.15.12c-.17,0-.58.12-.32-.07l-.53.08c.41-.14,0-.09.14-.17l.27-.05c0-.06,0-.1.17-.18.37-.08-.07.07.28,0l.1-.09a2.35,2.35,0,0,0-.56.17c-.45.06-.85.12-.84-.06.39-.17.37,0,.77-.14.15-.18-1.1,0-1.07-.09s-.25-.1-.29-.25c.28,0,.3-.13.56-.18l.3,0c-.09,0,0-.07.23-.08-.38,0-.37-.12-.56-.21l-.33,0c-.12-.08-.32-.19-.23-.27-.09-.12-.38-.11-.73-.25a4.36,4.36,0,0,1,1,.06c-.17,0-.07.08-.18.12.26.18,1,.26.81.39.8,0-.1-.08.18-.14h.07l0,0a1.32,1.32,0,0,0,.64.1c-.08,0-.8,0-.46-.11-.22-.07.41-.09.47-.11-.29,0-.93-.1-.8-.19l.44.09c0-.1-.65-.12-.62-.23s-.43-.11-.45,0c-.24-.08-.25-.18-.11-.23-.06,0-.15,0-.29-.07-.33,0,.26.18-.19.19l.47.12a1.48,1.48,0,0,1-.75,0s.09.06,0,.07c-.72-.07.27-.08-.34-.19l0,.07c-.47,0-.41-.22-.34-.31a1,1,0,0,1,.67-.07l.12.15c.28,0-.12-.18-.09-.25h0a.28.28,0,0,1,.15,0s-.16-.21,0-.23l-.29-.09.16.07c0,.05-.23.08-.43,0s.41,0,.67,0c.43.18-.06.11.08.22.45.1.09-.1.42-.11.46.22-.06.12.37.29.12,0-.21-.18-.06-.22s.21.18.49.27l.15,0c0,.09.6.21.69.3s-.37-.17-.06-.09a4.31,4.31,0,0,1-.76-.31h.16c.23.09.48.27.68.32l-.15-.11a3.58,3.58,0,0,1-.39-.17c.15,0-.51-.3-.69-.46,0,0,.08,0,.24,0-.33-.3-.23-.43-.51-.78a1.45,1.45,0,0,0,.62.4c0,.11.4.38.64.55a2.66,2.66,0,0,0-.54-.44c.2,0-.22-.25.08-.1a5.92,5.92,0,0,1,.49.41c.07,0-.43-.38-.28-.37a.68.68,0,0,0,.12.11c.11,0,0-.15-.19-.32.48.39,0-.15.46.28,0-.2-.24-.23-.37-.39s.09-.13.17-.08.07.17,0,.12l.3.29c.31.14-.54-.77-.18-.6.07.22.18.27.33.52-.05-.1.11-.08-.14-.28a.34.34,0,0,1,.21.06,3.78,3.78,0,0,0-.2-.53c.1,0,.32.21.45.34,0-.34.37,0,.41-.36l0,0c.19,0-.31-.46-.14-.52.2.47.24.27.4.49s.17-.5.49-.23c0,.1.07.22,0,.24.2.11.28,0,.41,0l0,.06c.32.33.33-.22.55-.38,0,.07,0,.25,0,.32s.33.12.32-.35c.24.46.06-.17.33.27,0,.09,0,.09,0,.11s.16.08.26.12c.13-.35.09-1,.36-.84.11.68-.12.19,0,.74,0-.13,0-.28.13-.12s0,.17,0,.42.09-.74.1-.68c0-.13,0-.2-.09-.17,0-.43.23-.07.33-.26,0,0-.18-.12-.18-.45.18.12.16-.55.25-.84.18.29-.05.6,0,1.07a2.09,2.09,0,0,1,.1.75c.14.08.19-.34.3-.45v.14c.16-.07.29-.68.45-.41l-.08-.15c0-.09.11-.05.14-.34,0,.23.13.43.1.62,0-.73.36-.47.41-1.17a2,2,0,0,1,0,.65c-.11-.06-.15-.2-.19.1.09,0,.16.16.15.33.07-.46.28-.65.32-1.1a1.73,1.73,0,0,1,.13.73c.27-.24-.18-1.17.15-1.17.15.37-.14.5.07.63l0,.06c.17,1,.09-.7.26-.67,0,.53-.11.38,0,.76.15-.13.21-.92.37-.75l0,.22c.09,0,.28.07.38,0,0,.11,0,.09,0,.12.18.2.08-.27.22.1l.05-.26c-.07-.18-.21-.44-.31-.14.1-.3-.14-.67-.09-1.12l0,.18a2,2,0,0,0-.93-1.17c-.2.55-.37-.22-.59.17,0,.63,0,.13-.22.27.1-.09,0-.47-.08-.55a.62.62,0,0,1-.12.28c0-.21-.34-.69-.4-.26-.13-.2,0-.21,0-.34-.07-.31-.08.26-.13.05a.32.32,0,0,1,0-.1c-.18,0-.31-.12-.51-.18,0,.61-.17.24-.23.47,0-.2-.14-.21-.21-.32l-.05.47c-.06.39-.18-.25-.29,0l.05.11c-.07.19-.37-.14-.52-.45-.37.64-.73.57-1.16.38s-.9-.48-1.37-.15c0,.19.14.28.17.55-.07.1-.1.08-.19.12.13.13.05-.06.1.11l.08-.21a1.3,1.3,0,0,0,.05.14c0-.07,0-.2.12-.19,0,.18.07.61-.09.49a.18.18,0,0,1,0-.13c-.1,0,0,.2-.15.11s0,.06-.12-.13l-.36-.14c.06.55-.29.14-.35.12-.12-.39.13-.2.06-.59l-.21-.24.11.31-.18,0v-.06c0,.12.06.25,0,.16s-.08-.11-.07-.14l0,.21c-.07-.33-.14,0-.27-.41-.45,0-.23.67-.77.34.13.14.18.6.06.59a.34.34,0,0,1-.19-.27l0,.25c-.46-.43-.41,0-.75,0l-.08-.14c0,.22,0,.39-.14.44l-.17-.29c-.3-.07.3.67,0,.63.23.28.44.35.66.62-.26-.27-.46-.18-.25,0-.06.24-.11.08-.18,0l.06.24c-.12.07-.35-.33-.45-.52.16.38-.13.26-.29.31l-.06-.16-.2.1c.11.31,0,.46-.23.49l-.27-.41c-.28-.07.07.16.11.24,0,.3-.23.12-.51,0C214.32,55.25,213.08,54.85,213.51,55.5Zm8.68,14.07V69.5C222.27,69.44,222.33,69.38,222.19,69.57Zm-1.07-.68c.22-.1.07.08,0,.2-.06-.19-.21-.09-.25-.29,0,.09-.09.2-.12.28s0-.17.07-.39C221.13,68.31,221,69.16,221.12,68.89Zm3.29-1.17,0,.1h0Zm-.73.21a.43.43,0,0,0,0-.2C223.68,67.85,223.65,68,223.68,67.93Zm-.91-1c.07-.19,0-.16-.08-.14A.23.23,0,0,0,222.77,66.89Zm-5.51-5.26a.57.57,0,0,0,.4-.13c-.17,0,.09-.13-.17,0l0,0C217.38,61.54,217.26,61.62,217.26,61.63Zm-2-3.57a3.56,3.56,0,0,0,.53.17h0a.61.61,0,0,1,.17,0s.1,0,0-.08C215.41,58,215.33,57.89,215.3,58.06Z"/><path class="cls-1" d="M217.76,59.48l0,0Z"/><path class="cls-1" d="M216,58.2a.28.28,0,0,0-.19,0A.27.27,0,0,0,216,58.2Z"/><path class="cls-1" d="M226.2,70.25l0,.06.08.2a1.68,1.68,0,0,0,.23-.8c-.14.29-.22.13-.38.21Z"/><path class="cls-1" d="M226.27,68.1a2.34,2.34,0,0,0,0-.33l0,.2Z"/><path class="cls-1" d="M225.12,67l.06.19C225.25,67,225.2,66.69,225.12,67Z"/><path class="cls-1" d="M225,70.4l.11-.2c0-.18-.12-.17-.18.06C225,70.15,224.88,70.39,225,70.4Z"/><path class="cls-1" d="M224.87,66.86c-.14.37-.05-.19-.17.16C224.75,66.92,224.76,67.23,224.87,66.86Z"/><path class="cls-1" d="M224,70.43c-.05.37.11.08.18.19S224.09,70.19,224,70.43Z"/><path class="cls-1" d="M224,67.74c.09-.26.13-.22.16-.14a1.83,1.83,0,0,1-.13.22,1.53,1.53,0,0,1,.25-.23,1.2,1.2,0,0,1,.06-.68A2.39,2.39,0,0,0,224,67.74Z"/><path class="cls-1" d="M223.77,70.42c0,.12,0,.38.12.39,0-.19.07-.47,0-.46l.12-.3C223.94,69.8,223.89,70.47,223.77,70.42Z"/><path class="cls-1" d="M223.94,66.93l0,.15c.16-.22.21-.06.39-.43C224.22,66.64,224.05,66.76,223.94,66.93Z"/><path class="cls-1" d="M223.59,69.74l-.16.43c.09.09,0-.15.11-.24,0,.07,0,.12.09,0C223.49,70,223.73,69.63,223.59,69.74Z"/><path class="cls-1" d="M223.11,70.1l-.2.14-.06.5C223.06,70.64,223,70.48,223.11,70.1Z"/><path class="cls-1" d="M223.05,69.76l0-.08-.42.55A2.4,2.4,0,0,0,223.05,69.76Z"/><path class="cls-1" d="M222.36,66.21c-.11.16-.15.42-.08.21S222.39,66,222.36,66.21Z"/><path class="cls-1" d="M221,69.58c0-.16-.28,0-.42.06C220.69,69.61,220.87,69.82,221,69.58Z"/><path class="cls-1" d="M220.5,69.67l.06,0Z"/><path class="cls-1" d="M216.93,68.3s0,0-.05,0Z"/><path class="cls-1" d="M217.08,68.27c0,.09.17.08.32-.06a1.22,1.22,0,0,0-.47.09S216.92,68.45,217.08,68.27Z"/><path class="cls-1" d="M216.52,67.6c.12-.06.12,0,.24-.11S216.59,67.49,216.52,67.6Z"/><path class="cls-1" d="M218.52,60.66c.09-.08,0-.08-.26,0C218.28,60.73,218.43,60.65,218.52,60.66Z"/><polygon class="cls-1" points="218.19 60.65 218.32 60.6 218.52 60.5 218.19 60.65"/><path class="cls-1" d="M218.49,60.24l.13,0A.27.27,0,0,0,218.49,60.24Z"/><path class="cls-1" d="M218.64,60.23h0Z"/><path class="cls-1" d="M218.55,60.27l.15,0h-.06S218.63,60.25,218.55,60.27Z"/><path class="cls-1" d="M218.52,60.15l-.41.15c.23,0,.2-.12.66-.17Z"/><path class="cls-1" d="M218.37,60c.13-.07-.55,0-.05-.14-.29-.11-.84.16-1,0-.25.22,1,0,.73.15C218.29,59.88,218.25,60,218.37,60Z"/><path class="cls-1" d="M217.54,60.19c.25,0,.26-.12.09-.11C217.61,60.1,217.26,60.21,217.54,60.19Z"/><polygon class="cls-1" points="218.1 59.77 218.29 59.71 218.13 59.71 218.1 59.77"/><path class="cls-1" d="M218.2,59.61h.29C218.38,59.62,218.4,59.57,218.2,59.61Z"/><path class="cls-1" d="M218.55,59.41c.1,0-.57-.07-.44,0h0A1.79,1.79,0,0,1,218.55,59.41Z"/><path class="cls-1" d="M217.54,58.87s.06.07.2.09l-.12-.09Z"/><path class="cls-1" d="M215.92,58.55c-.42,0,0,.12-.15.17C215.87,58.65,215.93,58.67,215.92,58.55Z"/><path class="cls-1" d="M218.14,58.93c.16,0,.05,0,0,.06C218.39,59,218.34,59,218.14,58.93Z"/><path class="cls-1" d="M218,58.8c.16,0,.22.07.33.09s.17,0,0-.1-.63-.19-.81-.28c.09.13.84.38.26.25l.69.23C218.57,59,218,58.83,218,58.8Z"/><path class="cls-1" d="M216.65,58.64h.25a.55.55,0,0,1-.33-.15C216.06,58.38,216.63,58.61,216.65,58.64Z"/><path class="cls-1" d="M217.86,58.33a.33.33,0,0,1-.07-.13h0A.6.6,0,0,0,217.86,58.33Z"/><polygon class="cls-1" points="218.03 58.37 218.16 58.44 217.95 58.25 218.03 58.37"/><polygon class="cls-1" points="218.23 58.39 218.21 58.38 218.3 58.48 218.23 58.39"/><path class="cls-1" d="M218.4,58.32l-.19-.11s-.19-.06.06.1C218.19,58.24,218.25,58.23,218.4,58.32Z"/><path class="cls-1" d="M215,53.72a.74.74,0,0,0,.28.3l-.2-.33S215.05,53.78,215,53.72Z"/><path class="cls-1" d="M215.61,54l-.14-.45c-.21.08,0,.36-.1.53.14.05,0-.25.17-.22Z"/><path class="cls-1" d="M218.55,52.68c.08.27.1.22.06.43.08-.22.22-.19.36-.29-.08-.15-.06-.48-.1-.39l-.12.22,0-.19C218.51,52.31,218.73,52.78,218.55,52.68Z"/><path class="cls-1" d="M225.62,54.57a1.22,1.22,0,0,0,0,.38C225.73,54.8,225.6,54.6,225.62,54.57Z"/></g></g></svg>