<svg xmlns="http://www.w3.org/2000/svg" viewBox="0 0 270.41 113.82"><defs><style>.cls-1{fill:#fff;}.cls-2{fill:none;stroke:#fff;stroke-linecap:round;stroke-linejoin:round;stroke-width:3px;}</style></defs><g id="Layer_2" data-name="Layer 2"><g id="Layer_1-2" data-name="Layer 1"><path class="cls-1" d="M265.92,109.46c.25.39.81.17.7-.9l-.95-.76Z"/><path class="cls-1" d="M267.69,102.27c-.46-1.26-1.28-2.71-2.15-1.89.91,1.24.53,1.54,1.62,2.88.11,1.07-.3,1.87-.65,1.69.24.38-.21,1.66.39,2.24a6.4,6.4,0,0,0,.15-5C267.26,101.8,267.51,102.18,267.69,102.27Z"/><path class="cls-1" d="M261.35,3l.67.11A2.46,2.46,0,0,0,261.35,3Z"/><path class="cls-1" d="M196.62,2.42c.49,0,.7-.11.72-.2C196.88,2.28,196.51,2.34,196.62,2.42Z"/><path class="cls-1" d="M185.57,1.37l.65.07A1,1,0,0,0,185.57,1.37Z"/><path class="cls-1" d="M261.35,3l-1.73-.3C259.5,3,260.51,2.88,261.35,3Z"/><path class="cls-1" d="M265.39,87.86a3.48,3.48,0,0,0,.25.94c0-.3-.08-.58-.1-.88A.94.94,0,0,1,265.39,87.86Z"/><path class="cls-1" d="M270,26.33v.52a2.67,2.67,0,0,0,.39.44Z"/><path class="cls-1" d="M270.09,48.23c0-.5-.77-.67-1.12-.86a1.64,1.64,0,0,1,.55,1.08A1,1,0,0,0,270.09,48.23Z"/><path class="cls-1" d="M268.67,83l.11.62C268.75,83.41,268.71,83.14,268.67,83Z"/><path class="cls-1" d="M270.12,10.65a.51.51,0,0,0,.29-.2A.41.41,0,0,0,270.12,10.65Z"/><path class="cls-1" d="M242.45,105.66a.61.61,0,0,0,0,.14C242.58,105.72,242.62,105.66,242.45,105.66Z"/><path class="cls-1" d="M267.84,109.67l-.35,0a1.78,1.78,0,0,0-.08.45Z"/><path class="cls-1" d="M165.34.34h.09C166,.26,165.66.28,165.34.34Z"/><path class="cls-1" d="M1.31,29.28c.72-2.1.93,3.43,1.73.26C2.73,29.83,1.78,26.66,1.31,29.28Z"/><path class="cls-1" d="M265.5,87.29c0-.29,0-.59,0-.89A3.57,3.57,0,0,0,265.5,87.29Z"/><path class="cls-1" d="M3,29.54h0l.08-.33Z"/><path class="cls-1" d="M118.74.82a1.27,1.27,0,0,0,.47.36C119.2,1.09,119.09,1,118.74.82Z"/><path class="cls-1" d="M153.45,2l-.85-.1A4.2,4.2,0,0,0,153.45,2Z"/><path class="cls-1" d="M100.71,2a2.83,2.83,0,0,0-1.26-.07.85.85,0,0,0,.19.1A1.52,1.52,0,0,1,100.71,2Z"/><path class="cls-1" d="M82,2a3.54,3.54,0,0,0,.34.16l.6,0Z"/><path class="cls-1" d="M185.43,106.05a2.86,2.86,0,0,1,.87.73C186,106.2,188.76,106,185.43,106.05Z"/><path class="cls-1" d="M265.84,87.85a.66.66,0,0,1-.34-.56l0,.63C265.66,88,265.77,88,265.84,87.85Z"/><path class="cls-1" d="M100,8.35l-3-.12C97.8,8.31,98.88,8.35,100,8.35Z"/><path class="cls-1" d="M50.82,106.16l.69-.09A1.35,1.35,0,0,0,50.82,106.16Z"/><path class="cls-1" d="M88.12,8.35a5.94,5.94,0,0,0-1.68-.56,1.36,1.36,0,0,0-.35.21Z"/><path class="cls-1" d="M186.3,106.78Z"/><path class="cls-1" d="M205.94,104.86c-2.84,0-1.33,1-1.94,1.65-3.39.31-1.57-.78-2.72-1.32-2.12.28-3.74,1.25-5.32,1.21-.12-.17-.42-.24-.06-.46-2.24.85-6.65,0-9.26,1.11a.86.86,0,0,1-.34-.27,1.72,1.72,0,0,1,.4,1.46c-1.27,0-2.36.68-2.84,0,.78,0,.85-.26,1.21-.48l-1.33.31c-1.2-1,1.82-.35,1.82-1.09-2.6.32-5.63,1.15-7.63.87-.41-1,4.66-.33,2-1.2L183,107c-2.36-1.54,1.87.11-.29-1.54-4.06-.28-4.54.5-8.59.21-.91.55.3.81-.61,1.35-5.76,1-4.53-2.46-8.77-1.15-1.09.65-1.52,1.89-4.53,1.23l1-1.11c-3.93-.1-2.24,1.59-6.36.85.73-.43,3.09-.37,2.49-.5-2.66-.87-1.88.63-3.93.63l-.43-1c-4.18.15-8.79.86-13.43,1,.26-.29,1.05-.6,0-.9-5.84.49-12.48-.12-18.12-.7l-2.15.85c-.5,0-.93-.38-.39-.55-2.19-.32-.11.54-1.17.87-1.25.06-1.65-.49-.86-.74-3.87.72-11,1.55-15.13.64l.8-.25c-3.18-.34-3.59,1.73-6.54.94l.57-.15c-6.91-.36-14.54.41-19.81-.87-1,1.22-6.83-.54-7.27,1.16-4-.84-2.82-1.14-8.37-1.71-1.48-.08-2.21,1.06-4,1.24L57,106l-2.49.93-1.32-1.06-1.72.23c.68.05,1.45.4,1.35.65-2.69.4-6.55-.62-6.61-1.07l-6.36.75c.14-.36,1.21-.48,2-.71-3.39.91-.62-.93-3.73-.1.42.2-.22.52-.29.7-1.55-.53-5.08-.54-7.69-.31l.5-.61c-4.71-.16-9.93.29-15.22.28,1.89.28,1.46,1.35-.09,1.45l-.62-.94c-1,.58,1.62.35-.44,1.06-2-.11-1.33-1.06-.19-1.37l-2.41.33c-.14-.28.43-.43.57-.79-.49.29-1.53.06-2.62-.12l-.39-.07,0,0s0-.05,0,0-.1.1-.29.35l.15-.28-.18,0c0-.07-.05-.13-.08-.21l-.05-.12,0-.06,0-.54c-.07-1.54-.14-3-.16-4.84-.81-.08-.63-1.76-1.28-3.05a97.09,97.09,0,0,0,.82-10.49c-.4-2.68-.68-.78-1.16-2,.73-.2.67-4,1.19-2A109.38,109.38,0,0,0,7.4,70.23c-.3.63-.43,1.34-.69,1-.12-1,.31-2.39.67-2.24l.07.28c-1.1-6.5,2.15-15,.62-20.18l.07.29L7.34,44c.13-2.47.56,1.48,1-.35-1.23-5.79.18-9.14-.64-13.91C9.89,26,7.56,16.63,9,11.65l-.52.29c-.5-1.29.3-1.56.42-2.5-.4.13-.47,1.39-.74.59l0-.71,0-.35c0-.07,0-.08,0-.12l0-.41a8.31,8.31,0,0,1,0-.87c.33,0,.69,0,1,0l.25,0h.63l1.74.07c2.33.09,4.67.23,7,.38,4.68.29,9.38.64,14,.83,4.09.14,2.32-2.65,7.47-1.43l-1.46,1c8.25-1.14,16.87,0,25-.92-.48.21-.49.5-1.28.5,1.7.69,6.31,0,6.34-.53,1.25.06.29.51,1.06.79,1.71.41,4.3-.88,5.21-.19.15.11-.48.22-.8.28,1.12-.34,5.2.08,4.13-.72,3,.38,5.8-.35,8.22.12C88,6.9,91.63,8.22,92.13,7c-.22,1.3,5.32,1,7.23.44-.64.39,1.67.41.92.95,2.19,0,4.19-.26,3.81-.93,4,1.56,8.1-1.25,10.37.74C121,7.46,127,7,132.82,6.69c-.21,1.29-6.46.12-6.21,1.49,5.54-.54,8.74-1.65,14.24-1.34,1.43.18-.81.57-1.29.79,5.54-.54,10.72.12,15.65-.59,0,.12-.55.25-1.05.35,1,0,2.26.19,2.15-.4l-.95.16c-1.55-.86,3.86-1.79,4-2.24-1.65,1.69,4.87.42,2.25,2.56.64-.11,1.44-.39,1.3-.78.95.11,1.25.34.29.79,3.48-.32,2.24-1,5.39-.94,0,.29-.65.4-1,.74a12.33,12.33,0,0,1,5.86-.88c-.16.18.15.4-.64.4,4.57-.09,7.8-1.49,12.82-1-1.48,1.24,1.71.41,2,1.48l2.7-.32-1.08-.52c2.36,0,4.45-.76,6.49-.41L194,6.52l4.43-.2-2.51-.41c2.39-.55-.25-1.36,2.89-1.06-.64.11,2.37,0,3.6.65h0a8.76,8.76,0,0,1,4.12-.44c.46.35-.36,1.19-.07,1.42,1.16-.9,5.54-.25,7-1.21-.48.23-.51.79-.35.91l1-.73c1.1.23,1.26.35,1.08.8,3.29.13-1-1.37,2.86-.78-.3.06-.16.17-.8.28,3.93.3,7.59-.47,11.2-.11,1.07,1.09-3.15.27-1.93,1.18,5.2-.19,10.77-1.3,15.81-1l-.94-.12c.7-1.53,3.75.75,6.3,0-.63.12-.82.85-.65.68,3.45.25,7.05-.37,12.27-.85l-.64.39a28.14,28.14,0,0,0,3.71.25l1.52,0a9,9,0,0,1,1,.09c.61-.39,1.48-.33,1.45-.9l.23.16a11.68,11.68,0,0,0-.63,3.56c0,1.57.18,3.12.34,4.64.34,3.05.69,6-.21,8.94,0-.72-.35-1.71-.35-1.14l.36,5.11c.67-.4.41-.67.92-1.74a7.58,7.58,0,0,1,.7,3.36c-.44-2.3-1.06,0-1.44,1,.21-.17.43.17.64.09-1.18,2.67,1.34.45.54,4.1l-.35-.2a19.66,19.66,0,0,1,.54,4.1c-.77.61-.36-1.45-1-1.55,0,2.07,1.46,4.08.69,6-.21-.88-.22-2.15-.43-3a8,8,0,0,0-.82,3.79l0-.15-.41,3.5.25-.89c2,2.58.37,5.27,1.68,8.75-1.24-3.39-.72-.56-1.59-.82-.24.89-.52,2.25-.76,1.86.7,1.65-.55,2.75.47,5.08-.28.1,0,1.76-.73,1.39.22,2.14.49-.51.84-.33,1,3.31-1.16,7.77.16,12.52.54,4.09,1.48,4.85,2,8.65-.45,1.28-1-1.05-1-1.05a14.35,14.35,0,0,0,0,5.58c-.25-.4-.46,0-.77.6.07,1.57,1,1,.61,3.11a4.94,4.94,0,0,1-1.13-1.56c.26,1.85.78,3.67,1,5.58-.49.5-.75-1.16-1.07-1.83.22,2.15.45,5.56,1.22,6.22l.28-1.37c0,.78-.67.4-.81-.18-.61-1.84.27-2.65.55-2.75l.18,1.36c1.65-1.4-.26-5.47-.17-8.2l1.2,1.14-1-2.81c.31-.6,1-1,1.16.35.59-2-.43-1.74.23-3.43.1-.18.16-.1.21.07L268.31,81c.25.37.85-.32.68.86.69-3.45-.9-5.55,0-6.85l.08.29c-.41-4.78-.88-.46-1.91-4l2.17-2.41-.88-.47c0-.49.09-1.46.45-1.28-.61-1.84-.39.31-.95-.75.8-2.38-.38-6.54,1-7.08-.67-.85-.51,2.27-1-.26,1.51-.72-.26-2.93.43-5.09.78.66.37,2.71,1.06.55-1.31-1.31.29-4.22,0-6-1-.08-.44-4-.78-7,.35.2.57-5.77.95-8.62l.17.09c-1.05-.56-.85-3.5-1.07-5.64.63.08.88.47,1.16,1.63v-2a4.67,4.67,0,0,1-.64-2.4l.79.5c0-2.68-.93-5.4-.4-8.84-.74-.2-2.06,2.74-2.55-.91.4-.13,1.08-.27,1.25.69a4,4,0,0,1-.17-1.75l.68,1.46c.29-1.57-.57-.82-.5-2.08.57,0,.4-.93.85-.75.06.32-.23,1.1,0,1.58a9.23,9.23,0,0,1,.87-3.7c-.32.13-.76,0-.84-1,0-.36,0-.56,0-.86a4.24,4.24,0,0,1,.08-.65.76.76,0,0,1,.27-.53c.21-.18.46-.14.61-1.38a7.18,7.18,0,0,1-.25-2c-.05-.72-.16-1.26-.59-.9a4.14,4.14,0,0,1,.06-.66c-.43-.12-.38-.4-.58-.57-1.18.18-3.5.21-5.28.3-.49,0-.72,0-1,.09a2.93,2.93,0,0,0-.59.13c-.27.11-.3.26.09.49l.36.06a1.6,1.6,0,0,1-.23,0h0c-4.55.85-9.45-.48-14-.11V2.77c-2.69.33-6,.19-7.92.81-.79,0-1.88-.52-1.54-.86a13.27,13.27,0,0,1-5.26.06c2.07-.49-.71-.44,2.12-.36-2.67-.25-3.28-.7-6.15.08,1-.73-2-.92-3.29-.7l1.88.52a32.34,32.34,0,0,1-3.95,0l.69-1c-5.48-1.17-9.88,2-14,0-1.45.67,3,.47,1.67,1.26-2.51-.13-5.14-1.51-5.92-1.51-3.45-.53-3.22,1.4-6.83,1,.46.34.9,1.25-1.8,1.57-2.52-.12-3.1-1.43-1.51-1.71.61,0,.9.08.87.2.82-.13,1.88-.27.89-.64l-.33.34c-1.25-.35-4.72-.31-3.9-.87-1.91.32-.82.56.59.74-3.23-.5-5.05,0-8.37-.35.53.19,1,.59.49.58-4.88-.42-2.15.65-5.46.8-1.88-.52.68-1.24-2.65-.81-2-.35-.43-.9.38-1.18-3,.66-5.67-.43-7.4-.55l1.6-.28a14.42,14.42,0,0,1-2.54.16l.91.68c-.93-.12-1.73-.12-1.71-.41-1,.45.74,1.14-1.18,1.75-1.25-.34-3.81.38-4.24-.53,3.93.31-.43-.91,2.9-1.06a8.16,8.16,0,0,1-2.37,0c-.14-.11.13-.19.39-.24-3.76-.81-1.73,1-5.63,1,.5-.51-.9-1-1.54-.86,1.57,0,.75.85-.69,1.24-2.5-.39-2.72.3-4,.25l1.5.19c-.51.51-1.76.45-3.5.61-.15-.4,1.58-.28,1-.45-1.93.9-4.37-.93-7.07-.33-1.25-.34-.12-1-1.22-1.19-3,.66-3.27-.7-6.45-.16.91.69,1.07.52-1.16,1.19l5.22-.48-3.35,1c1.57,0,3.33-.43,4.27-.32-1.6.56-1.43.39-.68,1-2.16-1-4.28.6-6.77-.09l.07-1.7c-3.75-.76-6.66.87-11.53.44l1.57.3c-.66.67-3,.09-4.59.37.15-.57-.84-.78-1.51-1.13.08.42-3.56,0-4,1.09L113,1.53c-3.93-.31-4.49,1.61-8.27,1.42,1.14-.62-.58-1,2-1.46-1.27,0-2.4-.11-2.42.28-.74-.35-3.5.77-4.66.23-.53.25-.71.84-2.12.8-.16-.12,0-.28,0-.28,0,.28-2.22.38-1,1-3.88-1.78-10.86.13-14.25-1.4-2.75.19-6.07.38-8.57.42.16-.17,0-.29.48-.23-3.45-.53-2.12,1.64-6,1.05-2-.92,2.08-.5.83-.85-.54-1.87-4.74.26-7.38-.84l.64-.11c-2-.63-4.92.71-8.22.58,0,0,.16-.17,0-.28-2.26.95-6.53,1.27-9.7,1.53,1-.73,1.44-.39.84-1.13-1.43.1.41,1.19-2.43,1.4-.92-.4-3-.75-3.24-1.54l2.68,0c-1.37-1-3.47,0-4.88-.14l.18-.45c-4.1.15-4.16,1.28-8.57,1.2l.46.34c-2.42,1.12-2-.63-4.43.2l-.73-1.14c-1.59.28-5.57,1.1-8.42,1.32,1.61-.85,5-1.28,7-1.78-1.58,0-5.36.09-6.18.65a5.19,5.19,0,0,1,2.06-.22,17.94,17.94,0,0,1-7.62,1.32c.16-.72-.58-1-1.94-1.18C7.32,2.05,4.8,2.06,2.36,2A17.75,17.75,0,0,1,1.49,7.9l.22,2.5c0,.7.06,1.39.07,2.09,0,1.39-.06,2.8-.14,4.24-.18,2.87-.44,5.85-.37,9.09,1.71-2.29.05,1.89,1.81,1.49.11,1.51.08,2.09,0,2.22L2,34.1c-.52,1.09-.39-1.43-.79-1.29C1.08,36.11.47,34.19,0,36.38c.63-.45.9,1.15.66,3l.81-2.65c.94,4.61-1.47,4-.55,8.64L.37,43.93c.33,2.38,0,8.8,1.4,11.14-.2.43-.68,1-.81-.07-.21,5.71,1.51,12.7.64,17.13l-.44-.43c.13,1.07.81,1.85.38,3.19-.18-.07-.43-.43-.45.06a12.33,12.33,0,0,1,.5,4.24L1.1,78c-.56,5.57,1.18,8.54,1.48,13.21C1.31,91.18.9,95.56.69,97.74l-.17-.07a48.21,48.21,0,0,0,.24,6.16c.09.63.2,2.75.32,4.26s.26,3,.38,4.56l8.41-.6c3.73,1.38,12.62.58,18.6,1.35-.91-.23.15-1,1.22-1.11,1.4.25,3.88-.88,3.66.28l-.5,0c1.06,1.14,3.94.83,6.2.87l.37-1.53c5.9,2.22,15.45-.81,18.67,1.17,1.42-.38,3.18-.37,4.59-.75l-.07.81a94.1,94.1,0,0,0,10.78.12l-1,.58c2.74.05,3.47-2.35,6-2.4l.76,1.22c4.8,0,9.65,1,14.39,0-.08.17-.22.53-1,.58,2.25,0,8.73.82,7.91-.85,0,1.09,4.94.11,7.53-.37l-.4.8c2.19-1,2.26-1.31,5.31-1.59.72.1.63.64-.33.44,2.41.42,1.88-.76,4.8-.34l-1.09.52a5.23,5.23,0,0,0,3.65-.82c1.56-.32,4.71.21,5.07.93a3.91,3.91,0,0,1,3.16-.82c.19.27-.34.44-.61.53,4.15.54,6.17-.94,9-.15a.65.65,0,0,0,.48.48c-3.29,0-5.94-.06-5.69-.12,0,.74,2.66.87.54,1.89,2.14-.56,5.79-1.77,8.38-1.42a1.24,1.24,0,0,1,.35.25l-.27.09a4.63,4.63,0,0,0,1.64-.12,14.52,14.52,0,0,0,2.14.22c.31.61,3.06.33,4.38.36-.11-.81,1.63-.68,0-1.35.21.06-.25.1-1.13.13a3.8,3.8,0,0,0-.57.09l.09-.08-3.29.06a5,5,0,0,1,3.61-.31c.68-.52,1.43-1.05,1.85-1.31,1.82,1.13,5.32,1.74,5.8,2.44,4.05-.45,9.55-.3,12.09-1.82,1.16-.2,1.33.44,1.76.67a9.63,9.63,0,0,0-1.82.35c2.31-.39,6.83-.15,7.38-1.21,2.9.48-1.63,1,2.36.8l-.54.33c7.84,1.7,12.75-2.71,21.45-.53-.6-.14-.9-.2-1-.38,9.92,1,20.44-.9,30.22.62,2.79.31,3.09-.37,4.79-.88l.6.87,2.9-1c4.12-.73,7.13,2.14,12.34.75l-.67-.59c1.87.11,5.93-.34,5.62.33a1.23,1.23,0,0,1,1.34-.3l.06.45,4.6-.78c3.56.33-.56,1.81,4.64,1.9,1.93-.18,5.51-1.33,4.78-1.63-.78,0-2-.29-2-.74l1.77-.24c.32-1.34,1.68-2.71-2.66-3.65l-3,.82-1-.65,2.54,0c-1.44-.61-2.36-.07-3.38.3a2,2,0,0,0-1.27-.72l-3,1.29c-.36-.53,1.33-1-.66-1.34-1.39.6,1.33,1.18-1,1.57-1.45-.61-1-1.1-2.72-.58-.24-.35.12-.57.79-.72-1.51.41-4,.17-4.78.89-1.51-.76-5.1.19-4.95-1.08a12.06,12.06,0,0,1-4.06,1c2.54-1.52-5.19-.09-4.52-1.72-1.88,1.37-6.79.61-10.11,1.37a1.3,1.3,0,0,1,.84-.26,16.36,16.36,0,0,1-3.62-.78c-.24,1.12-3.15,1.38-4.72,2.08-2.3-1.09,1.39-1.33.67-2.37.12.91-4,.91-3.21,1.67-1.75-.67-1.51-.32-2.41-1.26-.31,1.41-1.64.24-3.09,1.11-2.54-.7-.65-1.33-3.44-.9C203.46,105.36,205.94,104.86,205.94,104.86ZM139.6,107.3v0l1.37,0Zm-5.58,0c.68,0,1.52,0,2.42,0,.19.28,0,.56-.58.55C136.17,107.71,134.85,107.55,134,107.31Zm11.79,5.61c-.88.12-1.17,0-1.3-.21.42,0,.91,0,1.55-.09l.1-.1A1,1,0,0,1,145.81,112.92Z"/><path class="cls-1" d="M147.4,111.86a3,3,0,0,1,.36-.06l-.52-.18-.32.25Z"/><path class="cls-1" d="M262.14,3.08l-.12,0a.72.72,0,0,1,.25.11C262.19,3.14,262.19,3.11,262.14,3.08Z"/><polygon class="cls-1" points="57.03 105.77 57.04 105.97 57.53 105.79 57.03 105.77"/><path class="cls-1" d="M266.26,29.29a.75.75,0,0,0-.2.4C266.11,29.68,266.18,29.5,266.26,29.29Z"/><path class="cls-1" d="M266.08,42.56l-.29,1.87A15.34,15.34,0,0,0,266.08,42.56Z"/><path class="cls-1" d="M265.68,52.75a.8.8,0,0,0,.35.2v0Z"/><path class="cls-1" d="M154.16,7.39a2.58,2.58,0,0,0-.4,0C152.84,7.58,153.47,7.52,154.16,7.39Z"/><path class="cls-1" d="M202.41,5.5a13,13,0,0,1-1.55.38C201.72,5.94,202.39,6,202.41,5.5Z"/><path class="cls-1" d="M100.27,8.37v0H100Z"/><path class="cls-1" d="M198.62,5.87a6.24,6.24,0,0,0,2.24,0A9.32,9.32,0,0,0,198.62,5.87Z"/><path class="cls-1" d="M265.31,97l0,.49a.14.14,0,0,1,.13.06Z"/><path class="cls-1" d="M265.41,97.51l.1.54C265.51,97.8,265.5,97.58,265.41,97.51Z"/><path class="cls-1" d="M265.71,99.2l-.2-1.15A1.79,1.79,0,0,0,265.71,99.2Z"/><path class="cls-1" d="M265.69,83.45l-.3-.15A.42.42,0,0,0,265.69,83.45Z"/><path class="cls-1" d="M265.6,79.35c-.06,1-.62,2.46-.44,3.82l.23.13C265,82.66,266.1,80.28,265.6,79.35Z"/><path class="cls-1" d="M269.23,62.23,269,65.67c.31-.61.73-1.4.81.17C270.74,61.5,269.11,66.73,269.23,62.23Z"/><path class="cls-1" d="M269.69,51.57c.14,1.84.45,0,.63.07C270,50.47,270,50.19,269.69,51.57Z"/><path class="cls-1" d="M238.09,2.43l.19-.73C236.85,1.8,238.26,2,238.09,2.43Z"/><polygon class="cls-1" points="223.36 6.24 224.75 6.7 225.41 6.02 223.36 6.24"/><polygon class="cls-1" points="214.66 0.99 215.29 0.89 212.91 1.15 214.66 0.99"/><path class="cls-1" d="M85.28,1.25l.43.91C86.68,2,86.88,1,85.28,1.25Z"/><path class="cls-1" d="M29.43,2.18a3.71,3.71,0,0,0-3.15-.3A29.56,29.56,0,0,0,29.43,2.18Z"/><polygon class="cls-1" points="42.22 113.04 41.1 113.34 43.21 113.09 42.22 113.04"/><path class="cls-1" d="M164.05,77.81c.29.24.13,0,.13-.14Z"/><path class="cls-1" d="M164.18,77.67l.09-.11A.1.1,0,0,0,164.18,77.67Z"/><path class="cls-1" d="M164.72,76.57c.21.33-.21.56.13.85A.46.46,0,0,0,164.72,76.57Z"/><polygon class="cls-1" points="164.37 76.91 164.59 77 164.28 76.69 164.37 76.91"/><polygon class="cls-1" points="164.13 77.02 164.22 77.01 164.06 76.61 164.13 77.02"/><path class="cls-1" d="M165,75.67l0,.28c-.35.21-.41-.22-.64-.08,0,.33.66.2.47.62.32,0,.1-.69.56-.56C165.64,75.58,165.17,75.88,165,75.67Z"/><path class="cls-1" d="M162.06,59.81l.05,0C162.06,59.79,162,59.8,162.06,59.81Z"/><path class="cls-1" d="M161.81,55.33a.87.87,0,0,0,.11-.18.59.59,0,0,0-.14.06Z"/><path class="cls-1" d="M163,62.53c-.05.07-.08.13-.11.18A.19.19,0,0,0,163,62.53Z"/><path class="cls-1" d="M174.37,40.35a.82.82,0,0,0,0,.14h0l0-.13Z"/><path class="cls-1" d="M161.7,50.07a.54.54,0,0,0,0-.22C161.67,50,161.67,50,161.7,50.07Z"/><path class="cls-1" d="M163.14,64.1V64a.2.2,0,0,0,0,.08h0Z"/><path class="cls-1" d="M161.11,56.78a.4.4,0,0,0,.06-.16A.35.35,0,0,0,161.11,56.78Z"/><path class="cls-1" d="M165.67,71.54a.14.14,0,0,0,0-.19C165.55,71.4,165.54,71.46,165.67,71.54Z"/><path class="cls-1" d="M165.56,70h0C165.62,70,165.61,70,165.56,70Z"/><path class="cls-1" d="M165.56,69v0S165.62,69,165.56,69Z"/><path class="cls-1" d="M165.62,71.35c.18-.14.78-.2.12-.34l-.09,0c.15-.1-.11-.24-.14-.36l-.16,0a.9.9,0,0,1-.06.26C165.16,71.13,165.48,71.21,165.62,71.35Z"/><path class="cls-1" d="M162.18,59.82c-.12,0-.05.13,0,0Z"/><path class="cls-1" d="M162.71,61.17V61A.12.12,0,0,0,162.71,61.17Z"/><path class="cls-1" d="M162.77,66.24l0,0C162.73,66.21,162.74,66.23,162.77,66.24Z"/><path class="cls-1" d="M162.73,60.91a.62.62,0,0,1,0,.13A.1.1,0,0,0,162.73,60.91Z"/><path class="cls-1" d="M163,64.71l0,0Z"/><path class="cls-1" d="M173,51.05c0-.11.19,0,.29-.09-.21-.43-.27.32-.39-.15a.42.42,0,0,0,0,.25l.4.16C173.19,51,173,51.23,173,51.05Z"/><path class="cls-1" d="M175.68,41l0,0c.05.18,0,.24.2.31.09-.3-.17-.7,0-1,0,0-.1,0-.17,0A1,1,0,0,1,175.68,41Z"/><path class="cls-1" d="M175.69,40.24v0l-.05-.09a.19.19,0,0,1-.1,0A.27.27,0,0,0,175.69,40.24Z"/><path class="cls-1" d="M175,48.62l.1-.06C175,48.56,175,48.58,175,48.62Z"/><path class="cls-1" d="M166.78,51.37a.71.71,0,0,0,.1.14A.19.19,0,0,0,166.78,51.37Z"/><path class="cls-1" d="M173.46,41l-.12,0-.06,0Z"/><path class="cls-1" d="M182.9,39.19c-.46.12.09.08,0,.48l.34.13A1.48,1.48,0,0,0,182.9,39.19Z"/><polygon class="cls-1" points="172.77 51.05 172.8 51.08 172.8 51.06 172.77 51.05"/><path class="cls-1" d="M182.76,46.28l-.09.06A.16.16,0,0,0,182.76,46.28Z"/><path class="cls-1" d="M174.77,40.19c-.2,0-.4,0-.58.08l.18.08C174.41,40.11,174.74,40.48,174.77,40.19Z"/><path class="cls-1" d="M179.29,36.47l0-.29a2.72,2.72,0,0,1-.93.06,5.06,5.06,0,0,1-.68-.05c-.44,0-.91-.08-1.14.38-1-.91-.5.93-1.37.13l0,.13a18.27,18.27,0,0,0-3.92.59l-1,.33a10.12,10.12,0,0,0-.93.47,6,6,0,0,0-1.6,1.26l-.12-.17A11.81,11.81,0,0,0,163.57,44a27.67,27.67,0,0,0-1.89,5.41c.11.37.58.26.74.59,0,.12-.07.4-.32.36-.08-.27-.32-.18-.4-.28-.06.41-.43.89-.18,1.29l.36-.25c.11.16,0,.36,0,.48-.15-.08-.52.06-.58-.06.67.86-.43.54-.19,1.22.66.2,1.11,1,1.56,1.57l-.19.25c0-.35-.49,0-.43-.47-.22.35.05.71-.08,1,.17-.06.39,0,.45.11-.1.21-.44.21-.49.45l-.19-.25c-.27.15.06.3.1.45-.29,0-.35.4-.66.32.37.34.15.45.38.81.31-.36.37.1.6.07L162,56.7c-.21.57-.05-.19-.53-.16.23-.27.78.39.72-.06.23.54,0,.65.4,1.21-.09-.33.31.06.46-.11,0,.41-.17.1-.48.22,0,.23-.26.31.09.52-.15.37-.36,0-.56.13-.33-.14.42-1-.64-.94,0-.19-.4-.44-.37-.73-.15.25-.5.6-.26.91l.59,0c0,.23.41.29.36.45-.17-.09-.42.07-.37.25.08,0,.06-.12.16-.1,0,.34.45.39.56.79.15-.33.33-.4.59-.71.42.08.06.22.11.4,0,0-.07-.06-.15,0l.2.19c-.17.41-.6,0-.8.29s.2.33,0,.51l.1,0a.12.12,0,0,1,0,.09h0c.07.22,0,.46.35.51-.14,0,0,.19.14.26s.51.4,0,.59h0c-.05.27-.2.49-.37.44l-.11.44-.41,0c.13.39.36.34.79.6-.23.3,0,.79.14,1a.22.22,0,0,0,0,.15l.15-.17c0,.31.21.26.22.47,0-.05.06-.06,0,.06s0,.07,0,.12,0,0,0-.1l-.14,0c-.41.27.27.37.13.64a.16.16,0,0,1-.05-.09c-.1.15-.66.4-.3.44-.05,0,0,.08.12.13l-.06.11.06-.11c.12.06.26.12.18.13l0,.38c-.06.08,0,.17.06.25l-.16.07c0,.14-.07.15-.12.13-.55.51.34.72-.13,1.27.28.08.4-.14.55-.17s.43.36.59.5c-.38.25-.68,1-1.24.88,0,.43.33-.15.54,0l0,0a.77.77,0,0,1,.45-.36.32.32,0,0,1,.33.44l-.44-.06c.17.38.81.27,1.26.49-.16.32-.56.16-.94.24l.12.33h-.32c.1.21.4.24.29.54-.32-.2-.28.45-.7.18-.11.16.52.19.09.28.35.1.17-.15.27-.23.49-.09.25.35.38.54-.25,0-.3-.12-.46.11.19,0,.35.18.11.32.33,0,.08.26.06.39a.49.49,0,0,1,.57-.28.43.43,0,0,1,.16.47l.15-.18c.47.22-.34.38-.19.69-.19-.13-.19-.21-.43-.32a4.13,4.13,0,0,1,.54.65l-.47.25c.23,0,0,.29.29.3-.22.32-.38-.27-.62-.3-.22.39.53.33,0,.7l-.29-.13c0,.12.14.38,0,.39.11,0,.07-.06.08-.14.64.1.41.61,1.08.6l.05-.18c.11.29.55.53.3.73s-.44-.16-.61-.27c-.05.25.72.27.62.59.12-.16.35-.1.51,0,.08-.19.23-.57-.06-.53l-.07.07c-.17,0-.22-.14-.31-.2,0-.25.31-.09.44-.14.14-.42-.66-.07-.61-.45l.13,0c-.16-.19-.18-.47-.59-.53.43-.15-.16-.43.1-.6.94,0-.08.64.43.86.2-.19.45.13.66.23l-.39-.65c.13,0,.6-.23.26-.35l0,0c-.1-.25-.49-.19-.36-.4.09,0,.24,0,.3,0,.08-.2-.22-.17-.3-.3.08-.2.38.1.49-.07-.37-.23.08-.37.06-.57-.53.09-.75-.78-1.21-.34l-.38-.46c.27-.16.76.3,1.21.16v.38c.66-.08-.46-.78.27-1.06,0-.21-.07-.15.25-.55l-.59.09a.85.85,0,0,1,.55-.3.62.62,0,0,1,0-.33.31.31,0,0,1,.21.13c.32-.16.19-.2,0-.25s-.14-.2-.14-.32l.22.1a.34.34,0,0,0-.23-.17.2.2,0,0,0-.06-.14,1.51,1.51,0,0,0-.59.32c.21-.47.06-.82.53-1.25.18,0,.4.16.42.11.07-.2-.24-.4-.49-.37a.69.69,0,0,1,0-.1c.15,0,.31-.1.33-.2a.18.18,0,0,0,.11-.13c-.48,0-.26-.43-.48-.5a.54.54,0,0,0,0,.31c-.33-.14-.69-.26-.45-.4.32.28.48-.34.63.1.58-.35-.44-.14-.24-.48l.22-.23c.35,0,.19.34.32.28l-.05-.15c.26.14.13.7.53,1l.15-.71c-.46-.84-.05-1.94-.84-2.63v0l-.23,0,.09,0-.27-.14c.32-.18.36-.49.61-.76a.61.61,0,0,1-.46.2c-.35,0-.5,0-.38-.28.24,0,.24.13.43-.06a.21.21,0,0,1-.33-.08c.16-.14.18-.37.43-.38.06.06,0,.11-.05.16s.21-.27.42-.09l-.08-.25c.19-.15.32.09.45,0-.18-.4-.75-.59-.93-1h.52c.15-.29-.61-.6-.67-.92.17,0,.1.16.19.26a7.36,7.36,0,0,1,.71-2.72l-.56-.25.38-.23a4.85,4.85,0,0,0-.06-2.62c0-.28.4-.14.57-.26.11-.6-.49-.8-.56-1.41.16.11.63.29.68,0-.16-.07-.41-.13-.29-.27l.16.1c.26-.12,0-.28.2-.56a2.2,2.2,0,0,0-.77-1.61c.15-.45.58.17.72.1-.27.28,0,.24.23.35-.13-.2-.18-.42.23-.43a.66.66,0,0,0-.16-.62c.11.15-.12.2-.28,0,.18-.16.16-.66.64-.51a11.23,11.23,0,0,1,1.15-3.15c-.15-.28-.16.07-.27-.1-.17-.39.25-.1.12-.42l.2.21c.17-.27-.09-.81-.1-1.21.23.21.35-.07.36.25.05-.17,1.28.5,1.1.25l-1.14-.63c-.1-.08.09-.21,0-.25.27,0,.62.12.68,0,.28.18.08.29,0,.38.43.33.53-.07.81.36.08-.23-.24-.15-.3-.39l.22-.08h-.24c0-.23-.28-.56.1-.54a4.74,4.74,0,0,1-.2-.56c.32.29.19-.07.36-.09l.13.26c.12-.13.22-.12.4-.07.18.35-.18,0,0,.33l.21,0c-.16-.18-.2-.41-.4-.43-.17-.46-.34-.84.08-1.08.42.22,0,.43.36.71.46-.1-.16-1.24.13-1.35s.21-.36.55-.57c0,.31.38.14.55.35v.34c.06-.14.21-.08.26.13-.18-.35.3-.5.48-.77l-.15-.29c.16-.18.37-.5.63-.46.31-.19.15-.45.33-.87a1.56,1.56,0,0,1,.32,1c-.12-.14-.25,0-.42-.07-.37.37-.42,1.15-.84,1.14.14.8.21-.18.49,0,0,0,0,.07,0,.08s0,0,0,0a.75.75,0,0,0-.14.73c.17-.15-.12-.8.25-.59.13-.29.49.29.62.31,0-.33-.1-.94.28-.92l0,.48c.38-.09,0-.69.41-.76-.15,0,.05-.46-.22-.41a.48.48,0,0,1,.64-.27c.05-.08,0-.15,0-.3-.31-.27-.35.36-.64,0l-.07.52a.57.57,0,0,1-.27-.71c-.06,0-.11.12-.17.05-.21-.69.33.18.29-.44L174,40c-.18-.44.32-.51.55-.5.3.18.54.22.61.55l-.31.2c.22.24.4-.23.6-.25a.2.2,0,0,0,.07.1l0-.09a.21.21,0,0,1,.13.12c.17,0,.4-.23.57-.14l0-.3v.17a.31.31,0,0,1-.3-.4c.35-.24.48.34.58.59,0,.48-.34,0-.5.2.15.45.35,0,.72.3-.1.51-.4,0-.43.49.27.07.32-.3.61-.19,0,.23-.29.28-.26.58l.19.13c-.42.06.1.62-.2.77.15.19.18-.43.4-.13-.06-.22-.26-.6,0-.82a1.13,1.13,0,0,1,.21.15c.07.24-.18.53-.06.74l.17-.17c0-.15-.09-.23,0-.43.1.16.21-.58.39-.8.13,0,.22.05.2.24.28-.42.59-.36,1.05-.63-.33.21-.26.47-.33.69-.18,0-.41.44-.56.72a2.83,2.83,0,0,0,.44-.6c0,.21.3-.23.19.09-.06.17-.35.37-.45.53s.44-.46.45-.28l-.14.12c0,.12.19,0,.42-.12-.51.44.17.18-.4.48.21.06.31-.18.52-.26s.11.23,0,.3-.19,0-.11-.11l-.4.19c-.27.23,1-.13.61.21-.22-.1-.32,0-.62,0,.1,0,0,.16.31,0a.44.44,0,0,1-.21.17,3.76,3.76,0,0,1,.5.29c-.09.21-.42.28-.61.32.13.55-.52.82-.47,1.46l0,0c-.25.37.59.05.38.47-.43-.27-.44.11-.75.12-.48.39-.17,1.08-.73,1.38-.09-.06-.18-.15-.14-.25a3.54,3.54,0,0,0-.67.92l0,0c-.69.29-.57,1-.85,1.62,0-.08-.17-.2-.21-.28a.83.83,0,0,0-.4,1c-.63,0,0,.3-.72.4-.09,0,0-.09,0-.13-.28.09-.35.26-.55.41-.08.63.34,1.15-.22,1.52-.55-.41.12-.41-.3-.77,0,.17.06.35-.18.38-.14-.25-.12-.13-.27-.34-.22,0,.22.87.17.83s.18.1.25,0c.23.39-.38.5-.45.85a.35.35,0,0,1,.55.08c-.38.23,0,.77,0,1.17-.49.09-.24-.59-.66-.86-.18-.07-.57-.21-.61-.45-.3.18-.15.64-.28,1l-.1-.1c-.24.35-.11,1.09-.56,1.17l.25,0c0,.11-.17.24,0,.52-.16-.17-.5-.11-.56-.32.4.64-.35,1,0,1.65-.21,0-.35-.32-.45-.47.24-.14.41-.11.3-.41a.32.32,0,0,1-.49,0c.16.47-.1,1,.14,1.39-.28-.05-.48,0-.7-.34-.34.64,1,.6.48,1.15-.52,0-.09-.61-.53-.36l0-.11c-.92-.47.29.68,0,.93-.39-.36,0-.47-.5-.57-.18.35.21,1-.19,1.15l-.09-.21c-.16.19-.58.37-.73.54-.07-.08,0-.08,0-.13-.43.06,0,.32-.45.19l.06.27c.23.06.66.1.66-.29,0,.39.68.32.87.75l-.07-.17a3.68,3.68,0,0,0,2.45-.58c0-.74.78-.44.9-1.09-.38-.5,0-.16.22-.57-.12.23.31.35.48.3a.65.65,0,0,1,0-.42c.22.08,1,0,.82-.44.34-.07.1.18.16.31.31.14,0-.33.19-.26,0,0,0,0,0,.09a5.65,5.65,0,0,1,.93-.7c-.43-.43.12-.48.09-.77.11.17.34,0,.51-.07l-.18-.48c-.14-.43.42-.07.46-.44h-.13c0-.29.66-.51,1.05-.48.37-2.35,2.54-2.13,3.54-4.22-.07-.22-.32-.08-.48-.32a1.38,1.38,0,0,1,.21-.44c-.23.07,0,.15-.18,0l0,.36c-.05,0,0-.05-.13-.07s0,.29-.08.38c0-.25-.37-.54-.09-.67a.23.23,0,0,1,0,.17c.15-.16,0-.29.16-.36s0-.15.22-.07l.54-.41c-.3-.55.33-.63.43-.7.32.26-.1.43.16.77l.37-.06-.27-.17.24-.25,0,.05c-.09-.1-.18-.2,0-.22s.14,0,.14.07l0-.3c.22.29.19-.13.51.07.54-.64,0-1.13.78-1.59-.22,0-.47-.45-.32-.63s.23-.09.34,0l-.08-.36c.7-.17.47-.62.83-1.24l.15.07a1.32,1.32,0,0,1-.1-1l.33.13c.31-.59-.65-.5-.39-1.1-.37,0-.58.4-.93.43.4-.11.46-.73.19-.56-.17-.51,0-.37.07-.43l-.24-.26c0-.37.45-.25.68-.14-.42-.28-.3-.71-.35-1.16l.2.1a2.12,2.12,0,0,0-.16-.56,1.39,1.39,0,0,1-.51-.45,2.07,2.07,0,0,1-.39-.6l.59,0c-.05-.43-.25,0-.37,0-.53-.26-.43-.49-.5-.9a1.27,1.27,0,0,1-.62-.32,4.51,4.51,0,0,1-.52-.47A1,1,0,0,0,179.29,36.47ZM163,66.11l.07,0C163.15,66.16,163.23,66.21,163,66.11Zm0-2.84c.2.33,0,.24-.16.27.12-.34,0-.53.1-.83a1.27,1.27,0,0,1-.3.09c0-.12.12-.25.36-.3C163.47,62.63,162.71,63.43,163,63.27Zm2.72,6.23-.11,0h0Zm-.52-1.66a.32.32,0,0,0,.19-.13C165.25,67.75,165.14,67.78,165.18,67.84Zm.41-3.37c.19-.09.12-.26.07-.39A.84.84,0,0,0,165.59,64.47Zm2.64-19.69c0,.12.09.38.29.33-.1-.16.22-.1,0-.3h0A1.46,1.46,0,0,0,168.23,44.78ZM175.55,39a2,2,0,0,0,0,.57h0a.22.22,0,0,1,0,.16c.08,0,.17.06.22,0C175.77,39.12,175.93,39,175.55,39Z"/><path class="cls-1" d="M173.15,42.3s0,0,.06,0Z"/><path class="cls-1" d="M175.8,39.76s-.1-.1-.22-.15A.31.31,0,0,0,175.8,39.76Z"/><path class="cls-1" d="M163.54,75l-.06-.1-.2.17c.19.33.45.37.77.48-.26-.31-.1-.47-.17-.85Z"/><path class="cls-1" d="M165.69,75a1.08,1.08,0,0,0,.34-.15l-.2-.07Z"/><path class="cls-1" d="M166.66,70.91l-.16.32C166.68,71.33,167,71,166.66,70.91Z"/><path class="cls-1" d="M163.3,72.38l.22.15c.17-.14.15-.34-.09-.36C163.56,72.36,163.3,72.22,163.3,72.38Z"/><path class="cls-1" d="M166.67,70.05c-.39-.09.16-.33-.21-.38C166.57,69.75,166.28,70.05,166.67,70.05Z"/><path class="cls-1" d="M163,70.42c-.36.11,0,.26-.11.46C162.89,70.72,163.27,70.47,163,70.42Z"/><path class="cls-1" d="M165.49,68.41c.28,0,.27.14.21.29-.09,0-.22-.07-.26-.14a2.77,2.77,0,0,1,.32.45c.18-.21.29-.51.64-.5C166.13,68.38,165.74,68.22,165.49,68.41Z"/><path class="cls-1" d="M162.94,70c-.1.17-.35.28-.32.47.19,0,.47-.12.41-.34l.33.07C163.59,69.92,162.94,70.25,162.94,70Z"/><path class="cls-1" d="M166.19,67.46l-.14.11c.27.22.15.52.57.63A1.15,1.15,0,0,0,166.19,67.46Z"/><path class="cls-1" d="M163.5,69.13h-.45c-.05.23.15,0,.26,0-.06.07-.09.17,0,.21C163.23,69.13,163.67,69.35,163.5,69.13Z"/><path class="cls-1" d="M163,68.4l-.21-.28-.48.26C162.47,68.71,162.56,68.38,163,68.4Z"/><path class="cls-1" d="M163.25,68l.08,0-.69-.4A2.43,2.43,0,0,0,163.25,68Z"/><path class="cls-1" d="M165.89,62.55c-.19,0-.42.22-.21.11C165.84,62.7,166.08,62.35,165.89,62.55Z"/><path class="cls-1" d="M162.33,63.77c.14-.14-.15-.54-.29-.72C162.14,63.27,162.07,63.81,162.33,63.77Z"/><path class="cls-1" d="M162,63l.06.07A.2.2,0,0,0,162,63Z"/><path class="cls-1" d="M161,55.14a.07.07,0,0,0,0-.06Z"/><path class="cls-1" d="M161.08,55.34c-.08.12,0,.39.24.44a2.51,2.51,0,0,0-.34-.64C161,55.23,160.84,55.33,161.08,55.34Z"/><path class="cls-1" d="M161.32,53.49c.11.11,0,.24.23.22S161.46,53.44,161.32,53.49Z"/><path class="cls-1" d="M170.15,44.86c.15,0,.14-.13-.08-.3C170,44.67,170.15,44.73,170.15,44.86Z"/><polygon class="cls-1" points="170.14 44.41 170.26 44.49 170.47 44.59 170.14 44.41"/><path class="cls-1" d="M171.05,44.14a.3.3,0,0,1,0,.12S171.11,44.16,171.05,44.14Z"/><path class="cls-1" d="M171.08,44.29v0Z"/><path class="cls-1" d="M171,44.26l.09.12a.31.31,0,0,1,0-.09S171,44.32,171,44.26Z"/><path class="cls-1" d="M171.28,44l-.39-.25c0,.26.29.07.44.52Z"/><path class="cls-1" d="M171.66,43.62c.19,0,.07-.64.39-.25.28-.45-.5-.69-.1-1.12-.6,0,.22,1-.3,1C172,43.38,171.64,43.47,171.66,43.62Z"/><path class="cls-1" d="M171.14,43c.12.23.29.12.27-.05C171.34,42.9,171.06,42.66,171.14,43Z"/><polygon class="cls-1" points="172.31 43.01 172.51 43.12 172.47 42.95 172.31 43.01"/><path class="cls-1" d="M172.83,42.88v.32C172.82,43.08,173,43,172.83,42.88Z"/><path class="cls-1" d="M173.63,43c.15.06.07-.62-.16-.4h.07C173.56,42.67,173.77,42.86,173.63,43Z"/><path class="cls-1" d="M175.17,41.51a.19.19,0,0,0-.16.25l.25-.19Z"/><path class="cls-1" d="M174.85,39.89c-.17-.39-.28.08-.51,0C174.59,39.91,174.57,40,174.85,39.89Z"/><path class="cls-1" d="M175.58,42c-.05.18-.18.09-.25.08C175.4,42.34,175.57,42.25,175.58,42Z"/><path class="cls-1" d="M176,41.83c.1.16,0,.23.08.34s.37.14.45-.1a2,2,0,0,1-.1-.86c-.3.18-.34.94-.57.38l-.15.76C176,42.42,175.82,41.81,176,41.83Z"/><path class="cls-1" d="M175.16,40.58l.21.21c-.07-.23.06-.29.14-.38C175.39,39.89,175.25,40.53,175.16,40.58Z"/><path class="cls-1" d="M177.47,41.44l.26-.11-.06,0Z"/><path class="cls-1" d="M177.62,41.62v.15a1.82,1.82,0,0,0,.15-.27A.94.94,0,0,1,177.62,41.62Z"/><path class="cls-1" d="M177.73,41.81v0l-.08.13Z"/><path class="cls-1" d="M177.87,42l.09-.21c-.05,0,0-.21-.12.08C177.9,41.72,178,41.78,177.87,42Z"/><path class="cls-1" d="M183.73,40.51c-.18-.08-.27,0-.38.15l.42.09C183.73,40.69,183.66,40.59,183.73,40.51Z"/><path class="cls-1" d="M183.29,41.5a5,5,0,0,1,.46.46c0-.63-.28-.67-.47-1.13-.06.23.25.46.16.77Z"/><path class="cls-1" d="M180.76,48.54c-.23-.16-.23-.08-.27-.38a2.1,2.1,0,0,1-.36.91c.18,0,.29.43.3.27l.08-.44.13.15C181,48.91,180.47,48.74,180.76,48.54Z"/><path class="cls-1" d="M168.44,58.68a.62.62,0,0,0-.28-.25C168.08,58.68,168.46,58.63,168.44,58.68Z"/><path class="cls-1" d="M206.46,75c-.15-.33-.1-.07-.16,0Z"/><path class="cls-1" d="M206.3,75h-.11C206.24,75,206.28,75,206.3,75Z"/><path class="cls-1" d="M205.45,75.18c.06-.3.41-.12.29-.54C205.46,74.52,205.32,74.75,205.45,75.18Z"/><path class="cls-1" d="M205.84,75.29l-.1-.22c0,.14,0,.28,0,.42Z"/><polygon class="cls-1" points="206.05 75.41 205.99 75.35 205.85 75.72 206.05 75.41"/><path class="cls-1" d="M204.8,75.25l.15-.13c.27.24,0,.45.22.61.24-.1-.16-.66.15-.66-.14-.27-.43.17-.54-.3C204.53,74.71,204.86,75,204.8,75.25Z"/><path class="cls-1" d="M192.37,72.36s0,0,0,0S192.33,72.39,192.37,72.36Z"/><path class="cls-1" d="M189.86,69.44a.54.54,0,0,0,0-.18l-.08.12Z"/><path class="cls-1" d="M194.66,73.45a.8.8,0,0,0,0,.18A.15.15,0,0,0,194.66,73.45Z"/><path class="cls-1" d="M189.6,52.82l.12.08h0l-.1-.09Z"/><path class="cls-1" d="M187.23,66a.31.31,0,0,0-.11-.14C187.15,65.91,187.19,66,187.23,66Z"/><path class="cls-1" d="M195.7,74.3l0,0a.19.19,0,0,0,0,.08l0,0Z"/><path class="cls-1" d="M190,70.86a.31.31,0,0,0,0-.15A.33.33,0,0,0,190,70.86Z"/><path class="cls-1" d="M202,74.88s-.09,0-.14,0S201.88,75,202,74.88Z"/><path class="cls-1" d="M200.88,74.68h0C200.89,74.63,200.89,74.64,200.88,74.68Z"/><path class="cls-1" d="M200.21,74.41h0S200.23,74.35,200.21,74.41Z"/><path class="cls-1" d="M201.82,74.91c-.06-.2,0-.79-.2-.18v.1c0-.17-.19.06-.28.06v.16a.76.76,0,0,1,.16.11C201.58,75.32,201.7,75,201.82,74.91Z"/><path class="cls-1" d="M192.47,72.3c-.08.09,0,.11,0,0Z"/><path class="cls-1" d="M193.63,72.82l-.06-.1S193.59,72.81,193.63,72.82Z"/><path class="cls-1" d="M197,75.75v0C196.91,75.77,196.93,75.77,197,75.75Z"/><path class="cls-1" d="M193.5,72.64l.07.08S193.55,72.65,193.5,72.64Z"/><path class="cls-1" d="M196.05,74.7v0S196.05,74.69,196.05,74.7Z"/><path class="cls-1" d="M202.88,44.72c0,.09-.16,0-.25-.07,0,.46.32-.13.26.32.06,0,.09-.11.12-.18l-.26-.34C202.68,44.66,202.89,44.54,202.88,44.72Z"/><path class="cls-1" d="M190.78,52.4h-.05c.18.07.22.12.37.07-.2-.23-.65-.31-.82-.63a.13.13,0,0,1-.1.11A1.17,1.17,0,0,1,190.78,52.4Z"/><path class="cls-1" d="M190.18,52h0l-.1,0a.11.11,0,0,1-.08,0A.44.44,0,0,0,190.18,52Z"/><path class="cls-1" d="M200.48,45.66h-.09C200.46,45.72,200.48,45.7,200.48,45.66Z"/><path class="cls-1" d="M192.12,64.09l.15,0A.17.17,0,0,0,192.12,64.09Z"/><path class="cls-1" d="M189.68,53.78a.24.24,0,0,0-.09.06s0,0,0,0Z"/><path class="cls-1" d="M190.33,46.08c.27.39,0-.07.31,0l-.06-.27C190.43,45.85,190.4,46,190.33,46.08Z"/><path class="cls-1" d="M203,44.81l0,0v0Z"/><path class="cls-1" d="M193.57,43.34h.09S193.61,43.33,193.57,43.34Z"/><path class="cls-1" d="M189.67,52.49l-.24.41.17-.08C189.42,52.67,189.89,52.67,189.67,52.49Z"/><path class="cls-1" d="M188.47,47.66l-.25-.14c.1.82-1,.86-.57,1.72-1.22.08.5.87-.6,1l.14,0c-.32.43-.6.92-.91,1.39a16,16,0,0,0-.77,1.55,9,9,0,0,0-.44,1.66,5.42,5.42,0,0,0,0,1.66l-.2,0a11,11,0,0,0,.52,5c.49,1.36,1,2.71,1.47,4.08.28.19.62-.14.91,0,0,.1.13.3-.09.4-.2-.13-.35.06-.47,0,.15.29,0,.8.46.94l.18-.36c.17,0,.17.25.2.35-.17,0-.41.31-.52.26,1,.22-.08.59.44.93a4,4,0,0,1,2,.23l0,.27c-.15-.25-.43.25-.58-.08,0,.36.39.46.45.76.11-.14.31-.24.43-.18s-.26.39-.18.58l-.28-.06c-.15.25.2.17.3.26-.21.18-.09.48-.38.6.47,0,.34.23.7.35.08-.43.35-.14.53-.31a3.11,3.11,0,0,1-.28-.23c.1.52-.13-.1-.51.2.06-.32.83-.18.56-.46.44.25.32.45.93.58-.24-.16.28-.14.31-.34.23.26-.08.17-.27.44.13.14,0,.36.35.29.07.33-.32.18-.37.42-.34.11-.21-.94-1-.25-.11-.13-.58-.06-.69-.29,0,.27-.08.71.27.79l.49-.34c.13.16.48,0,.53.09-.19,0-.3.3-.17.4,0-.08,0-.12.08-.17.22.21.56,0,.86.2a2.87,2.87,0,0,1,.09-.85c.38-.2.16.11.3.2-.06,0-.09,0-.13.08h.26c.07.39-.5.34-.47.7-.15.39.31.1.27.34l.06-.09a.16.16,0,0,1,0,.08l0,0c.18.1.29.27.56.1-.09.11.14.09.25.07s.6-.08.34.38h0c.12.21.13.46,0,.54.06.12.11.25.18.36l-.31.27c.35.16.48,0,.94-.19,0,.34.49.49.71.48,0,0,0,.06.11.08v-.21c.19.19.3,0,.43.11,0-.05,0-.07,0,0l.06.08s-.06,0-.08,0l-.05.13c-.09.46.41,0,.51.24,0,0-.07,0-.09,0,0,.16-.13.74.11.48,0,.06.08,0,.17,0l0,.1a.69.69,0,0,1,0-.1c.11-.06.24-.15.2-.08l.23.25c0,.09.12.09.2.08l0,.18c.12,0,.07.12,0,.16.09.71.73,0,.9.72.21-.21.1-.41.15-.55a2.2,2.2,0,0,1,.65-.29c0,.44.46,1,.16,1.46.35.18,0-.37.27-.47l0,0a.74.74,0,0,1-.1-.54.28.28,0,0,1,.48-.14l-.23.37c.38,0,.54-.64.86-1,.18.25-.08.56-.15.95l.3,0-.09.31c.21,0,.33-.32.54-.13-.26.24.31.38,0,.72.12.14.3-.46.28,0,.17-.31-.1-.2-.14-.32.06-.5.36-.16.55-.24,0,.25-.18.27,0,.48.08-.19.23-.32.31-.07,0-.32.24,0,.36,0a.49.49,0,0,1-.16-.6.33.33,0,0,1,.41-.1l-.13-.17c.23-.45.27.38.55.26-.12.18-.19.17-.31.4l.58-.52.23.47c0-.24.26,0,.24-.31.29.21-.2.39-.23.63.38.2.26-.55.65-.07l-.09.31c.12,0,.35-.19.38,0,0-.1-.07,0-.15,0,0-.66.48-.55.32-1.2h-.15c.2-.17.24-.64.45-.44s0,.45,0,.63c.23,0,0-.72.24-.73-.15-.06-.19-.3-.18-.49-.12,0-.41-.09-.3.18l.06,0a.66.66,0,0,1,0,.34c-.18,0-.15-.28-.21-.4-.3,0,.1.66-.19.69l-.05-.12c-.11.22-.33.23-.34.64-.16-.43-.35.18-.51-.07,0-.94.52,0,.66-.47-.17-.19,0-.44.07-.68a4.26,4.26,0,0,1-.42.43c0-.13-.19-.59-.26-.25l0,0c-.18.12-.13.5-.29.38a.71.71,0,0,1,0-.3c-.14-.09-.13.22-.23.3-.15-.1.09-.38,0-.5-.18.34-.25-.12-.39-.11,0,.54-.69.66-.42,1.16l-.46.31c-.07-.29.4-.7.36-1.16l.28,0c.06-.65-.67.36-.7-.44-.14-.06-.13,0-.31-.36l-.11.59a.91.91,0,0,1,0-.6.26.26,0,0,1-.23-.06.34.34,0,0,1,.15-.16c0-.34-.06-.23-.15-.08s-.18.07-.26,0l.15-.18a.33.33,0,0,0-.19.16.17.17,0,0,0-.12,0,1.61,1.61,0,0,0,0,.66c-.25-.35-.55-.34-.63-.89.09-.15.28-.31.26-.34s-.36.09-.46.32h-.08c0-.15.08-.31,0-.36a.22.22,0,0,0,0-.16c-.26.4-.39.06-.55.22A.3.3,0,0,0,199,74c-.25.22-.52.48-.48.22.34-.16,0-.54.38-.5.09-.63-.31.32-.42,0l0-.27c.2-.29.3,0,.34-.16h-.12c.23-.18.49.16.88-.07l-.32-.4a1.17,1.17,0,0,1-.5-.06c-.15-.07-.29-.17-.43-.25a1.14,1.14,0,0,0-1-.14h0l-.15.17,0-.08-.24.13c.1-.34,0-.54,0-.86a.69.69,0,0,1-.2.45c-.24.25-.35.34-.41.12.16-.18.24-.1.26-.34a.24.24,0,0,1-.26.2c0-.19-.09-.33.08-.51.08,0,0,.07,0,.11s0-.28.24-.34l-.18-.07c.06-.22.27-.19.33-.31-.34-.07-.84.23-1.15.13.1-.08.49-.46.38-.36,0-.26-.74.08-.95-.07.15-.09.16,0,.27,0a3.84,3.84,0,0,1-.75-2.06l-.56.19.19-.37c-.14-.8-.71-1.09-1.25-1.61-.15-.17.27-.31.35-.47-.17-.46-.77-.26-1.1-.63.18,0,.66-.14.59-.33-.16,0-.4.13-.37,0l.19,0c.17-.22-.09-.21-.11-.47a1.87,1.87,0,0,0-1.42-.65c-.1-.38.56-.21.65-.32-.09.33.16.13.36.1-.2-.06-.35-.18,0-.41a.52.52,0,0,0-.44-.33c.16,0,0,.2-.21.18.07-.2-.23-.52.25-.68a18.8,18.8,0,0,1-1-2.8c-.29-.08,0,.15-.25.12-.4-.14.1-.24-.21-.35h.28c0-.27-.56-.4-.87-.61.31,0,.2-.26.43-.09-.08-.12,1.25-.52.95-.54l-1.24.36c-.13,0-.09-.17-.17-.14.22-.16.52-.33.51-.4.32-.08.26.11.27.2.54-.08.31-.36.82-.3-.1-.18-.27.06-.48,0l.09-.19-.16.15c-.18-.12-.6-.13-.32-.36l-.56-.17c.43-.05.06-.16.17-.28l.27.06c0-.14.07-.2.23-.29.37.07-.1.13.26.15l.13-.14c-.24,0-.43-.1-.58,0-.46-.13-.83-.23-.79-.62.41-.15.37.2.78.15.17-.35-1-.55-1-.8.22-.28-.18-.32-.15-.65.25.16.35-.15.63-.14l.26.17c-.06-.1.07-.16.26-.09-.38-.07-.26-.45-.38-.71l-.33-.06c-.06-.19-.16-.49,0-.63,0-.3-.29-.35-.54-.7a2.17,2.17,0,0,1,.95.33c-.18,0-.14.16-.27.23.15.44.69.87.48,1.13.74.35-.06-.23.28-.29,0,0,0,0,0,.05s0,0,0,0a.74.74,0,0,0,.52.48c0-.19-.75-.36-.34-.47-.15-.23.49-.14.57-.21-.24-.2-.83-.45-.61-.67l.36.29c.13-.28-.54-.4-.38-.67-.1.08-.35-.28-.46-.1a.33.33,0,0,1,.09-.53c0-.07-.13-.08-.26-.16-.36,0,.13.42-.34.38l.37.32a.7.7,0,0,1-.72-.22c0,.06,0,.13-.06.13-.69-.26.34-.11-.19-.42l0,.15c-.46-.14-.22-.48-.11-.63.29-.1.44-.23.75-.08v.31c.3,0,0-.38.1-.51a.3.3,0,0,0,.12,0l-.09,0a.29.29,0,0,1,.17,0c.09-.1,0-.38.18-.44l-.27-.15.14.11a.3.3,0,0,1-.47,0c0-.36.5-.1.76,0,.35.31-.15.23-.09.44.43.17.19-.22.59-.3.36.38-.18.28.19.58.18-.14-.09-.39.15-.51.16.15.07.36.33.51l.19,0c-.15.31.56.3.53.59.23,0-.27-.38.1-.34-.2-.09-.63-.19-.68-.45l.24-.07c.25.08.32.47.56.49l0-.26c-.12-.08-.24-.05-.38-.22.21,0-.35-.5-.43-.76A.23.23,0,0,1,192,51c-.16-.51.12-.79,0-1.3.09.35.38.34.62.41-.09.21.26.52.49.72,0-.13-.25-.53-.41-.58.28,0-.14-.34.23-.26.21,0,.29.36.45.46.18-.15-.37-.45-.1-.55a.29.29,0,0,0,.1.13c.17,0,.12-.29,0-.48.53.33.25-.35.65.11.14-.34-.26-.21-.36-.4s.28-.31.4-.29c-.05.07,0,.24-.13.22l.34.26c.51-.05-.42-.88.13-.89,0,.31.15.29.26.59,0-.13.29-.25-.06-.36a.9.9,0,0,1,.41-.09A1.28,1.28,0,0,0,195,48c.2-.11.51,0,.7.11.21-.51.84-.35,1.07-.89h0c.36-.15-.46-.36-.11-.57.24.45.39.15.65.31.54,0,.53-.77,1.09-.71.05.1.09.22,0,.28a2.73,2.73,0,0,0,.86-.4v.07c.64.11.79-.53,1.21-.88,0,.08.07.25.07.33.28,0,.68-.14.65-.63.5.31.12-.23.69,0,.06.07,0,.09,0,.12.25.07.35,0,.56-.07.26-.47.1-1.12.65-1.14.3.62-.22.28,0,.79,0-.15.07-.32.26-.22a2.58,2.58,0,0,0,.1.42c.17.12.12-.83.14-.77,0-.13-.11-.18-.19-.12-.06-.44.45-.23.62-.49a.34.34,0,0,1-.4-.34c.36,0,.22-.65.35-1,.41.17,0,.63.23,1,.11.15.37.47.32.69.3,0,.33-.47.52-.66l0,.13c.3-.17.44-.86.81-.7l-.2-.1c0-.1.21-.12.21-.41.07.22.35.33.32.54-.09-.74.61-.68.56-1.39a1.07,1.07,0,0,1,.19.61c-.23,0-.35-.1-.36.22a.29.29,0,0,1,.38.23c0-.49.4-.8.35-1.26a.89.89,0,0,1,.43.63c.47-.4-.63-1,0-1.22.39.26-.12.56.3.56l-.05.08c.56.84,0-.73.32-.79.2.49-.11.43.22.72.25-.21.16-1,.5-.93v.24c.18-.1.57-.1.75-.18,0,.1,0,.09,0,.13.4.1.08-.31.45,0v-.27c-.17-.15-.52-.32-.62,0,.1-.35-.46-.58-.49-1v.19a3.09,3.09,0,0,0-2-.62c-.23.64-.73,0-1,.5.13.61,0,.14-.35.38.16-.14-.13-.45-.28-.49a.49.49,0,0,1-.15.34c-.13-.17-.75-.49-.77,0-.29-.11,0-.2,0-.34-.2-.27-.09.3-.23.12a.22.22,0,0,1,0-.1,3.21,3.21,0,0,1-1,.13c.19.58-.26.34-.33.61,0-.21-.27-.14-.41-.21l0,.49c0,.43-.35-.14-.5.15l.09.07c-.09.24-.68.09-1-.14-1.06,1.77-2.69.49-4.18,1.67,0,.22.22.23.27.51a.87.87,0,0,1-.31.24c.21.07.09-.1.15.06l.14-.27s0,.06.08.12.08-.24.19-.27c-.06.22.12.63-.15.59a.18.18,0,0,1,0-.16c-.18.06-.08.25-.25.21s-.09.09-.21-.07l-.56,0c.05.6-.48.32-.58.32-.16-.37.23-.28.14-.69l-.31-.15.15.28-.27.06,0-.06c0,.12.07.25,0,.19s-.11-.1-.09-.13l-.07.25c-.08-.34-.2,0-.38-.33-.64.19-.39.87-1.15.75.18.1.2.6,0,.64a.24.24,0,0,1-.24-.23l-.07.29c-.59-.32-.59.15-1,.25l-.09-.15c0,.26,0,.49-.26.58l-.17-.29c-.38,0,.27.69-.11.72.23.28.51.3.75.55-.29-.24-.59-.07-.36.08-.13.32-.16.14-.24.09v.29c-.18.12-.37-.32-.44-.53.1.43-.25.37-.47.48l0-.18-.28.15a.54.54,0,0,1-.42.65l-.21-.47c-.31-.05.05.19.07.28,0,.37-.32.19-.63.11C189.49,47.34,188.21,46.87,188.47,47.66ZM197,75.5v-.09C197.1,75.4,197.19,75.35,197,75.5Zm-1.9-1.58c.35,0,.13.16.06.28-.13-.29-.35-.28-.44-.57a2.14,2.14,0,0,1-.16.27c-.06-.09-.07-.23.07-.44C195,73.19,195,74.21,195.08,73.92Zm5.53.53-.06.09h0Zm-1.31-.06a.34.34,0,0,0,0-.22C199.28,74.3,199.25,74.4,199.3,74.39Zm-1.81-1.8c.07-.19-.07-.21-.18-.23A.56.56,0,0,0,197.49,72.59ZM189.34,59c.09.06.32.15.44,0-.19,0,.08-.2-.19-.2h0A1.23,1.23,0,0,0,189.34,59Zm-.19-7.7a2.45,2.45,0,0,0,.47.32h0a.3.3,0,0,1,.16.06c.06,0,.14-.06.11-.13C189.32,51.24,189.31,51.06,189.15,51.33Z"/><path class="cls-1" d="M190.54,54.65s0,0,0-.06Z"/><path class="cls-1" d="M189.85,51.6s-.12,0-.23,0A.23.23,0,0,0,189.85,51.6Z"/><path class="cls-1" d="M204.76,76.85l-.08.08.23.16c.25-.27.18-.55.16-.89-.16.38-.36.24-.67.39Z"/><path class="cls-1" d="M204.17,74.78a2,2,0,0,0-.16-.3v.2Z"/><path class="cls-1" d="M201.76,73.81c.05.07.1.15.16.22C202,73.88,201.85,73.53,201.76,73.81Z"/><path class="cls-1" d="M202.32,77.32l.17-.2c-.12-.19-.3-.19-.35,0C202.33,77.06,202.17,77.3,202.32,77.32Z"/><path class="cls-1" d="M201.26,73.64c-.17.36-.14-.21-.29.13C201.05,73.68,201.14,74,201.26,73.64Z"/><path class="cls-1" d="M200.46,77.23c0,.38.23.1.39.23C200.7,77.42,200.59,77,200.46,77.23Z"/><path class="cls-1" d="M199.82,74.3c.12-.25.2-.2.27-.1s-.13.17-.19.2a1.59,1.59,0,0,1,.41-.16c-.06-.24-.2-.43-.05-.74C200.07,73.71,199.8,74,199.82,74.3Z"/><path class="cls-1" d="M200,77.16c.11.15.13.42.32.44,0-.19,0-.48-.18-.49l.16-.29C200.21,76.55,200.28,77.25,200,77.16Z"/><path class="cls-1" d="M199.55,73.35v.17c.25-.14.39,0,.63-.31A.92.92,0,0,0,199.55,73.35Z"/><path class="cls-1" d="M199.53,76.36l-.18.41c.17.14,0-.15.15-.22,0,.08.1.15.16.09C199.43,76.62,199.77,76.29,199.53,76.36Z"/><path class="cls-1" d="M198.73,76.57l-.33.08v.53C198.77,77.14,198.52,76.93,198.73,76.57Z"/><path class="cls-1" d="M198.55,76.18v-.09c-.21.14-.42.28-.64.41A1.45,1.45,0,0,0,198.55,76.18Z"/><path class="cls-1" d="M196.66,71.4c-.15.12-.17.42-.09.21S196.69,71.16,196.66,71.4Z"/><path class="cls-1" d="M195,74.7c0-.18-.44-.21-.66-.22C194.51,74.54,194.82,74.92,195,74.7Z"/><path class="cls-1" d="M194.22,74.47h0Z"/><path class="cls-1" d="M189.08,69.78a.08.08,0,0,0-.07,0Z"/><path class="cls-1" d="M189.26,69.86c0,.13.22.25.42.17a1.9,1.9,0,0,0-.6-.25C189.14,69.83,189.07,70,189.26,69.86Z"/><path class="cls-1" d="M188.56,68.45c.14,0,.14.14.29,0S188.65,68.34,188.56,68.45Z"/><path class="cls-1" d="M190.74,57.88c.09-.11,0-.16-.27-.11C190.48,57.88,190.64,57.81,190.74,57.88Z"/><polygon class="cls-1" points="190.39 57.64 190.53 57.61 190.74 57.53 190.39 57.64"/><path class="cls-1" d="M190.8,56.93a.21.21,0,0,1,.12,0S190.85,56.9,190.8,56.93Z"/><path class="cls-1" d="M190.94,57s0,0,0,0Z"/><path class="cls-1" d="M190.85,57H191l-.06,0S190.93,57,190.85,57Z"/><path class="cls-1" d="M190.85,56.72l-.43.12c.21.14.22-.15.68,0Z"/><path class="cls-1" d="M190.78,56.26c.15-.1-.49-.38,0-.37-.21-.41-.86,0-1-.53-.35.38.93.39.6.69C190.76,55.93,190.66,56.2,190.78,56.26Z"/><path class="cls-1" d="M189.92,56.23c.25.05.29-.11.13-.19S189.65,56.14,189.92,56.23Z"/><polygon class="cls-1" points="190.65 55.54 190.87 55.47 190.72 55.41 190.65 55.54"/><path class="cls-1" d="M190.85,55.15l.26.18C191,55.27,191.07,55.12,190.85,55.15Z"/><path class="cls-1" d="M191.36,54.71c.13-.06-.48-.37-.41-.12l0,0C191.09,54.6,191.35,54.57,191.36,54.71Z"/><path class="cls-1" d="M190.94,53c-.05.06,0,.18.12.23l0-.25Z"/><path class="cls-1" d="M189.46,52.26c-.41-.11-.07.23-.27.31C189.35,52.44,189.39,52.49,189.46,52.26Z"/><path class="cls-1" d="M191.56,53.06c.13.14,0,.16-.05.19C191.73,53.34,191.73,53.19,191.56,53.06Z"/><path class="cls-1" d="M191.61,52.71c.18,0,.19.14.32.15s.29-.16.14-.35a2.68,2.68,0,0,1-.74-.44c0,.29.59.78,0,.58l.52.52C192.07,53.08,191.51,52.8,191.61,52.71Z"/><path class="cls-1" d="M190.17,52.47h.27c-.22-.09-.2-.2-.23-.3C189.73,51.93,190.17,52.39,190.17,52.47Z"/><polygon class="cls-1" points="192.1 51.44 192.17 51.14 192.09 51.2 192.1 51.44"/><polygon class="cls-1" points="192.34 51.4 192.46 51.49 192.37 51.15 192.34 51.4"/><path class="cls-1" d="M192.65,51.29h0a1.48,1.48,0,0,0,0,.21A.76.76,0,0,1,192.65,51.29Z"/><path class="cls-1" d="M193.11,50.92l-.2-.11c0,.09-.28,0,0,.22C192.83,50.92,193,50.83,193.11,50.92Z"/><path class="cls-1" d="M190.73,45.33a.52.52,0,0,0,.28.3l-.17-.35S190.81,45.38,190.73,45.33Z"/><path class="cls-1" d="M191.47,45.5l-.08-.51c-.28.16-.09.45-.25.68.18,0,.09-.31.28-.32Z"/><path class="cls-1" d="M195.91,42.74c.12.25.15.19.08.44.14-.28.36-.34.59-.53-.13-.13-.09-.5-.15-.38l-.2.32,0-.19C195.87,42.34,196.2,42.74,195.91,42.74Z"/><path class="cls-1" d="M208.84,40.45a.69.69,0,0,0,.15.35C209.12,40.61,208.81,40.49,208.84,40.45Z"/><path class="cls-2" d="M72.5,65.93c.65,1.12,7.38-5.4,7.87-4.54,0,0-8,9.51-7.86,9.83.33.57,15.94-11.7,17-9.83.37.63-18.19,13.35-17,15.4S99.18,61.4,99.18,61.4c.72,1.26-27.9,19.35-26.64,21.53,0,0,27.62-20.65,29.65-17.12C103.83,68.64,78.63,84,79,84.69c1.26,2.18,21.65-16,23.17-13.37.28.48-16.37,13-15.54,14.44,0,0,15-9.91,15.54-9,.68,1.18-7.72,10-7.65,10.08.22.38,7.32-5,7.66-4.42"/><path class="cls-2" d="M44.07,65.59c.44.76,7.78-4.49,7.78-4.49.69,1.19-7.87,9.78-7.78,9.94.21.36,16.63-10.77,17.13-9.89C62,62.5,43.26,75.47,44.07,76.87c.52.9,21.17-12.59,21.33-12.32C66,65.66,46.71,79.07,47.46,80.37c.44.75,18-10.36,18-10.36.18.31-10.22,11.22-10.1,11.43s9.35-7.15,10.11-5.83c.16.28-2.37,6.89-2.37,6.89.41.71,2.21-1.67,2.38-1.37"/><path class="cls-2" d="M72.54,38c.32.55,11.59-7.49,11.93-6.89.8,1.37-11.93,12.49-11.93,12.49.12.22,24.95-14.4,24.95-14.4C99.15,32,72,48.64,72.54,49.64c.16.27,29.17-17.95,29.64-17.12,1.22,2.1-30.63,21.33-29.64,23,1.5,2.6,29.61-17.19,29.65-17.12,1,1.81-20.45,17.34-20.37,17.47,1.08,1.87,19.11-14,20.38-11.76.48.84-10.76,11.36-10.58,11.67.76,1.31,10.2-6.77,10.58-6.1"/><path class="cls-2" d="M44.06,41.86c0,.07,10.76-8.09,11.57-6.69.63,1.09-11.56,12.44-11.56,12.44S64.15,33.1,65.41,35.28c0,0-21.36,18.62-21.34,18.67s20.79-13.3,21.35-12.33C66.24,43,48.87,55.35,49.33,56.14c0,0,15.86-9.71,16.1-9.29L59.5,56.07s5.44-4.28,5.94-3.43"/></g></g></svg>