<svg xmlns="http://www.w3.org/2000/svg" viewBox="0 0 211.34 211.63"><defs><style>.cls-1{fill:#fcf03a;}</style></defs><g id="Layer_2" data-name="Layer 2"><g id="Layer_1-2" data-name="Layer 1"><path class="cls-1" d="M205.36,205.06c.7,1.18.23-.4.15-1.85Z"/><path class="cls-1" d="M205.51,203.21l.1-1.3A3.76,3.76,0,0,0,205.51,203.21Z"/><path class="cls-1" d="M206,191c.56,2.8-.21,6.14.65,7.89C207.15,196.1,206.93,191.73,206,191Z"/><polygon class="cls-1" points="205.44 195.24 205.91 195.59 205.18 193.13 205.44 195.24"/><polygon class="cls-1" points="205.02 197 205.19 196.64 204.71 192.8 205.02 197"/><path class="cls-1" d="M206.33,181.56l.13,2.81c-.64,2.63-.85-1.74-1.28,0,0,3.5,1.32,1.2,1.11,5.59.6-.35,0-7,.94-6.31C207.52,180,206.67,183.49,206.33,181.56Z"/><path class="cls-1" d="M201.26,12.86a1.63,1.63,0,0,0,.09-.19C201.25,12.76,201.17,12.83,201.26,12.86Z"/><path class="cls-1" d="M164.56,10.89c-.64-.1-1.27-.16-1.89-.2a2.94,2.94,0,0,0,.75.26Z"/><path class="cls-1" d="M203,41.5c-.1.67-.17,1.28-.23,1.83A5.3,5.3,0,0,0,203,41.5Z"/><path class="cls-1" d="M4.92,68.05a.47.47,0,0,0-.27-.25l0,.09.25.51Z"/><path class="cls-1" d="M112.71,12.34c-.73,0-1.44,0-2.08.1A8.93,8.93,0,0,0,112.71,12.34Z"/><path class="cls-1" d="M203.1,58.21v-.7c0,.22-.07.52-.1.86l.09-.13Z"/><path class="cls-1" d="M179.68,12.15c-.63-.06-1.2-.11-1.68-.11A12,12,0,0,0,179.68,12.15Z"/><path class="cls-1" d="M207.38,138.62a6.7,6.7,0,0,0-.08-2A3.61,3.61,0,0,0,207.38,138.62Z"/><path class="cls-1" d="M207.28,122.06a.34.34,0,0,1,0,.1C207.4,122.06,207.38,122,207.28,122.06Z"/><path class="cls-1" d="M207.37,111.48l0,.18C207.47,111.54,207.49,111.48,207.37,111.48Z"/><path class="cls-1" d="M207.3,136.58c.37-1.37,1.56-1.78.25-3.55l-.17.36c.29-1.07-.22-2.64-.26-3.87a1.66,1.66,0,0,0-.32.45c0,.62-.05,1.44-.13,2.7C206.39,134.16,207,135.13,207.3,136.58Z"/><path class="cls-1" d="M201.5,12.92c-.24,0-.12.77,0,0Z"/><path class="cls-1" d="M202.48,27l0-1.4A6.44,6.44,0,0,0,202.48,27Z"/><path class="cls-1" d="M202.14,80.75l.05-.25C202.06,80.42,202.08,80.63,202.14,80.75Z"/><path class="cls-1" d="M202.53,24.26v1.3A4.68,4.68,0,0,0,202.53,24.26Z"/><path class="cls-1" d="M202.85,64.6a1.92,1.92,0,0,0,0-.22A1.06,1.06,0,0,0,202.85,64.6Z"/><path class="cls-1" d="M90.54,210.74a11.9,11.9,0,0,1-2.75-.33c-2.29.86,4.74,0,1.41.79a15.08,15.08,0,0,0,2.56-.25l-1.45-.81C88.31,210.46,91.66,210.42,90.54,210.74Z"/><path class="cls-1" d="M3.22,81.49,3.29,81c-.37.32-.48,0-.68,1.81.57,1.51,1.42-.85,2,1.8a9.87,9.87,0,0,1,0-2C4.19,83.72,3.66,82.65,3.22,81.49Z"/><path class="cls-1" d="M4.7,82.63a.25.25,0,0,1,0-.07,2,2,0,0,0,.2-.39,7.92,7.92,0,0,1,.09-1A5.36,5.36,0,0,0,4.7,82.63Z"/><path class="cls-1" d="M54.63,210.38l-1.21-.08A2.19,2.19,0,0,0,54.63,210.38Z"/><path class="cls-1" d="M116.05,2l1.45-.25A4.15,4.15,0,0,0,116.05,2Z"/><path class="cls-1" d="M4,55.93c.06-.4.1-.82.13-1.28l0-.81Z"/><path class="cls-1" d="M11.89,141.1c-.93-.91.07.7-.47,2.52l.5,1.69A36.32,36.32,0,0,0,11.89,141.1Z"/><path class="cls-1" d="M91.87,211a.15.15,0,0,1,0-.09l-.13,0Z"/><path class="cls-1" d="M12.09,191.14,12,192A4,4,0,0,0,12.09,191.14Z"/><path class="cls-1" d="M5.1,72.61l.05-6.44-.23,1.88C5.38,68.94,4.54,71.71,5.1,72.61Z"/><path class="cls-1" d="M12.43,113.63l.56-.58c-1.2-6.4.52-13.76-1.16-18.86,2-7.8-1.77-5.12,0-12.27l-.28.24c.22-11.77.46-23.9.69-35.83.09-6,.14-11.88.1-17.69q0-4.35-.11-8.6l-.11-4.22L12,13.73l0-.52c0-.15,0-.09,0-.14l0-.16.4.09.08-.41.53.08,6,.06,12.53,0,25-.07c16.61-.08,33.19-.2,49.91-.05,3.28-.36,1.3-1.24,4.13-1.68,1.23,0,4,0,4,.48-2.37.26-1,.69-1.85.88,4-.05,9.06.52,12.58-.08l-3-.63a26.32,26.32,0,0,1,4.77-.05c-.53.32,1.28,1,.21,1.16,7.44-1.56,5.8.67,12.07,0,1.24-1.33,9.09-2.43,14.25-3.38l2.71.35c-3.6,0,.07,1-4.4.91,3.73.38,7.19-.19,10.72,0-.69-.33-.51-.77.9-.92,2.17.18,2.36.85,4.84.92l-2.45.42c1.65.5,3.07-.16,4.59-.24.5.56,4.2.66,3.54,1.28,3.34-.76,4.52-.33,8.1-.82-3.73-.58,1-.73.54-1.19l-4.2.22c5.93.37-1.93.1-1.48,1.05-2.79-.44,3.82-1.57-.85-1.42,5.58-.49,6.76-.06,12.46-.85-3.44.18.66-.62-1.19-.91,4.37,0,1.09.33,2.44.95,2.38,0,3.25.51,5.44-.19,3.86.28-.58.71,1.37,1.1-1.43.65-10.73-.81-9.68,1.28-2,0-4.46.83-7.36.78,2.53.28,6.15,1,9.28.49l.15-1.18c2.38,0,2.87-.83,4.58-.73-.91.34.73.84,2.65.74-.55-.16-1.31-.12-1.1-.33a17.39,17.39,0,0,0,2.19-.18l.86-.15a2.1,2.1,0,0,0,.34-.18,5.43,5.43,0,0,1,2.15-.6,12.55,12.55,0,0,1-1.7-.51l-.42-.15a3,3,0,0,0-.58-.16c-.58-.11-1.23-.23-2-.36a2.07,2.07,0,0,1,1.71-.38l.55.06.43.06a3.84,3.84,0,0,0,.91,0c-.23.12-.48.14-.16.3q.71-.19,1.53-.39c1.37.17,1,.45.64.75s-.75.59-.26.8c0,0,0,.1,0,.17-.34.87-.25,1.08-.11,1.36a1.14,1.14,0,0,1,.11,1.05l.21-.21c0,.21,0,.36-.06.46l.06,0,0,.22v.41l0,.85c0,.57,0,1.11.08,1.61a3.89,3.89,0,0,0,.52,2.09c-.28.24.08,2,.27,2.76.25,1.28,1,4.35,0,6.26,0-.05,0-.09,0-.14-.12,2.87-.43,5.1-.76,4.48l-.25,4.62-.81-.49c.22,4.21.69,3.79,1.52,6.68a43.91,43.91,0,0,0,.21,10.28,11.62,11.62,0,0,0,0,1.68l.31-1.76c0,3.29.39,2.89.4,5.06.07-.45.12-.51,0,.7L203,59.45a2.61,2.61,0,0,1,0-1.08l-.27.4c-.85,2.63.49,4,.19,6.84a8.26,8.26,0,0,1-.08-1c-.22,1.58-1.36,3.85-.66,4.5a3.15,3.15,0,0,0,.22,1.46l-.12,1.17c0-.48.08-.85.13-1.15.23.72.51,1.41.34,1.5l-.14,4a10.34,10.34,0,0,0,.09,2.65l-.33.68c.05,1.47-.15,1.49-.24,1.31-1.16,5.11.59,7.89-.41,13.41.56,1,.81-1.23,1.11-1.4.43.86.81,4,1.11,5.6-.77,2.45-1.45,10-2.56,8.78-.08,4.54.69-1.42,1.07.86l0,.52a10.6,10.6,0,0,1,.93-3.68c.6-.35.78,3.67.61,4.9l-.86-.86c.3,4.19,1.58,3.31,2.44,5.92-.34,3.34-1.11,1.42-1.88,2.13l.21,3.5h-.64c.17,2.28.77,2.81.52,6-.6-2.28-.6,4.73-1.41,1.58-.21,1.75,1,2.26.17,3.15.69,1.22.34-1.57.56-2.46,1-.71.47,3.85.72,6-.5.18-.59-1.4-.93,1.08a4.52,4.52,0,0,1,.21,3.48c.64,0,.13,2.81.09,4.22.13-1.59.59-3.87,1.15-2.83a19.44,19.44,0,0,1,.3,5.08l.3-1.92c.94,2.44-.68,4-.38,7.36a35.88,35.88,0,0,0-.86-3.5c.3,1.57.77,4.56,1.07,7l-.93,2.81c.46.35-.05,3.15.59,3.15-.43,3.5-.77-2.8-1.24-3.15-.42,4.38,1.07,3.51.09,7.71l-.59-1.4c0,1.4.29,4.21,0,4.38.21,0,.12-.7.12-1.57,1.29.86.9,6.47,2.22,5.95l.09-1.94c.26,3,1.15,5.08.69,7.35-.43,1.76-.9-1.22-1.24-2.26-.09,2.79,1.45,2.26,1.32,5.6.22-1.76.69-1.42,1-.37.08-1.93.33-6-.22-5.24l-.13.69c-.34-.17-.47-1.22-.64-1.75,0-2.63.6-1.22.85-1.75.21-4.38-1.32-.36-1.28-4.37l.26-.52c-.34-1.94-.39-4.92-1.2-5.44.86-1.76-.34-4.55.17-6.47,1.88-.37-.13,6.82.9,9.1.38-2.11.9,1.2,1.32,2.08l-.81-6.64c.26-.53,1.19-2.48.51-3.68l0,.52c-.22-2.64-1-1.93-.73-4.21.17-.35.47.35.6.53.17-2.11-.43-1.75-.6-3.16.17-2.1.77,1,1-.7-.73-2.44.17-3.86.13-6-1.07.9-1.46-8.39-2.4-3.83l-.72-5.07c.55-1.58,1.49,3.48,2.39,2.08l0,4c1.32-.67-.87-8.45.61-11.13a24.46,24.46,0,0,1,.53-5.71l-1.18.7c.27-2.12.92-2.8,1.13-2.9a34.16,34.16,0,0,1,0-3.51,3.49,3.49,0,0,1,.39,1.49c.66-1.6.41-2.06.06-2.62a12.25,12.25,0,0,1-.24-3.49l.44,1.19c-.1-.8-.23-1.8-.44-1.89a11.27,11.27,0,0,0-.11-1.57,7.54,7.54,0,0,0-1.2,3.13c.46-4.91.21-8.75,1.19-13,.34.16.76,1.91.81,1.38.17-2.1-.43-4.38-.94-4.19,0-.47-.05-.84-.05-1.16a3.15,3.15,0,0,0,.66-1.89,3.67,3.67,0,0,0,.24-1.33c-.94-.7-.47-4.73-.9-5.61a27,27,0,0,0-.06,3.3c-.62-1.69-1.34-3.21-.84-4.51.6,3.14,1-3.35,1.24,1.38,1.19-3.33-.85-1.74-.43-5.26l.47-2.28c.68.35.34,3.69.6,3.16l-.09-1.58c.52,1.58.18,7.54.95,11.21l.38-7.37c-.82-9.28.12-20.85-1.38-28.73l0,.34c-.07-.14-.19-.21-.45-.32l.17-.35-.52-1.56c.64-1.77.77-5.09,1.28-7.91-.43,1.77-.43,1.77-.94,1.94-.68-.35-1-.62-.72-3.25.48,0,.47,1.59.86-.35-.24,1-.58.11-.64-1,.31-1.48.38-4,.87-4a4.51,4.51,0,0,1-.11,1.7c.13.69.44-2.78.84-.75l-.14-2.67c.4-1.57.64,1,.9.41-.33-4.45-1.45-6.73-1.78-10.76a2.46,2.46,0,0,0,1,.19c.32-3.1-1.18-6.65-1.27-10.18.32.52.19,1.84.35,2.91.09-2.89.18-5.64.27-8.31.09-3.83.18-7.56.27-11.26l-5-.15-5.11-.2c-2.25-.15-4.54-.33-6.89-.57l-2.63,1.11L186,2.6c-10.66-.71-18.83,0-29,.34-3.15.07-1.89-.77-3.38-1.09-6.92-.12-8.61,1.13-15.2,1.38.91-.34,2.45-1.3-.39-1.34a3.06,3.06,0,0,1-2.67.63l.91-.35c-1.63-.5-3.22,0-6.61-.24a71.19,71.19,0,0,0-16.65,2c-5.3-.11.55-1.19-.45-1.44,3.74.41,2.6-.19,3.41-.58-2,.32-4.37.51-5.39-.29a31.7,31.7,0,0,0-6.73.55c1.37-.27,2.55.16,1.26.52-2.25-.27-8,0-7.67-1-13,.19-27.66,0-41.64,0-2.36.51,1.79.2.49.56-3.43.66-2.71-.35-5.45.18L52.05,2c-4.08-.08-8.42.92-12.37,1.42.65-.61-3.25-.51,0-.88-1.93.11-4.28-2.66-5.77-2.09L36.12,3c-.11.26-2.82.1-2.55.27a22,22,0,0,0-4.93-1.1c-.57-.65,2.37-.51,4-.5C32.86.61,27.19,1,29.53,0,26.08.18,30,.56,28,1L25,.73l2.32.36c-2.51.33-3.37,1.15-6.72.55L17.07,2.7c-.17-.43-.81-.47-1.62-.43l-1.32.09-.7,0c-.23,0-.41,0-.84,0,.14,0,.33-.09.44-.14l.28-.13.56-.28H13l-1.2,0c-.77,0-1.44,0-2.07-.08C8.51,1.63,7.41,1.52,6,1.36a6.75,6.75,0,0,1,2.86-.28A2.89,2.89,0,0,0,10.77.83l-5-.26c.14.25-.5.46-.69.66s0,.36,1.74.5c-1.59.39-2.69.75-4.17,1C2.8,4.09,3,5.5,3.05,7.21c.05.86.08,1.79.1,2.83l0,1.64v1.71c-.42,1.36-.6.67-.78-.33-.18-1.5-.37-3.48-.78-2.62q0,1,0,2v.84l0,.5A14.56,14.56,0,0,0,1.8,15.5a16,16,0,0,0,.75,2.76A12,12,0,0,1,3.67,23c-.34,4.7.43,4.43.48,9.19-.56-1.51-.6,3.34-1.14,4.21L2.42,34.5c.18,1.45,0,2.84-.46,2.41.77-.27.72,6.18,1.08,9.47l.66-.58a69.45,69.45,0,0,1,.46,8.85c.21,4.05.78,3.13,1.5,6.25-.59,1.73-1.29,1.54-2,1,.33-1.08.14-2.92.34-4.7C3.43,52,2.06,48.06,2.38,43,.79,40.74,2.56,46.4,2,48.88a.69.69,0,0,1-.14-.44,4.21,4.21,0,0,1,0,.62c-.2-1.83-.45-4.82-1.26-5.31.17,3.06,1.58,2.22.9,6,.45,2.83-.8,5.12-.91,6.83.59,1.88,1.86,2,1.62,6.58l-.89-2c0,5.23,1.3,2.45,1.26,7.3.1-1.71.87,1.64.89-1.6a26.26,26.26,0,0,1,.31,7.75c.13.69.3.15.6.27.62-2.91-.6-4.6.29-7l-1-2c.35-2.7,1.12-3,1.49-1.32a6.29,6.29,0,0,1,0-2c1.44-.46-.51,3.25.71,4.19l-.11-1.91c.94-.83.82,4.46.76,6.93-.44,2.79-.6,5.34-1.28,5.53L5,73.55c-.54,1.94.32,4.78.29,7a1.79,1.79,0,0,0-.21.61c.06-.11.12-.18.19-.18a3.48,3.48,0,0,1-.28,1.23c0,1.91.38,4.72.16,6.5l.61-.22-.34-.24c0-1.75.39-4.13.84-2.8.42,4-.74,4.75-1.27,5.69-.92-.91,0-3.86-.3-5.87-.92,1.21-.1,4-.7,8.1-1-1.62,0-4.73-.92-5.63-.17,3.29.55,4.15.29,7.61-.46-.44-.51-3.81-1.11-3.59l-.28,2.22c-.06-5.46-1.25,1-1.5-3.3-.41,2,.82,2.8.19,5.65C1,95.5,1.84,93.22,2.23,96L1.94,99C1.45,100.33.87,95.82.46,97.83l.34,3.23c.3-.11.45-1.66.86-.68-.32,1.86,1.16,3.06,1.6,5.26a10.07,10.07,0,0,1-.43,3.76c.88,4.42.85,10,1.69,14.08-.6-2.77-1,.11-1.47,1.77-.13-3.19-1.07-3.22-1.67-3,.1,2,1.07,3.22,1.38,2.24-.38,3.25.65,2.24,0,5.1-.33,1.85-.93-.93-1.28-.29,0,3.51,1.14.95.92,4.77-.13-.21-.17-.56-.34-.26-.2,2.06.24,4.27.71,4.72-1.22,2.18.13,6.17-1.06,5.74.32,5,.65-.74,1.07.24.53,2,.09,5.8-.1,7A20.21,20.21,0,0,1,2.54,148L1.71,149c-.59,6.19,1.87,3.93,1.16,9.91-.44-3.08-.63-1-1.21-2.56.2.93,0,5.61.6,2.78-.07,2.25-.22,3.81-.37,5.36A25.65,25.65,0,0,0,3,169.81a31.22,31.22,0,0,1-1,7c.6,6.62-.42,12.72.21,19.69l0-.52c-.08,2.71.2,2.11.49,1.54.15-.29.29-.57.4-.42a1.21,1.21,0,0,1,.14.58c0,.35,0,.71,0,1.86-1-1.08-.68,5.3-1.22,8.75L2,209.47c2.64.1,5.26.1,7.74.05l1.85,0,1.64,0,2.12-.12a51.83,51.83,0,0,1,8.62.05c-.05.21-.46.47-1.69.49,4.84.32,8.75.12,13.12.17l-.19.13c7,.82,13.36-.17,20.61-.41-.59.12-.74.51-1.2.64,3.65.23,9.49.38,12.06-.55,4.33,1,2.87-.3,8.45.67.32.17-.56.16-.93.2,2.74.34,4.69.23,7.46.35,6.12-.64,7.64-2,14.75-1.55.37,1.37-4.37.34-4.53,1.43a12.2,12.2,0,0,1,4.61-.2c-1.18.54-.26.34-1.07.85,1.5.36,6-1.44,6-1.31.08-.27-.43-.41-1.83-.37,1.66-.85,7-.07,10.43-.41-1.12,0-4.64-.29-3.32-1,4.62.3,6.16-1,9.39-1.58,4.25.63-3.14,1.16-2.34,2.13.71.35,2.42,1.12.63,1.5,3.83.2,6.59-.62,10-.83l-.09.27c4.76-.11,9.85-1.31,13.85-.76L136,209c.78-.16,3.19-.08,4.51-.64-.14.45,3,.86,1.69,1.23,2.12-1.45,10.84-.88,13.22-2.25,1.27.36.25.95-.13,1.28-3-.12-4-.41-5.61.17,2.5,0,4.33.35,3.95.68,2.51-.9,8.47-1.26,9.73-2.16,1.83.45,3.57.7,2.93,1.45,7.68-.47-3.79-2.32,4.88-2.31,3.95.73-3.86,1,1.59,1.23l-1,.12c3.93,1.94,2.76-1.38,7.22-1.32.6,1.06-3.11.76,0,1.51,4.08-.26,5.87-1.83,9.95-1.49l-.64.45c2.61-.08,7.69.13,10.29.05.12.21-.26.18-.76.23,4.82.4,2-.54,5.95.19l1.13-.51c-2-.36-5.8-.88-8.3-.28,2.5-.6-3.92-1.33-2.68-2.23l-.5.36c-6.53-1.55-15-1.75-23.24-2.33-5.23,1.08-8.9-.43-14.51.31-.87,1.24-1.05.25-5.87.5,2.55-.16.31-.94-1.31-1.11a14.79,14.79,0,0,1-3.23.55c-1-.42-7-1.42-9.27-.58-2.93-.39.69-.39,1.33-.65-1.19-.63-2.39.5-3.36.07,0,0,0-.13.35-.19-4.48.05-7.16-.28-11.83-.43-.39,1.21-4.59.45-6.67.89.67-.39-2.63-.46-3.95-.69l-2.5.91c-2.48.76-3.45-.54-6.65-.13l.78.22c-2.35.36-8.5-.37-10.8-1-21.6,2.37-33.41-1.33-56.18-.69-1.48.37,1.09.62-.07,1.16-2.32.14-2.84.09-5,.1,1.86.33,1.56-.08,1.33.26l3.22-.34c.16.09-.2.13.11.3a23.15,23.15,0,0,1,3.75-.29c-2,.31-2.56,1.21-5.29.87a3.49,3.49,0,0,1,1.28-.24c-2.25-.07-2.36.35-4,.12-2.07-.2-1.56.07-1.83-.31l-6.43-.49c-3.2,1.07-7.15.06-8.19,0,.7-.8,4.26-.25,5.84-1l-2.32-.58-.14.64-3.3-.18.19-.12a1.78,1.78,0,0,1-1.64.28c-.15-.09-.47-.27-.1-.31l-.59.09-.29.05c-.11,0-.08,0-.13,0l-.36.18c.5-.67-.53-.2-.07-1a1,1,0,0,0-.48-.07c0-.31-.27-.52-.38-.93v-.2l0-.37,0-.74c0-.51,0-1,0-1.57A30.78,30.78,0,0,1,12,192c-.36,1.1-1.21-2.15-1.07-4.22.19-1.2.36-1.51.65-.74l-.39-2.73c1.2-3.41.43-6.75.84-11.75l.33.26a24.47,24.47,0,0,1-.59-6.63l.68.5c.47-3.4-1.42-2.6-1-6.36-.73,0-1.1,2.39-1.79,2.76.74-.89.85-4.93.33-4-.3-3.74,0-2.59.19-2.91l-.44-2.21c0-2.63.95-.84,1.36.13-.78-2.45-.23-5.13-.1-7.92l.32,1.13.13-3.66a29.87,29.87,0,0,1-.31-8.83l1,2.13c.5-2.17-.33-1.12-.49-1.69-.47-3.43.18-4.16.72-6C11.3,123.77,13.86,118.33,12.43,113.63ZM202.59,79.44l.15-.5C202.9,80.08,203.06,80.74,202.59,79.44Zm.28-30.14c.37,3.63-.08,2.48-.35,2.76.26-3.58,0-5.57.27-8.73a1.61,1.61,0,0,1-.6.77c0-1.26.25-2.52.74-3C203.89,42.71,202.31,50.87,202.87,49.3Zm4.72,67.86a2.73,2.73,0,0,1-.22-.42v0Zm-.85-18a2.83,2.83,0,0,0,.39-1.24A1.53,1.53,0,0,0,206.74,99.2Zm1.18-35.76c.4-.83.27-2.71.18-4.08C208.06,60,207.94,61.15,207.92,63.44ZM36.17,4c1.09-.16,3.12-.56,1.26-.85-.89.34-2.61-.25-3.37.27l-.18,0A19.29,19.29,0,0,0,36.17,4ZM7.1,82.88c-.39-.2-.82-1-1.12-.48l0-.31c-.13.27-.24.5-.33.29a10.26,10.26,0,0,0-.06,2.38C6.91,85.05,7.11,86.87,7.1,82.88Z"/><path class="cls-1" d="M1.83,47.45c0,.41,0,.73,0,1C1.86,48.17,1.85,47.86,1.83,47.45Z"/><path class="cls-1" d="M5.63,84.58A8.72,8.72,0,0,0,6,82.4,5.36,5.36,0,0,0,5.63,84.58Z"/><path class="cls-1" d="M203.26,175.63l-.13-1-.39,2.1c.43,3.51,1,3.68,1.63,4.55-.6-3.15-.3-5.07-.48-9.11Z"/><path class="cls-1" d="M207.52,173.85a6.63,6.63,0,0,0,.64-1.76l-.38-.52Z"/><path class="cls-1" d="M209.39,132.3l-.34,3.33C209.39,136.68,210,132.82,209.39,132.3Z"/><path class="cls-1" d="M202.65,147.08l.43,1.75c.34-1.57.29-3.69-.18-4C203.16,146.9,202.65,145.32,202.65,147.08Z"/><path class="cls-1" d="M209.48,123.35c-.77-1,.34-3.33-.39-4C209.3,120.21,208.71,123.19,209.48,123.35Z"/><path class="cls-1" d="M202.17,125.69c-.73,1.06-.08,2.81-.26,4.92C201.91,128.85,202.68,126.4,202.17,125.69Z"/><path class="cls-1" d="M207.3,105.5c.55.17.51,1.57.38,3.15a6.38,6.38,0,0,1-.51-1.58c.42,2.63.34,2.81.59,4.92.39-2.11.64-5.27,1.32-4.93C208.57,105.5,207.8,103.57,207.3,105.5Z"/><path class="cls-1" d="M202.08,120.62c-.21,1.76-.72,2.81-.68,4.91.39-.36.94-1.06.85-3.52l.64.88C203.36,120.61,202,123.78,202.08,120.62Z"/><path class="cls-1" d="M208.78,95.85l-.29,1.06c.51,2.45.25,5.6,1.06,7A43,43,0,0,0,208.78,95.85Z"/><path class="cls-1" d="M203.27,112l-.89-.34c-.13,2.46.3-.17.51.7a5.82,5.82,0,0,0,0,2.27C202.72,111.86,203.57,114.47,203.27,112Z"/><path class="cls-1" d="M202.29,104l-.39-3.14-1,2.45C201.26,107,201.48,103.46,202.29,104Z"/><path class="cls-1" d="M202.88,100.1l.18-.35L201.73,95A31.93,31.93,0,0,0,202.88,100.1Z"/><path class="cls-1" d="M208.71,43c-.39-.53-.86,2.24-.44,1C208.59,44.53,209.09,40.85,208.71,43Z"/><path class="cls-1" d="M201.53,54.22c.29-1.34-.26-5.74-.52-7.66C201.2,48.85,201,54.54,201.53,54.22Z"/><path class="cls-1" d="M200.91,45.77l.1.79A6.32,6.32,0,0,0,200.91,45.77Z"/><path class="cls-1" d="M163.11,12.55a2.21,2.21,0,0,0-.59.1Z"/><path class="cls-1" d="M165,12.33c1.31.13,3.9-.11,4.35-.52-2,.2-3.87.31-6.28.74C164,12.51,165.12,12.8,165,12.33Z"/><path class="cls-1" d="M146.44,12.13c1-.24,2.29-.12,2-.49C147.85,11.47,145.79,11.87,146.44,12.13Z"/><path class="cls-1" d="M21.12.93c-1.79-.2-2.84-.05-2.36.51C20.77,1.43,19.67,1.1,21.12.93Z"/><polygon class="cls-1" points="16.47 1.56 16.23 1.28 15.05 0.85 16.47 1.56"/><path class="cls-1" d="M.59,5.07A8.55,8.55,0,0,1,.35,3.48C.43,4.88.5,6.05.59,5.07Z"/><path class="cls-1" d="M.31,2.77l0,.71Z"/><path class="cls-1" d="M.49,1.37.19.82c0,.43.09,1.21.12,2C.29,2.11.33,1.46.49,1.37Z"/><path class="cls-1" d="M.49,12.05c.29-1.47.57-2.84.86-4.1C1.14,5.67,1,6.82.86,8.05s-.41,2.56-.86,0Z"/><path class="cls-1" d="M.73,20.76C.45,23,1.79,26.25.79,27.52c.52,6.36,1.68-1.47,2.06,5.81.52-6.88-1.94-3.5-1.38-9.61C.84,26.68,1,21.75.73,20.76Z"/><path class="cls-1" d="M2.43,19.68c-.51-.37-.56,2.48-.22,3.37C2.27,22.22,3,20.79,2.43,19.68Z"/><polygon class="cls-1" points="1.18 33.19 0.79 35.14 1.12 35.65 1.18 33.19"/><path class="cls-1" d="M1,40.57.4,38.68C.62,39.3.58,42.14,1,40.57Z"/><path class="cls-1" d="M.25,50.85c-.2,1.78,1.16,3.39.86-.37l-.05.86C.85,51.11.37,53.14.25,50.85Z"/><path class="cls-1" d="M2.38,74.61c0-1.22-.15-2.67-.43-2.42l.28,3.37Z"/><path class="cls-1" d="M5.66,74.12C6.49,73,5.6,71,5.87,68.73A39.59,39.59,0,0,0,5.66,74.12Z"/><path class="cls-1" d="M1.21,78.45a8.59,8.59,0,0,1-.07-3.15C.67,75.71.79,78,1.21,78.45Z"/><path class="cls-1" d="M1.49,83.82c-.33,1.09-.46-.25-.69.58a15.08,15.08,0,0,0,.13,6.18c.35-.63,1.31-1.47,1.72-.5C2.36,86.32.84,84.39,2,82.56L.57,79.42C.34,82.42,1.58,81.73,1.49,83.82Z"/><path class="cls-1" d="M4.21,76.21l-.48,2c.47-.4.55,1.13.7,2.2C5.48,79.89,4.27,77.36,4.21,76.21Z"/><polygon class="cls-1" points="2.12 104.68 2.36 108.96 2.42 107.57 2.12 104.68"/><polygon class="cls-1" points="1.78 107.42 1.48 107.53 2.04 110.81 1.78 107.42"/><polygon class="cls-1" points="1.43 111.9 1.48 111.4 1.21 108.88 1.43 111.9"/><path class="cls-1" d="M1.22,120.82l.44-.79c-.11-1.08.38-3.25-.21-3A8.59,8.59,0,0,1,1.22,120.82Z"/><path class="cls-1" d="M12.45,150.35c-.29-.77-.55-.31-.82.15l.76,1.23A2.9,2.9,0,0,1,12.45,150.35Z"/><path class="cls-1" d="M11.23,155.51l.85,3.17c.14-3.65-.54-4.16-.67-7.35-.27,1.35.34,3.24.11,4.95Z"/><path class="cls-1" d="M20.42,200.91c-.29.55.43.48-1.93.83,3.24-.34,6-.22,9.71-.3-.62-.35,2.14-.95.72-.8l-4.13.33.62-.38C22.51,200.17,23.52,201.21,20.42,200.91Z"/><path class="cls-1" d="M186.45,206.76c-.38.27.11.51.61.75C189.53,207.21,186,206.82,186.45,206.76Z"/><path class="cls-1" d="M6,6.57c-.7-1.18-.22.4-.14,1.85Z"/><path class="cls-1" d="M5.83,8.42l-.11,1.3A3.73,3.73,0,0,0,5.83,8.42Z"/><path class="cls-1" d="M5.34,20.6c-.55-2.8.21-6.14-.64-7.89C4.19,15.53,4.4,19.9,5.34,20.6Z"/><polygon class="cls-1" points="5.89 16.39 5.43 16.04 6.15 18.5 5.89 16.39"/><polygon class="cls-1" points="6.32 14.63 6.15 14.99 6.62 18.83 6.32 14.63"/><path class="cls-1" d="M5,30.07l-.12-2.81c.63-2.63.85,1.74,1.28,0,0-3.5-1.33-1.2-1.12-5.59-.6.35,0,7-.93,6.31C3.81,31.65,4.66,28.14,5,30.07Z"/><path class="cls-1" d="M10.08,198.77A.82.82,0,0,0,10,199C10.09,198.87,10.16,198.8,10.08,198.77Z"/><path class="cls-1" d="M46.78,200.74c.63.1,1.27.16,1.89.2a2.94,2.94,0,0,0-.75-.26Z"/><path class="cls-1" d="M8.31,170.13c.11-.67.18-1.28.23-1.83A5.56,5.56,0,0,0,8.31,170.13Z"/><path class="cls-1" d="M206.41,143.58a.52.52,0,0,0,.28.25l0-.09-.26-.51Z"/><path class="cls-1" d="M98.62,199.29c.73,0,1.45,0,2.09-.1A9.09,9.09,0,0,0,98.62,199.29Z"/><path class="cls-1" d="M8.24,153.42v.7c0-.22.07-.52.1-.86l-.09.13Z"/><path class="cls-1" d="M31.66,199.48c.63.06,1.19.11,1.68.11A12.25,12.25,0,0,0,31.66,199.48Z"/><path class="cls-1" d="M4,73a6.7,6.7,0,0,0,.08,2A3.7,3.7,0,0,0,4,73Z"/><path class="cls-1" d="M4.05,89.57v-.1C3.94,89.57,4,89.62,4.05,89.57Z"/><path class="cls-1" d="M4,100.15l0-.18C3.86,100.09,3.85,100.15,4,100.15Z"/><path class="cls-1" d="M4,75.05c-.37,1.37-1.56,1.78-.26,3.55L4,78.25c-.3,1.06.21,2.63.26,3.86a1.88,1.88,0,0,0,.31-.45c0-.62,0-1.44.14-2.69C4.94,77.47,4.32,76.5,4,75.05Z"/><path class="cls-1" d="M9.84,198.71c.24,0,.11-.77,0,0Z"/><path class="cls-1" d="M8.86,184.67l0,1.4A7.14,7.14,0,0,0,8.86,184.67Z"/><path class="cls-1" d="M9.2,130.88l-.06.25C9.28,131.21,9.26,131,9.2,130.88Z"/><path class="cls-1" d="M8.8,187.37l0-1.3A4.66,4.66,0,0,0,8.8,187.37Z"/><path class="cls-1" d="M8.49,147a1,1,0,0,0,0,.22A1,1,0,0,0,8.49,147Z"/><path class="cls-1" d="M120.8.89a11.81,11.81,0,0,1,2.74.33c2.3-.86-4.73,0-1.4-.79a15.21,15.21,0,0,0-2.57.25l1.45.81C123,1.17,119.68,1.21,120.8.89Z"/><path class="cls-1" d="M208.11,130.14l-.07.47c.37-.32.49,0,.69-1.81-.57-1.51-1.42.85-2-1.8a9.79,9.79,0,0,1,0,2C207.15,127.91,207.67,129,208.11,130.14Z"/><path class="cls-1" d="M206.64,129s0,0,0,.07a2.42,2.42,0,0,0-.21.39,5.55,5.55,0,0,1-.09,1A5,5,0,0,0,206.64,129Z"/><path class="cls-1" d="M156.7,1.25l1.21.08A2.19,2.19,0,0,0,156.7,1.25Z"/><path class="cls-1" d="M95.29,209.68c-.53.08-1,.17-1.45.25A4.15,4.15,0,0,0,95.29,209.68Z"/><path class="cls-1" d="M207.31,155.7a12,12,0,0,0-.13,1.28l0,.81Z"/><path class="cls-1" d="M199.45,70.53c.93.91-.08-.7.46-2.52l-.49-1.69A32.34,32.34,0,0,0,199.45,70.53Z"/><path class="cls-1" d="M119.46.61a.15.15,0,0,1,0,.09l.13,0Z"/><path class="cls-1" d="M199.25,20.49l.12-.82A4.14,4.14,0,0,0,199.25,20.49Z"/><path class="cls-1" d="M206.24,139l-.06,6.44.23-1.88C206,142.69,206.8,139.92,206.24,139Z"/><path class="cls-1" d="M198.91,98l-.57.58c1.2,6.4-.52,13.76,1.17,18.86-2,7.8,1.77,5.12,0,12.27l.28-.24c-.23,11.77-.46,23.9-.69,35.83-.09,6-.14,11.88-.11,17.69,0,2.9,0,5.77.12,8.6,0,1.42.07,2.83.11,4.22l.07,2.09,0,.52c0,.15,0,.09,0,.14l0,.16-.39-.09-.09.41-.53-.08-6-.06-12.54-.05-25,.07c-16.61.08-33.19.2-49.91.05-3.27.36-1.3,1.24-4.12,1.68-1.23,0-4,0-4-.48,2.38-.26,1-.69,1.85-.88-4,.05-9.06-.52-12.58.08L89,200a26.21,26.21,0,0,1-4.76.05c.52-.32-1.28-1-.21-1.16-7.44,1.56-5.81-.67-12.07,0-1.25,1.33-9.09,2.43-14.25,3.38L55,201.87c3.61,0-.06-1,4.41-.91-3.73-.38-7.19.19-10.72,0,.68.33.51.77-.91.92-2.17-.18-2.36-.85-4.83-.92l2.44-.42c-1.64-.5-3.06.16-4.59.24-.5-.56-4.19-.66-3.54-1.28-3.33.76-4.51.33-8.1.82,3.73.58-1,.73-.54,1.19l4.21-.22c-5.93-.37,1.93-.1,1.48-1.05,2.79.44-3.83,1.57.84,1.42-5.57.49-6.76.06-12.46.85,3.44-.18-.66.62,1.19.91-4.37,0-1.08-.33-2.43-1-2.38,0-3.26-.51-5.44.19-3.86-.28.57-.71-1.38-1.1,1.43-.65,10.73.81,9.68-1.28,2,0,4.47-.83,7.37-.78-2.53-.28-6.15-1-9.28-.49l-.16,1.18c-2.37,0-2.86.83-4.58.73.91-.34-.73-.84-2.64-.74.54.16,1.31.12,1.1.33a17.23,17.23,0,0,0-2.19.18l-.87.15a3.51,3.51,0,0,0-.34.18,5.32,5.32,0,0,1-2.14.6,13,13,0,0,1,1.7.51l.41.15a3.25,3.25,0,0,0,.58.16c.58.11,1.24.23,2.05.36a2.07,2.07,0,0,1-1.71.38L13,203.1l-.43-.06a3.93,3.93,0,0,0-.92,0c.23-.12.49-.14.17-.3l-1.54.4c-1.36-.18-1-.46-.64-.76s.75-.59.26-.8a.53.53,0,0,0,0-.16c.35-.88.25-1.09.12-1.37a1.09,1.09,0,0,1-.11-1,1.39,1.39,0,0,0-.21.21,2.05,2.05,0,0,1,.06-.46l-.06,0,0-.22,0-.41,0-.85c0-.57,0-1.11-.08-1.61a4,4,0,0,0-.52-2.09c.28-.24-.08-2-.28-2.76-.24-1.28-1-4.35,0-6.26,0,.05,0,.09,0,.14.11-2.87.43-5.1.76-4.48l.25-4.62.8.49c-.22-4.21-.69-3.79-1.52-6.68A44,44,0,0,0,9,159.1a13.35,13.35,0,0,0,0-1.68l-.32,1.76c0-3.29-.39-2.89-.39-5.06-.07.45-.12.51,0-.7l.06-1.24a2.81,2.81,0,0,1,0,1.08l.26-.4c.86-2.63-.48-4-.18-6.84,0,.27.08.72.08,1,.21-1.58,1.35-3.85.66-4.5a3.19,3.19,0,0,0-.23-1.46L9,139.9c0,.48-.08.85-.12,1.15-.23-.72-.52-1.41-.35-1.5l.15-4a10.83,10.83,0,0,0-.1-2.65l.33-.68c0-1.47.15-1.49.25-1.31,1.15-5.11-.6-7.89.41-13.41-.56-1-.81,1.23-1.11,1.4-.43-.86-.81-4-1.12-5.6.77-2.45,1.45-10,2.56-8.78.09-4.54-.68,1.42-1.07-.86l.05-.52A10.37,10.37,0,0,1,8,106.79c-.6.35-.77-3.67-.6-4.9l.85.86c-.3-4.19-1.58-3.31-2.43-5.92.34-3.34,1.11-1.42,1.87-2.13l-.21-3.5H8.1c-.17-2.28-.77-2.81-.52-6,.61,2.28.6-4.73,1.41-1.58.22-1.75-1-2.26-.17-3.15-.68-1.22-.34,1.57-.55,2.46-1,.71-.47-3.85-.73-5.95.51-.18.6,1.4.94-1.08a4.47,4.47,0,0,1-.22-3.48c-.64,0-.12-2.81-.09-4.21C8.05,69.82,7.58,72.1,7,71.06A18.57,18.57,0,0,1,6.73,66l-.3,1.92c-.94-2.44.68-4,.38-7.36A33.27,33.27,0,0,0,7.66,64c-.3-1.57-.77-4.56-1.06-7l.93-2.81c-.47-.35,0-3.15-.6-3.15.43-3.5.77,2.8,1.24,3.15.42-4.38-1.07-3.51-.09-7.71l.6,1.4c0-1.4-.3-4.21,0-4.38-.21,0-.13.7-.13,1.57-1.28-.86-.89-6.47-2.22-6l-.08,1.94c-.26-3-1.16-5.08-.69-7.35C6,32,6.45,35,6.8,36c.08-2.79-1.45-2.26-1.33-5.6-.21,1.76-.68,1.42-1,.37-.09,1.93-.34,5.95.22,5.24l.12-.69c.35.17.47,1.22.64,1.75,0,2.63-.59,1.22-.85,1.75-.21,4.38,1.32.36,1.28,4.37l-.26.52C6,45.65,6,48.63,6.81,49.15c-.86,1.76.34,4.55-.17,6.47-1.88.37.12-6.82-.9-9.1-.39,2.11-.9-1.2-1.33-2.08l.81,6.64c-.25.53-1.19,2.48-.5,3.68l0-.52c.21,2.64,1,1.93.73,4.21-.18.35-.48-.35-.6-.53-.17,2.11.42,1.75.6,3.16-.17,2.1-.77-1-1,.7.72,2.44-.17,3.86-.13,6,1.07-.9,1.45,8.39,2.39,3.84l.73,5.06C6.94,78.23,6,73.17,5.11,74.57l0-4C3.82,71.2,6,79,4.53,81.66A23.9,23.9,0,0,1,4,87.37l1.19-.7c-.28,2.12-.92,2.8-1.14,2.9a31.6,31.6,0,0,1,0,3.51,3.33,3.33,0,0,1-.4-1.49c-.65,1.6-.41,2.06-.06,2.62a11.86,11.86,0,0,1,.25,3.49L3.4,96.51c.1.81.23,1.8.44,1.89a11.3,11.3,0,0,0,.1,1.57,7.35,7.35,0,0,0,1.21-3.13c-.47,4.91-.21,8.75-1.19,13-.34-.16-.77-1.91-.81-1.38-.17,2.1.42,4.38.94,4.19,0,.47,0,.84,0,1.16a3.09,3.09,0,0,0-.66,1.89A3.67,3.67,0,0,0,3.24,117c.94.7.47,4.73.89,5.61a27,27,0,0,0,.06-3.3c.63,1.69,1.34,3.21.84,4.51-.6-3.14-1,3.36-1.24-1.38-1.19,3.33.86,1.74.43,5.26L3.75,130c-.68-.35-.34-3.69-.59-3.16l.08,1.58c-.51-1.58-.17-7.54-.94-11.21l-.38,7.37c.81,9.28-.12,20.85,1.37,28.73v-.34c.06.14.19.21.45.32l-.17.35.51,1.56c-.64,1.77-.76,5.09-1.27,7.91.42-1.77.42-1.77.93-1.94.69.35,1,.62.73,3.25-.49,0-.48-1.59-.86.35.24-1,.58-.11.64,1-.32,1.48-.38,3.95-.87,4a4.31,4.31,0,0,1,.11-1.7c-.13-.69-.44,2.78-.84.75l.14,2.67c-.41,1.57-.64-1-.9-.41.33,4.45,1.45,6.73,1.78,10.76a2.48,2.48,0,0,0-1-.19c-.33,3.1,1.18,6.65,1.27,10.18-.33-.52-.2-1.84-.35-2.91l-.28,8.31L3,208.48l5,.15,5.12.2c2.25.15,4.53.33,6.88.57l2.63-1.11,2.65.74c10.65.71,18.83,0,29-.34,3.16-.07,1.9.77,3.38,1.09,6.92.12,8.61-1.13,15.21-1.38-.91.34-2.46,1.3.38,1.34a3.07,3.07,0,0,1,2.67-.63l-.91.35c1.64.5,3.22,0,6.62.24a71.1,71.1,0,0,0,16.64-2c5.3.11-.55,1.19.46,1.44-3.74-.41-2.6.19-3.41.58,2-.32,4.37-.51,5.39.29a31.6,31.6,0,0,0,6.72-.55c-1.37.27-2.54-.16-1.26-.52,2.26.27,8,0,7.68,1,13.05-.19,27.66,0,41.64,0,2.36-.51-1.79-.2-.49-.56,3.42-.66,2.7.35,5.45-.18l-1.13.54c4.08.08,8.41-.92,12.37-1.42-.66.61,3.25.51,0,.88,1.93-.11,4.28,2.66,5.78,2.09l-2.18-2.57c.1-.26,2.82-.1,2.54-.27a22.12,22.12,0,0,0,4.93,1.1c.57.65-2.36.51-4,.5-.24,1.08,5.42.69,3.09,1.69,3.45-.18-.49-.56,1.57-1l3,.23-2.32-.36c2.51-.33,3.37-1.15,6.72-.55l3.47-1.06c.18.43.81.47,1.63.43l1.32-.09.69,0c.24,0,.41,0,.84,0-.14.05-.32.09-.43.14l-.28.13-.56.28h.82l1.2,0c.77,0,1.44,0,2.07.08,1.27.07,2.37.18,3.79.34a6.73,6.73,0,0,1-2.86.28,2.9,2.9,0,0,0-1.93.25l5,.26c-.15-.25.49-.46.69-.66s0-.36-1.75-.5c1.6-.39,2.69-.75,4.18-1-.19-1.33-.34-2.74-.43-4.45,0-.86-.09-1.79-.11-2.83l0-1.64v-1.71c.42-1.36.6-.67.79.33.18,1.5.36,3.48.77,2.62,0-.68,0-1.33,0-1.95v-.84l0-.5a12.73,12.73,0,0,0-.2-1.77,16.06,16.06,0,0,0-.74-2.76,12,12,0,0,1-1.13-4.72c.34-4.7-.42-4.43-.48-9.19.57,1.51.61-3.34,1.15-4.21l.58,1.88c-.17-1.45.05-2.84.46-2.41-.76.27-.71-6.18-1.08-9.47l-.65.58a66,66,0,0,1-.46-8.85c-.21-4-.79-3.13-1.5-6.25.59-1.73,1.28-1.54,2-1-.34,1.08-.14,2.92-.34,4.7.56,5.12,1.94,9.1,1.62,14.21,1.58,2.21-.18-3.45.37-5.93a.61.61,0,0,1,.14.44,4.21,4.21,0,0,1,.05-.62c.19,1.83.44,4.82,1.25,5.31-.16-3.06-1.58-2.22-.9-6-.44-2.82.81-5.12.92-6.83-.6-1.88-1.87-2-1.62-6.58l.89,2c0-5.23-1.3-2.45-1.26-7.3-.11,1.71-.87-1.64-.9,1.6a26,26,0,0,1-.3-7.75c-.14-.69-.3-.15-.61-.27-.61,2.91.6,4.6-.28,7l.95,2c-.34,2.7-1.11,3-1.49,1.32a6.63,6.63,0,0,1,0,2c-1.44.47.51-3.25-.71-4.19l.1,1.91c-.93.83-.82-4.46-.75-6.93.44-2.79.6-5.34,1.27-5.53l.29,3.74c.54-1.94-.32-4.78-.29-7a1.79,1.79,0,0,0,.21-.61c-.06.11-.12.18-.18.18a3.48,3.48,0,0,1,.27-1.23c0-1.91-.38-4.72-.16-6.5l-.6.22.34.24c0,1.75-.4,4.13-.85,2.8-.42-4,.75-4.75,1.27-5.69.93.91,0,3.86.31,5.87.91-1.21.09-4,.7-8.1,1,1.62,0,4.73.91,5.63.17-3.29-.54-4.15-.29-7.61.47.44.51,3.81,1.11,3.59l.29-2.22c.06,5.46,1.25-1,1.49,3.3.41-2-.82-2.8-.18-5.65-.44.79-1.23,3.07-1.63.34l.3-3.09c.48-1.29,1.07,3.22,1.48,1.21l-.34-3.23c-.3.11-.45,1.66-.87.68.33-1.86-1.15-3.06-1.6-5.26a10.24,10.24,0,0,1,.44-3.76c-.89-4.42-.86-10-1.7-14.08.6,2.77,1-.11,1.48-1.77.13,3.19,1.07,3.22,1.67,3-.1-1.95-1.07-3.22-1.39-2.24.39-3.25-.65-2.24,0-5.1.32-1.85.92.93,1.28.29,0-3.51-1.14-1-.92-4.77.12.21.16.56.33.26.2-2.06-.24-4.27-.7-4.72,1.22-2.18-.14-6.17,1-5.74-.32-5-.65.74-1.06-.24-.53-2-.1-5.8.09-7a20.23,20.23,0,0,1,.17,3.54l.82-1c.59-6.19-1.87-3.93-1.15-9.91.43,3.08.63,1,1.21,2.56-.21-.93,0-5.61-.61-2.78.07-2.25.22-3.81.37-5.36a25.65,25.65,0,0,0-1.09-5.32,31.7,31.7,0,0,1,1-7c-.6-6.62.42-12.72-.22-19.69l0,.52c.08-2.71-.19-2.11-.48-1.54-.15.29-.3.57-.41.42a1.21,1.21,0,0,1-.13-.58c0-.35,0-.71,0-1.86,1,1.08.69-5.3,1.22-8.75l0-1.21c-2.64-.1-5.25-.1-7.74-.05l-1.84,0-1.64.05L196,2.32a51.82,51.82,0,0,1-8.62,0c0-.21.46-.47,1.69-.49-4.85-.32-8.75-.12-13.12-.17l.19-.13c-7-.82-13.36.17-20.61.41.59-.12.74-.51,1.19-.64-3.65-.23-9.49-.38-12,.55-4.34-1-2.87.3-8.45-.67-.32-.17.55-.16.92-.2-2.74-.34-4.68-.23-7.46-.35-6.12.64-7.63,1.95-14.75,1.55-.36-1.37,4.37-.34,4.53-1.43a12.14,12.14,0,0,1-4.6.2c1.17-.54.25-.34,1.06-.85-1.49-.36-6,1.44-6,1.31-.08.27.44.41,1.84.37-1.66.85-7,.07-10.43.41,1.12,0,4.64.29,3.32.95-4.63-.3-6.16,1-9.39,1.58C91,4,98.37,3.51,97.57,2.54c-.72-.35-2.43-1.12-.64-1.5-3.83-.2-6.58.62-10,.83L87,1.6c-4.77.12-9.85,1.31-13.86.76l2.13.31c-.79.16-3.19.09-4.52.64.15-.45-3-.86-1.69-1.23C67,3.53,58.25,3,55.88,4.33c-1.28-.36-.26-1,.13-1.28,3,.12,4,.41,5.61-.17-2.51,0-4.34-.35-3.95-.68-2.51.9-8.47,1.26-9.73,2.16-1.83-.45-3.58-.7-2.94-1.45-7.68.47,3.8,2.33-4.87,2.31-4-.73,3.85-1-1.6-1.23l1-.12c-3.94-1.94-2.76,1.38-7.22,1.32-.6-1.06,3.1-.76,0-1.51-4.09.26-5.87,1.83-10,1.49L23,4.72c-2.62.08-7.69-.13-10.29,0-.12-.21.25-.18.75-.23-4.81-.4-2,.54-5.95-.19l-1.13.51c2,.36,5.81.88,8.31.28-2.5.6,3.92,1.33,2.68,2.23l.49-.36c6.54,1.55,15,1.75,23.24,2.33,5.23-1.08,8.9.43,14.51-.31.88-1.24,1.05-.25,5.87-.5-2.55.16-.3.94,1.31,1.11A14.9,14.9,0,0,1,66.06,9c1,.42,7,1.42,9.27.58,2.93.39-.69.39-1.33.65,1.2.63,2.39-.5,3.37-.07,0,0-.05.13-.36.2,4.49-.06,7.17.27,11.84.42.38-1.21,4.59-.45,6.66-.89-.67.39,2.63.46,4,.69l2.5-.9c2.47-.77,3.44.53,6.64.12l-.77-.22c2.34-.36,8.49.37,10.79,1,21.6-2.37,33.42,1.33,56.18.69,1.48-.37-1.08-.62.08-1.16,2.31-.14,2.84-.09,4.94-.1-1.86-.33-1.56.08-1.32-.26l-3.22.34c-.16-.09.19-.12-.11-.3a23.24,23.24,0,0,1-3.75.29c2-.31,2.55-1.21,5.28-.87a3.44,3.44,0,0,1-1.28.24c2.25.07,2.37-.35,4.06-.12,2.07.2,1.56-.07,1.83.31l6.42.49c3.21-1.07,7.16-.06,8.2,0-.7.81-4.26.25-5.84,1l2.32.58.14-.64,3.3.18-.19.12a1.77,1.77,0,0,1,1.64-.28c.14.09.46.27.1.31l.59-.09.29-.05c.1,0,.08,0,.12,0l.37-.18c-.5.67.52.2.06,1a1.06,1.06,0,0,0,.49.07c0,.31.27.52.38.93v.57l0,.74c0,.51,0,1,0,1.57a33.2,33.2,0,0,1-.38,3.7c.37-1.1,1.21,2.15,1.07,4.22-.18,1.2-.36,1.51-.65.74l.39,2.73c-1.19,3.41-.42,6.75-.83,11.75l-.34-.26a24.08,24.08,0,0,1,.59,6.63l-.67-.5c-.47,3.4,1.42,2.6,1,6.36.72,0,1.09-2.39,1.78-2.76-.74.89-.85,4.93-.32,4,.29,3.74,0,2.59-.2,2.91l.45,2.21c0,2.63-.95.84-1.37-.13.78,2.45.23,5.13.11,7.92L200,64.35,199.91,68a29.21,29.21,0,0,1,.31,8.83l-.95-2.13c-.5,2.17.33,1.12.49,1.69.47,3.43-.18,4.16-.72,6C200,87.86,197.47,93.3,198.91,98ZM8.74,132.19l-.14.5C8.43,131.55,8.28,130.89,8.74,132.19Zm-.27,30.14c-.37-3.63.08-2.48.34-2.76-.26,3.58,0,5.57-.27,8.73a1.62,1.62,0,0,1,.61-.77c-.05,1.26-.26,2.52-.74,2.95C7.45,168.92,9,160.76,8.47,162.33ZM3.75,94.47a2.74,2.74,0,0,1,.21.42v0Zm.85,18a2.69,2.69,0,0,0-.4,1.24A1.5,1.5,0,0,0,4.6,112.43ZM3.42,148.19c-.4.83-.28,2.71-.19,4.08C3.28,151.63,3.4,150.48,3.42,148.19Zm171.74,59.44c-1.08.16-3.12.56-1.26.85.89-.34,2.62.25,3.37-.27l.19,0A19.79,19.79,0,0,0,175.16,207.63Zm29.08-78.87c.39.19.82,1,1.11.48l0,.3c.14-.27.25-.5.33-.29a10.26,10.26,0,0,0,.06-2.38C204.43,126.58,204.22,124.76,204.24,128.76Z"/><path class="cls-1" d="M209.5,164.18c0-.41,0-.73,0-1C209.47,163.46,209.48,163.77,209.5,164.18Z"/><path class="cls-1" d="M205.71,127.05a9,9,0,0,0-.36,2.19A5.59,5.59,0,0,0,205.71,127.05Z"/><path class="cls-1" d="M8.08,36l.13,1L8.59,35c-.43-3.51-1-3.68-1.62-4.55.6,3.15.3,5.07.47,9.11Z"/><path class="cls-1" d="M3.81,37.78a6.63,6.63,0,0,0-.64,1.76l.39.52Z"/><path class="cls-1" d="M1.94,79.33,2.28,76C1.94,75,1.34,78.81,1.94,79.33Z"/><path class="cls-1" d="M8.69,64.55,8.26,62.8c-.34,1.57-.3,3.69.17,4C8.17,64.73,8.69,66.31,8.69,64.55Z"/><path class="cls-1" d="M1.86,88.28c.77,1-.34,3.33.38,4C2,91.42,2.63,88.44,1.86,88.28Z"/><path class="cls-1" d="M9.16,85.94c.73-1.06.09-2.81.26-4.92C9.42,82.78,8.65,85.23,9.16,85.94Z"/><path class="cls-1" d="M4,106.13c-.55-.17-.51-1.57-.38-3.15a7,7,0,0,1,.51,1.58c-.43-2.63-.34-2.81-.6-4.92-.38,2.11-.63,5.27-1.32,4.93C2.76,106.13,3.53,108.06,4,106.13Z"/><path class="cls-1" d="M9.25,91c.22-1.76.73-2.81.68-4.91-.38.36-.94,1.06-.85,3.52l-.64-.88C8,91,9.29,87.85,9.25,91Z"/><path class="cls-1" d="M2.55,115.78l.3-1.06c-.51-2.45-.26-5.6-1.07-7A43.87,43.87,0,0,0,2.55,115.78Z"/><path class="cls-1" d="M8.06,99.61,9,100c.12-2.46-.3.17-.51-.7a6,6,0,0,0,0-2.27C8.62,99.77,7.76,97.16,8.06,99.61Z"/><path class="cls-1" d="M9.05,107.66l.38,3.15,1-2.46C10.07,104.67,9.85,108.17,9.05,107.66Z"/><path class="cls-1" d="M8.45,111.53l-.17.35,1.32,4.71A30.86,30.86,0,0,0,8.45,111.53Z"/><path class="cls-1" d="M2.63,168.68c.38.53.86-2.24.43-1.05C2.74,167.1,2.25,170.78,2.63,168.68Z"/><path class="cls-1" d="M9.81,157.41c-.29,1.34.25,5.74.52,7.66C10.14,162.78,10.33,157.09,9.81,157.41Z"/><path class="cls-1" d="M10.43,165.86l-.1-.79A3.94,3.94,0,0,0,10.43,165.86Z"/><path class="cls-1" d="M48.23,199.08a2.13,2.13,0,0,0,.58-.1Z"/><path class="cls-1" d="M46.29,199.3c-1.3-.13-3.9.11-4.35.52,2.06-.19,3.88-.31,6.29-.74C47.32,199.12,46.21,198.83,46.29,199.3Z"/><path class="cls-1" d="M64.9,199.5c-1,.25-2.29.12-2,.49C63.48,200.16,65.54,199.76,64.9,199.5Z"/><path class="cls-1" d="M190.21,210.7c1.79.2,2.84.05,2.36-.51C190.57,210.2,191.66,210.53,190.21,210.7Z"/><polygon class="cls-1" points="194.87 210.07 195.11 210.35 196.29 210.78 194.87 210.07"/><path class="cls-1" d="M210.74,206.57a8,8,0,0,1,.25,1.58C210.91,206.75,210.83,205.58,210.74,206.57Z"/><path class="cls-1" d="M211,208.86l0-.71Z"/><path class="cls-1" d="M210.84,210.26l.3.55c0-.43-.08-1.21-.12-1.95C211,209.52,211,210.17,210.84,210.26Z"/><path class="cls-1" d="M210.84,199.58c-.28,1.47-.57,2.84-.85,4.1.21,2.28.32,1.13.49-.1s.4-2.56.86,0Z"/><path class="cls-1" d="M210.61,190.87c.27-2.25-1.07-5.49-.06-6.76-.53-6.36-1.68,1.47-2.06-5.81-.52,6.88,1.94,3.5,1.38,9.61C210.49,185,210.36,189.88,210.61,190.87Z"/><path class="cls-1" d="M208.91,192c.51.37.55-2.48.21-3.37C209.07,189.41,208.36,190.84,208.91,192Z"/><polygon class="cls-1" points="210.15 178.44 210.54 176.49 210.22 175.98 210.15 178.44"/><path class="cls-1" d="M210.35,171.06l.59,1.89C210.71,172.33,210.76,169.49,210.35,171.06Z"/><path class="cls-1" d="M211.08,160.78c.2-1.78-1.15-3.39-.86.37l.06-.86C210.49,160.52,211,158.49,211.08,160.78Z"/><path class="cls-1" d="M209,137c0,1.22.14,2.67.42,2.42l-.27-3.37Z"/><path class="cls-1" d="M205.67,137.51c-.82,1.13.07,3.15-.2,5.39A38.19,38.19,0,0,0,205.67,137.51Z"/><path class="cls-1" d="M210.13,133.18a8.37,8.37,0,0,1,.06,3.15C210.66,135.92,210.54,133.61,210.13,133.18Z"/><path class="cls-1" d="M209.85,127.81c.33-1.09.46.25.68-.58a15,15,0,0,0-.13-6.17c-.35.62-1.3,1.46-1.71.49.29,3.76,1.81,5.69.64,7.52l1.43,3.14C211,129.21,209.76,129.9,209.85,127.81Z"/><path class="cls-1" d="M207.12,135.42l.48-2c-.46.4-.55-1.13-.7-2.2C205.85,131.74,207.06,134.27,207.12,135.42Z"/><polygon class="cls-1" points="209.22 106.95 208.97 102.67 208.91 104.06 209.22 106.95"/><polygon class="cls-1" points="209.55 104.21 209.85 104.09 209.3 100.83 209.55 104.21"/><polygon class="cls-1" points="209.91 99.73 209.86 100.23 210.12 102.75 209.91 99.73"/><path class="cls-1" d="M210.11,90.81l-.44.79c.12,1.08-.38,3.25.22,3A8.75,8.75,0,0,1,210.11,90.81Z"/><path class="cls-1" d="M198.89,61.28c.29.77.55.31.81-.15L199,59.9A3,3,0,0,1,198.89,61.28Z"/><path class="cls-1" d="M200.11,56.12,199.25,53c-.13,3.65.54,4.16.68,7.35.27-1.35-.34-3.24-.11-4.95Z"/><path class="cls-1" d="M190.92,10.72c.28-.55-.44-.48,1.92-.83-3.23.34-6,.22-9.71.3.63.35-2.13,1-.71.8l4.13-.33-.62.38C188.83,11.46,187.82,10.42,190.92,10.72Z"/><path class="cls-1" d="M24.88,4.87c.39-.27-.11-.51-.61-.75C21.81,4.42,25.38,4.81,24.88,4.87Z"/></g></g></svg>